<?xml version="1.0"?><svg version="1.2" baseProfile="tiny-ps" viewBox="0 0 300 300" xmlns="http://www.w3.org/2000/svg" xmlns:xlink="http://www.w3.org/1999/xlink"><title>IBEROMARE</title><g><g fill="#fcfdfc" transform="matrix(.1 0 0 -.1 0 300)"><path d="M0 1500V0h3000v3000H0V1500z"/></g><g fill="#ced8d0" transform="matrix(.1 0 0 -.1 0 300)"><path d="M1467 2406c-32-12-111-58-502-291-38-23-89-52-113-64s-61-38-83-58l-40-37-22-40-21-41-5-101-6-101-76-61-76-61-57-69c-31-38-56-72-56-76 0-3 39 23 88 59l87 65 100 50 100 49 89 26c48 14 118 30 155 36l66 11 140-1h140l200-26 200-27 125 1h125l78 20 78 21 51 27 51 28 29 39 28 39v104l-23 34-22 34-335 202c-184 110-351 206-371 212-47 14-75 13-122-3zm1000-562-17-68-36-63-35-63-56-60-56-60-81-54c-164-109-314-153-613-181-246-23-326-49-470-151-63-45-153-139-153-161v-13l37-19c21-10 134-76 251-144l214-126 50-10 50-11 42 11c48 13 57 17 383 211l251 150 42 40 42 41 16 36 17 36v282l43 62c24 34 54 88 68 121l24 60 9 67 10 68-7 33-7 33-18-67zM1354 576c-17-8-39-24-48-37l-16-23v-77l14-28 15-27 26-12c14-7 42-12 61-12h36l34 34 34 34v92l-27 29-28 30-35 6-35 5-31-14zm86-56 20-20v-23c0-12-7-33-16-45l-15-22h-58l-15 22c-9 12-16 33-16 45v23l20 20 20 20h40l20-20zm-870-50V360h50v220h-50V470zm100 0V360h131l24 25c29 28 31 42 11 71l-15 20 10 15c5 8 9 23 9 35v21l-18 16-19 17H670V470zm115 50v-15l-32-3-33-3v42l33-3 32-3v-15zm10-90v-15l-37-3-38-3v42l38-3 37-3v-15zm95 40V360h150v50H940v39l43 3 42 3 3 23 3 22h-91v40h90v40H890V470zm190 0V360h50v80h18l17-1 27-39 28-40h25c31 0 31 2 0 48l-25 36 20 21 20 21v54l-20 20-20 20h-140V470zm120 55 12-14-7-11-6-10h-69v50h58l12-15zm350-55V360h50v63l1 62 25-47 24-48h30l24 48 25 47 1-62v-63h50v220h-56l-29-61-29-61-30 61-30 61h-56V470zm303 7c-24-56-43-106-43-110s11-7 25-7h25l10 25 10 25h90l6-25 6-25h58l-19 48c-11 26-31 74-44 107l-25 60-29 3-28 3-42-104zm75-25c-27-5-30 1-17 34l11 29 13-30 13-30-20-3zm132 18V360h50v80h37l27-40 26-40h25c31 0 31 2 0 48l-25 36 20 21 20 21v54l-20 20-20 20h-140V470zm120 55 12-14-7-11-6-10h-69v50h58l12-15zm100-55V360h160v50h-110v40h90v50h-90v40h100v40h-150V470z"/></g><g fill="#9eaaa3" transform="matrix(.1 0 0 -.1 0 300)"><path d="M1460 2403c-8-3-96-54-195-113s-238-142-310-183c-71-42-148-89-170-105l-40-29-30-54-29-54-4-98-4-98-58-44c-57-44-173-164-191-197l-9-18 65 50c180 136 378 215 605 241l95 11 115-6c63-4 183-17 265-28l150-22h350l80 27 81 27 42 36c23 20 49 49 57 65l15 28v76l-21 35c-12 19-29 40-38 47-30 24-650 393-676 403-28 11-120 12-145 3zm1017-540c-10-47-67-172-98-212-79-103-190-190-317-248l-76-35-110-28-111-28-115-11c-295-30-352-43-465-106-90-50-235-184-235-217 0-5 10-12 23-17 12-5 121-67 242-138 241-142 265-153 336-153h48l73 38c40 21 178 101 307 177l234 140 45 40 45 39 18 41 19 40v285l36 47c45 59 78 124 99 195l16 56-3 69-3 68-8-42zM1362 578l-33-9-20-32-20-32 4-44 5-43 26-27 26-26h100l26 26 25 26 6 40 5 40-16 31c-17 33-35 46-76 54l-25 6-33-10zm80-55 18-16v-60l-17-19-16-18h-56l-15 16-16 15v62l17 19 16 18h50l19-17zm-870-50 3-108h40l3 108 3 107h-52l3-107zm100 0 3-108 67 1 67 1 14 12c8 6 17 20 20 31l5 19-13 24-13 25 9 13c14 23 10 48-11 69l-20 20H669l3-107zm113 47v-15l-32-3-33-3v42l33-3 32-3v-15zm0-73 18-14-7-11-7-12h-69v50h23c13 0 31-6 42-13zm105 23V359l73 3 72 3 3 23 3 22H929l3 23 3 22 43 3 42 3v39h-90v40h100v40H890V470zm192 3 3-108h40l3 38 3 37h36l27-40 26-40h51l-7 13c-4 6-16 24-26 40l-19 27 20 26c12 15 21 35 21 46v19l-25 24-24 25h-132l3-107zm123 42v-20l-37-3-38-3v52l38-3 37-3v-20zm347-42 3-108h40l5 64 5 65 24-52 24-52h24l24 52 24 52 5-65 5-64 23-3 22-3v221h-50l-31-62-32-63-31 63-30 62h-57l3-107zm339 90c-9-18-81-194-81-200 0-2 11-3 25-3h25l6 25 6 25h95l11-25 12-25h40v10c0 5-19 55-41 110l-42 100h-46l-10-17zm59-109c0-2-11-4-25-4h-25v10c0 5 5 21 12 35l12 26 13-32c7-17 13-33 13-35zm112 19 3-108 23-3 22-3v81h37l28-40 28-40h37v11c0 6-9 24-21 40l-20 29 20 26c12 15 21 35 21 46v19l-25 24-24 25h-132l3-107zm126 40 3-23h-81v51l38-3 37-3 3-22zm94-40 3-108h150v40l-52 3-53 3v49h90v40h-90v40h100v40h-151l3-107z"/></g><g fill="#5aa358" transform="matrix(.1 0 0 -.1 0 300)"><path d="M1445 2391c-22-10-83-45-135-77-52-33-187-113-300-179l-205-118-38-36-37-35-21-43-21-43-5-100-6-99-41-27c-47-32-180-164-197-196l-12-23 29 26c91 82 281 181 429 223 120 34 206 46 345 46h115l245-30c331-41 413-39 567 11l62 20 41 30 42 30 20 46 20 46-5 34-6 35-25 33-25 33-98 59c-250 152-547 326-578 339l-34 14h-86l-40-19zm1021-565-19-67-33-55c-50-83-108-148-181-202-162-122-364-187-658-212-71-6-161-18-200-26l-70-14-93-46-94-46-79-76-79-77v-34l33-17c17-9 120-69 227-132s215-124 239-135l44-19 57 4 58 4 83 48c46 27 183 107 304 179l220 131 47 47 46 46 11 39 11 39v267l28 37c47 59 79 122 102 197l21 71-3 58-3 57-19-66zM570 475V370h39l3 105 3 105h-45V475zm100 0V370h131l20 10 19 11v68l-9 5-9 6 5 42 6 41-18 14-19 13H670V475zm120 45v-20l-25-6c-14-3-32-4-40 0l-15 5v41h80v-20zm-6-66 16-6v-36l-16-6c-9-3-27-6-40-6h-25l-5 15c-4 8-4 22 0 30l5 15h25c13 0 31-3 40-6zm106 21V370h150v29l-52 3-53 3-3 28-3 27h91v35h-85l-3 23-3 22h101v40H890V475zm190 0V370h40v71l17 6 16 6 23-26c13-15 27-34 32-43l9-16 22 4 21 3-24 36-25 37 20 13 20 14 1 34 1 34-23 19-22 18h-128V475zm128 38 3-22-25-7c-13-3-33-4-43-2l-18 3-3 28-3 28 43-3 43-3 3-22zm120 38-33-29v-88l17-27 18-26 38-12 38-11 37 16 38 15 15 37 16 37-7 35-6 34-26 24-26 24h-87l-32-29zm116-27 16-15v-69l-20-20c-24-24-48-25-78-4l-22 15v72l17 19 16 18h56l15-16zm116 19c0-21-3-68-7-105l-6-68h53v125l28-49c15-27 32-51 37-53l11-3 29 57 30 58 3-67 3-68h39v210h-50l-30-60c-17-33-32-60-35-60s-18 27-35 60l-30 60h-40v-37zm333 20c-3-10-23-57-44-105l-38-88h48l6 20 6 20h101l5-20 5-20h50l-4 8c-1 5-21 52-43 105l-40 97h-46l-6-17zm53-110c-2-2-15-3-29-1l-25 3 15 35 15 35 15-34c8-18 12-35 9-38zm124 22V370h40v80h35l25-40 25-40h22c29 0 29 4-2 44l-25 33 20 14 21 14 1 34 1 34-23 19-22 18h-118V475zm118 41 4-19-14-8c-7-5-25-9-40-9h-28v61l37-3 38-3 3-19zm102-41V370h140v30h-100v60h90v28l-29 7c-15 3-34 5-42 3l-14-3-3 23-3 22h101v40h-140V475z"/></g><g fill="#72777c" transform="matrix(.1 0 0 -.1 0 300)"><path d="m2466 1826-19-67-33-55c-50-83-108-148-181-202-162-122-364-187-658-212-71-6-161-18-200-26l-70-14-93-46-94-46-79-76-79-77v-34l33-17c17-9 120-69 227-132s215-124 239-135l44-19 57 4 58 4 83 48c46 27 183 107 304 179l220 131 47 47 46 46 11 39 11 39v267l28 37c47 59 79 122 102 197l21 71-3 58-3 57-19-66zM570 475V370h39l3 105 3 105h-45V475zm100 0V370h131l20 10 19 11v68l-9 5-9 6 5 42 6 41-18 14-19 13H670V475zm120 45v-20l-25-6c-14-3-32-4-40 0l-15 5v41h80v-20zm-6-66 16-6v-36l-16-6c-9-3-27-6-40-6h-25l-5 15c-4 8-4 22 0 30l5 15h25c13 0 31-3 40-6zm106 21V370h150v29l-52 3-53 3-3 28-3 27h91v35h-85l-3 23-3 22h101v40H890V475zm190 0V370h40v71l17 6 16 6 23-26c13-15 27-34 32-43l9-16 22 4 21 3-24 36-25 37 20 13 20 14 1 34 1 34-23 19-22 18h-128V475zm128 38 3-22-25-7c-13-3-33-4-43-2l-18 3-3 28-3 28 43-3 43-3 3-22zm120 38-33-29v-88l17-27 18-26 38-12 38-11 37 16 38 15 15 37 16 37-7 35-6 34-26 24-26 24h-87l-32-29zm116-27 16-15v-69l-20-20c-24-24-48-25-78-4l-22 15v72l17 19 16 18h56l15-16zm116 19c0-21-3-68-7-105l-6-68h53v125l28-49c15-27 32-51 37-53l11-3 29 57 30 58 3-67 3-68h39v210h-50l-30-60c-17-33-32-60-35-60s-18 27-35 60l-30 60h-40v-37zm333 20c-3-10-23-57-44-105l-38-88h48l6 20 6 20h101l5-20 5-20h50l-4 8c-1 5-21 52-43 105l-40 97h-46l-6-17zm53-110c-2-2-15-3-29-1l-25 3 15 35 15 35 15-34c8-18 12-35 9-38zm124 22V370h40v80h35l25-40 25-40h22c29 0 29 4-2 44l-25 33 20 14 21 14 1 34 1 34-23 19-22 18h-118V475zm118 41 4-19-14-8c-7-5-25-9-40-9h-28v61l37-3 38-3 3-19zm102-41V370h140v30h-100v60h90v28l-29 7c-15 3-34 5-42 3l-14-3-3 23-3 22h101v40h-140V475z"/></g><g fill="#414850" transform="matrix(.1 0 0 -.1 0 300)"><path d="M2477 1848c-4-20-26-74-49-120l-42-83-81-80-81-80-84-48-85-47-90-29c-127-41-215-57-407-75l-168-16-77-25-78-24-65-38-64-38-73-71-73-71v-28l53-29c28-16 138-80 242-142l190-112 45-12 44-12 39 6c21 4 62 18 90 33 76 38 514 300 570 340l47 35 28 46 27 47 3 150 4 150 33 45c48 67 83 142 101 216l15 67-3 41-3 41-8-37zM580 475V370h30v210h-30V475zm100 0V370h127l16 18c10 10 17 28 17 39v21l-15 12-16 13 11 11c5 5 10 22 10 37v28l-22 15-22 16H680V475zm98 66 14-8-4-19-3-19-38-3-37-3v24c0 13 3 27 7 30 9 10 45 8 61-2zm17-111v-25l-42-3-43-3v62l43-3 42-3v-25zm95 45V370h140v30H930v60h90v30h-90v60h100v30H890V475zm200 1V370h30v80h47l27-40 26-40h20c25 0 25-1-5 40l-25 34 20 21 20 21v25c0 14-6 33-13 43l-13 18-67 5-67 6V476zm104 61 18-13-3-20-4-19-43-3-42-3v29c0 16 3 32 7 35 11 11 48 8 67-6zm159 33c-39-16-57-57-54-121l1-26 25-27 24-26h89l30 25 30 25 5 26 5 26-9 34-10 33-26 21-26 20-31-1c-17 0-41-4-53-9zm88-39 23-18v-76l-23-18-23-19h-45l-18 20-19 21v72l23 18c29 24 53 24 82 0zm119-56V370h29l3 73 3 72 30-57 29-58h22l29 58 30 57 3-72 3-73h39v44c0 23-3 71-6 105l-7 61h-33l-33-67-33-68-34 68-34 67h-40V475zm301 6c-22-55-41-102-41-105s8-6 18-6h19l11 25 12 25h90l10-25 10-25h39l-43 103-42 102-21 3-20 3-42-100zm89-27v-14h-60v9c0 5 7 26 16 47l16 38 14-33c8-18 14-40 14-47zm120 22V370h40v80h37l27-40 26-40h41l-7 13c-4 6-15 24-25 38l-18 26 19 18 20 18v65l-15 12-15 12-65 6-65 5V476zm104 61 18-13-3-20-4-19-38-3-37-3v71h23c13 0 31-6 41-13zm116-62V370h140v30h-100v60h90v30h-90v60h88l6 15 5 15h-139V475z"/></g></g></svg>