<svg xmlns="http://www.w3.org/2000/svg" width="1024" height="1024"><path d="M0 0v1024h1024V0H0z" style="fill:#fdfdfd;stroke:none"/><path d="m515 200 1 2-6-1c-2.64 2.267-4.579 2.509-8 2 0 2.436-.786 1.615-3 1l1 2-3-1c-1.554.777-1.15.275 0 2l-3-1c-1.353.859-1.355.823-3 1-.36 2.693-1.44 2.38-4 2l1 2c-4.722-.041-7.663 1.948-10 6-5.457-.244-11.329 3.258-14 8-3.567-1.189-6.704 2.13-9 5l-1-1 1 2c-3.164-.153-5.15.621-8 2 0 2.542-.521 2.207-3 2l1 2-3-1c-1.695 2.542-.929 2.518-3 2l1 2-3-1c-1.695 2.542-.929 2.518-3 2 0 2.716-2.524 2.283-5 3l1 2h-4l1 2c-2.933-.154-4.617-.029-5 3-2.748.23-4.616.185-5 3-4.447.458-10.879 2.229-12 7-2.123.307-2.686.382-4 2-2.852-.08-3.681.153-4 3l-3-1 1 2c-4.667-.043-8.675 1.9-11 6-4.318-1.439-15.092 6.365-18 10l-1-1 1 2-3-1 1 2-3-1c0 3.05-2.539 1.089-2 4-4.64-.014-7.615 2.082-10 6-2.933-.154-4.617-.029-5 3l-3-1c0 2.385-.732 2.336-3 2 0 3.359-8.409 3.515-10 8-3.905.276-8.092 1.945-9 6l-3-1 1 2c-4.816-.045-12.865 2.931-14 8l-3-1c-.986 1.479-1 1.203-1 3-3.254-.186-6.539.5-7 4l-3-1c0 2.783-1.535 2.318-4 2-1.694 2.542-.929 2.518-3 2 0 2.716-2.524 2.283-5 3v3c-3.779.083-6.24 1.172-7 5-5.018 1.013-9.111 3.809-10 9-3.962.936-6.383 3.437-8.514 6.94-1.746 2.871-1.913 6.169-5.486 7.06-.791 2.232-1.077 3.646-1 6l-2-1c-1.692 3.383-3.806 7.417-5 11-.589 1.768.868 1.83 0 4l-1-1c.802 2.406 1.385 2.691 0 5l-1-1c.983 2.95 1.487 3.622-1 3 .451 2.708 1.465 3.558 0 6l-1-1 1 9-1-4c-1.619 4.148-.007 9.529 0 14 .018 11.199.913 22.845-.059 34-.393 4.518-4.151 6.872-4.941 11-8.144 1.083-11.914 8.718-19 11-1.282 4.454-6.589 7.943-11 9l-1 1 1 2c-11.099 5.317-19.614 15.093-27.91 24-3.494 3.75-8.223 7.904-9.09 13-3.235.539-2.487 1.478-4 4l-1-1-1 5c-2.598.23-2.77.402-3 3h-2l1 2-1 1-2-1c0 2.876-2.411 2.959-2 6-1.388.691-1.861.985-3 2 4.928.077 10.098-4.134 11-9 3.681-1.271 6.71-2.926 10-5l-1-2c4.877-1.26 8.681-3.436 11-8 3.126-.285 4.379-.885 5-4 3.899 1.3 3.627-.034 6-3l1 1-1-2c2.189-.876 3.863-1.931 6-3l1 1c2.179-.654 2.714-2.393 4-4l1 1c0-2.385.732-2.336 3-2v-2l2 1c.665-5.177 9-2.237 9-8l3 1c.726-2.179.439-1.78 2-1l-1-2 3 1-1-2 3 1-1-2 3 1c0-2.385.732-2.336 3-2l-1-2 3 1-1-2 3 1-1-2 3 1-1-2 3 1-1-2 3 1-1-2c3.676 1.225 3.592.408 6-2l1 1-1-2c3.136.379 6.521.52 7-3l3 1-1-2c2.57.311 4.59.734 5-2l3 1-1-2 3 1c1.554-.777 1.15-.275 0-2l3 1-1-2 3 1c1.554-.777 1.15-.275 0-2l3 1c1.353-.859 1.355-.823 3-1 0-3.172 2.375-2.553 5-2 1.353-.859 1.355-.823 3-1 0-2.436.786-1.615 3-1 2.121-1.882 3.158-2.138 6-2 1.624-.866 2.108-.919 4-1l-1-2 3 1c1.51-2.091 2.202-1.516 5-1l-.167-1.5c3.638-.633 7.574-.341 11.167-1.833 3.075-1.278 3.432-2.23 7-1.667l-1-2c2.411.452 3.349.773 5-1l4 1c0-4.162 6.114-2.532 9-2 0-3.085 2.558-1.45 5-1 0-3.183 2.615-1.69 5-1 2.183-1.431 3.375-1.328 6-1 0-3.612 4.413-1.477 7-1 0-3.803 6.148-1.075 9-1-1.248-.685-1.548-.749-3-1 4.418-1.269 8.483-.194 13 0-1.506-.683-2.315-.826-4-1 5.742-1.697 11.159-.251 17 0-1.506-.683-2.315-.826-4-1 4.614-1.364 9.233-.831 14-1.039 8.35-.366 16.585-1.482 25-.907 3.428.234 6.569 1.695 10 1.888 5.919.334 12.022-.942 18-.942l-2 1c5.703 2.393 12.929.017 19 0l-2 1c4.133 1.271 9.585 0 14 0l-4 1c2.167 2.167 4.399-.217 7 0 .662.055 2.333 1.852 3 2 2.18.484 3.355-.589 5-1 2.832-.708 5.733.433 8 1 2.441.61 3.814-.311 6 1l-1 1 10-1c-1.479.986-1.203 1-3 1 2.403 2.403 6.4-1.16 10 1l-1 1c4.227-.892 11.48-.458 15 2 7.315-.912 14.499 1.922 22 1l-1 2 10-1-2 1c2.905.894 5.948.129 9 0l-2 1c3.865 1.607 7.93.321 12 0l-1 2c3.809 0 6.66-2.004 10 0l-1 1c7.217-.912 13.783-.02 21 0l-2 1c4.345 1.696 10.285.003 15 0l-4 1c4.813 1.963 11.758 0 17 0 12.37-.001 24.689.992 37 1l-1-2 10 1c-.65-1.3-.147-1-2-1 2.825-.615 5.127-.344 8 0 0-3.306 4.302-1.071 7-1-.65-1.3-.147-1-2-1 2.337-.519 3.64-.48 6 0 3.145-2.562 6.069-2.558 10-2 2.183-1.431 3.375-1.328 6-1-.65-1.3-.147-1-2-1 2.22-.39 3.754-.335 6 0 0-3.546 3.312-2.707 6-2 1.624-.866 2.108-.919 4-1 2.124-2.067 3.037-2.289 6-2 1.353-.859 1.355-.823 3-1 0-3.172 2.375-2.553 5-2 0-3.715 4.746.474 4-4 3.676 1.225 3.592.408 6-2l1 1c2.004-2.177 3.05-2.723 6-3 0-2.385.732-2.336 3-2l-1-2 3 1v-3l3 1c1.277-1.915 1.277-1.085 0-3 3.577-.553 5.395-1.319 6-5 3.104-1.482 4.518-2.896 6-6 2.598-.23 2.77-.402 3-3 4.43-2.313 7.249-6.977 7-12l2 1c.034-2.72.287-3.908 2-6-.983-2.95-1.487-3.622 1-3-.469-2.94-.709-4.562 1-7-.679-4.113-.174-7.874 0-12-.685 1.248-.749 1.548-1 3-.563-2.571-.436-4.393 0-7-2.688 0-1.428-1.676-1-4h-2l1-3-2 1 1-3-2 1c.383-2.616.714-4-2-4 .154-2.933.029-4.617-3-5-.622-4.02-1.908-6.279-6-7-.768-1.314-.686-1.232-2-2-.23-2.598-.402-2.77-3-3-1.279-2.587-2.156-3.582-5-4-1.89-3.442-4.072-4.907-8-5v-2l-2 1c-1.451-2.477-2.139-2.896-5-3v-2c-2.649.53-3.607.428-3-2l-3 1v-3l-3 1 1-2-3 1 1-2-2 1v-2c-3.412-2.843-6.915-.339-6-4l-2 1v-2c-3.149-.525-3.634.537-3-2-2.649.53-3.607.428-3-2l-3 1c.028-2.138-.683-1.841-3-2-.995-4.478-5.716-6.191-10-6v-3l-3 1 1-2c-1.661.208-1.54.495-2-1h-4l1-2c-1.686-.218-2.316-.224-4 0 0-1.797-.014-1.522-1-3l-3 1 1-2-3 1 1-2c-2.684.447-3.519-.015-6-2l1-1c-3.014.108-3.839-2.499-7-2 0-1.797-.014-1.522-1-3l-3 1 1-2-3 1 1-2c-3.291-.279-4.48-1.07-6-4l-3 1 1-2c-2.732.035-4.581-.085-5-3-1.686-.218-2.316-.224-4 0-.773-2.318-1.323-3.618-4-4l-1 1-4-3 1-1c-2.121 0-1.755-.07-3-2l-3 1 1-2-6-1 1-2c-8.477-4.009-18.468-14.083-28-14l1-2-3 1c-.862-4.152-5.005-5.727-9-6-1.041-5.207-6.604-3.604-9-6l1-1-3 1v-3l-3 1c-.737-3.286-2.762-3.925-6-4-2.079-4.995-10.333-4.362-11-9-2.232-.792-3.646-1.077-6-1l1-2-3 1v-3c-3.392-1.131-5.795.178-5-3l-3 1 1-2-3 1v-3c-2.59-.668-5.072-1.146-7-3-2.58-.027-3.138-.229-5-2-2.95.983-3.622 1.487-3-1l-4 1 1-2-5 1 1-2c-7.211.453-14.742-.693-22-1z" style="fill:#5ba359;stroke:none"/><path d="M520 200c1.769.779 3.036.912 5 1-1.769-.779-3.036-.912-5-1m-8 1c1.506.683 2.315.826 4 1-1.506-.683-2.315-.826-4-1m19 0c1.248.685 1.548.749 3 1-1.248-.685-1.548-.749-3-1m-28 2c2.46.888 4.415.467 7 0-2.46-.888-4.415-.467-7 0m33-1c1.248.685 1.548.749 3 1-1.248-.685-1.548-.749-3-1m4.667 1.333c-.445.445.611.389.666.334.445-.445-.611-.389-.666-.334M500 204c1.248.685 1.548.749 3 1-1.248-.685-1.548-.749-3-1m43 0c1.248.685 1.549.749 3 1-1.248-.685-1.548-.749-3-1m-44.333 1.333c-.445.445.611.389.666.334.445-.445-.611-.389-.666-.334M547 205c1.543 1.267 2.048 1.489 4 2-1.458-1.081-2.248-1.436-4-2z" style="fill:#424a52;stroke:none"/><path d="m549 205 1 1-1-1z" style="fill:#5ba359;stroke:none"/><path d="M495.667 206.333c-.445.445.611.389.666.334.445-.445-.611-.389-.666-.334m-3 1c-.445.445.611.389.666.334.445-.445-.611-.389-.666-.334M552 207l1 1-1-1z" style="fill:#424a52;stroke:none"/><path d="m489 208 1 1-1-1z" style="fill:#5ba359;stroke:none"/><path d="M488 209c1.809.574 2.069.465 4 0-1.659-.406-2.242-.309-4 0m-1.333 1.333c-.445.445.611.389.666.334.445-.445-.611-.389-.666-.334M558 210c1.223 1.195 1.42 1.316 3 2-1.223-1.195-1.42-1.316-3-2m3.667 2.333c-.445.445.611.389.666.334.445-.445-.611-.389-.666-.334m2 1c-.445.445.611.389.666.334.445-.445-.611-.389-.666-.334M565 214l1 1-1-1m-89 3c1.58-.683 1.777-.805 3-2-1.58.684-1.777.805-3 2m92-1c1.223 1.195 1.42 1.316 3 2-1.223-1.195-1.42-1.316-3-2m3.667 2.333c-.445.445.611.389.666.334.445-.445-.611-.389-.666-.334M576 221c1.686 1.656 2.746 2.251 5 3-1.686-1.656-2.746-2.251-5-3m-113 3 1 1-1-1m125 4 1 1-1-1m-133 1 1 1-1-1m-1.333 1.333c-.445.445.611.389.666.334.445-.445-.611-.389-.666-.334M591 230l1 1-1-1m3.667 2.333c-.445.445.611.389.666.334.445-.445-.611-.389-.666-.334M596 233c1.223 1.195 1.42 1.317 3 2-1.223-1.195-1.42-1.316-3-2m-151 3c1.58-.683 1.777-.805 3-2-1.58.684-1.777.805-3 2m154.667-.667c-.445.445.611.389.666.334.445-.445-.611-.389-.666-.334m-156 1c-.445.445.611.389.666.334.445-.445-.611-.389-.666-.334M601 236l1 1-1-1m-159 1 1 1-1-1m-2 1 1 1-1-1m-1.333 1.333c-.445.445.611.389.666.334.445-.445-.611-.389-.666-.334M608 240l1 1-1-1m-173 1 1 1-1-1m-1.333 1.333c-.445.445.611.389.666.334.445-.445-.611-.389-.666-.334m-5 3c-.445.445.611.389.666.334.445-.445-.611-.389-.666-.334M427 246l1 1-1-1m190.667.333c-.445.445.611.389.666.334.445-.445-.611-.389-.666-.334m-192 1c-.445.445.611.389.666.334.445-.445-.611-.389-.666-.334m194 0c-.445.445.611.389.666.334.445-.445-.611-.389-.666-.334M621 248l1 1-1-1m-200.333 2.333c-.445.445.611.389.666.334.445-.445-.611-.389-.666-.334m-5 3c-.445.445.611.389.666.334.445-.445-.611-.389-.666-.334m-12 7c-.445.445.611.389.666.334.445-.445-.611-.389-.666-.334M400 262l1 1-1-1m246.667 1.333c-.445.445.611.389.666.334.445-.445-.611-.389-.666-.334M648 264c1.223 1.195 1.42 1.316 3 2-1.223-1.195-1.42-1.316-3-2m-252.333 1.333c-.445.445.611.389.666.334.445-.445-.611-.389-.666-.334m-2 1c-.445.445.611.389.666.334.445-.445-.611-.389-.666-.334m258 0c-.445.445.611.389.666.334.445-.445-.611-.389-.666-.334M655 268l1 1-1-1m1.667 1.333c-.445.445.611.389.666.334.445-.445-.611-.389-.666-.334m2 1c-.445.445.611.389.666.334.445-.445-.611-.389-.666-.334M660 271l1 1-1-1m-277 1 1 1-1-1m281 1 1 1-1-1m1 1 1 1-1-1m3 2c1.686 1.656 2.746 2.251 5 3-1.686-1.656-2.746-2.251-5-3z" style="fill:#424a52;stroke:none"/><path d="m670 276 1 1-1-1z" style="fill:#5ba359;stroke:none"/><path d="M673.667 279.333c-.445.445.611.389.666.334.445-.445-.611-.389-.666-.334M675 280l1 1-1-1m1 1c1.686 1.656 2.746 2.251 5 3-1.686-1.656-2.746-2.251-5-3z" style="fill:#424a52;stroke:none"/><path d="m678 281 1 1-1-1z" style="fill:#5ba359;stroke:none"/><path d="m366 282 1 1-1-1m-1.333 1.333c-.445.445.611.389.666.334.445-.445-.611-.389-.666-.334m-2 1c-.445.445.611.389.666.334.445-.445-.611-.389-.666-.334m319 0c-.445.445.611.389.666.334.445-.445-.611-.389-.666-.334m-321 1c-.445.445.611.389.666.334.445-.445-.611-.389-.666-.334m323 0c-.445.445.611.389.666.334.445-.445-.611-.389-.666-.334m-326 2c-.445.445.611.389.666.334.445-.445-.611-.389-.666-.334M687 287l1 1-1-1m5 3 1 1-1-1m1.667 1.333c-.445.445.611.389.666.334.445-.445-.611-.389-.666-.334M347 294c1.58-.683 1.777-.805 3-2-1.58.684-1.777.805-3 2m348-2c1.223 1.195 1.42 1.316 3 2-1.223-1.195-1.42-1.316-3-2m3.667 2.333c-.445.445.611.389.666.334.445-.445-.611-.389-.666-.334m2 1c-.445.445.611.389.666.334.445-.445-.611-.389-.666-.334m-358 1c-.445.445.611.389.666.334.445-.445-.611-.389-.666-.334m-2 1c-.445.445.611.389.666.334.445-.445-.611-.389-.666-.334M704 297l1 1-1-1m-365 1 1 1-1-1m-1.333 1.333c-.445.445.611.389.666.334.445-.445-.611-.389-.666-.334m370 0c-.445.445.611.389.666.334.445-.445-.611-.389-.666-.334M709 300l1 1-1-1m2 1 1 1-1-1m1.667 1.333c-.445.445.611.389.666.334.445-.445-.611-.389-.666-.334M714 303c1.223 1.195 1.42 1.317 3 2-1.223-1.195-1.42-1.316-3-2m-387 2 1 1-1-1m398.667 5.333c-.445.445.611.389.666.334.445-.445-.611-.389-.666-.334m-408 1c-.445.445.611.389.666.334.445-.445-.611-.389-.666-.334m-2 1c-.445.445.611.389.666.334.445-.445-.611-.389-.666-.334m413 0c-.445.445.611.389.666.334.445-.445-.611-.389-.666-.334M314 313l1 1-1-1m416.667.333c-.445.445.611.389.666.334.445-.445-.611-.389-.666-.334M732 314l1 1-1-1m1.667 1.333c-.445.445.611.389.666.334.445-.445-.611-.389-.666-.334M737 317l1 1-1-1m1.667 1.333c-.445.445.611.389.666.334.445-.445-.611-.389-.666-.334M740 319l1 1-1-1m-438.333 1.333c-.445.445.611.389.666.334.445-.445-.611-.389-.666-.334M298 322l1 1-1-1m447 0 1 1-1-1m1.667 1.333c-.445.445.611.389.666.334.445-.445-.611-.389-.666-.334m2 1c-.445.445.611.389.666.334.445-.445-.611-.389-.666-.334M750 325c1.223 1.195 1.42 1.316 3 2-1.223-1.195-1.42-1.317-3-2m-459.333 1.333c-.445.445.611.389.666.334.445-.445-.611-.389-.666-.334m-2 1c-.445.445.611.389.666.334.445-.445-.611-.389-.666-.334m465 0c-.445.445.611.389.666.334.445-.445-.611-.389-.666-.334M287 328l1 1-1-1m468 0 1 1-1-1m2 1 1 1-1-1m-474 1 1 1-1-1m-1.333 1.333c-.445.445.611.389.666.334.445-.445-.611-.389-.666-.334M762 332l1 1-1-1m2 1 1 1-1-1m-489 3c1.58-.684 1.777-.805 3-2-1.58.684-1.777.805-3 2m497 2 1 1-1-1m-502 1 1 1-1-1m-1.333 1.333c-.445.445.611.389.666.334.445-.445-.611-.389-.666-.334M775 340l1 1-1-1m2 2 1 1-1-1m2 2 1 1-1-1m1.667 1.333c-.445.445.611.389.666.334.445-.445-.611-.389-.666-.334m1.666 1.334c-.055.055-.111 1.111.334.666.055-.055.111-1.111-.334-.666M783 348c1.103 1.457 1.543 1.897 3 3-1.103-1.457-1.543-1.897-3-3m-524.333 1.333c-.445.445.611.389.666.334.445-.445-.611-.389-.666-.334m529.666 4.334c-.055.055-.111 1.111.334.666.055-.055.111-1.111-.334-.666m3 5c-.055.055-.111 1.111.334.666.055-.055.111-1.111-.334-.666M250 359l1 1-1-1m-1 1c-.89 1.745-1.453 3.125-2 5 1.693-1.782 2.375-2.581 2-5m544.333 2.667c-.055.055-.111 1.111.334.666.055-.055.111-1.111-.334-.666m1 2c-.055.055-.111 1.111.334.666.055-.055.111-1.111-.334-.666m1 2c-.055.055-.111 1.111.334.666.055-.055.111-1.111-.334-.666m-551 2c-.055.055-.111 1.111.334.666.055-.055.111-1.111-.334-.666M796 370v3c.696-1.554.696-1.446 0-3z" style="fill:#424a52;stroke:none"/><path d="M848 371v4h2v-4h-2z" style="fill:#5ba359;stroke:none"/><path d="M797 374v5c.83-2.03.83-2.97 0-5m51 1 1 6c1.039-2.529 1.093-4.176-1-6z" style="fill:#424a52;stroke:none"/><path d="M848 376c-.328 7.522-3.35 14.547-4 22 2.929-4.661 3.766-10.563 4-16 5.72 19.352-3.441 39.911-5 59 2.507-4.104 3.276-9.307 4.196-14 2.171-11.068 2.804-21.755 2.804-33 0-5.973.646-12.493-2-18z" style="fill:#131e18;stroke:none"/><path d="m847 380 1 1-1-1z" style="fill:#5ba359;stroke:none"/><path d="M238 381v3c.696-1.554.696-1.446 0-3m560 0v5c.83-2.03.83-2.97 0-5m49 0 1 1-1-1m1 1c-.44 5.534-1.247 11.742-5 16 .983 2.95 1.487 3.622-1 3 .983 2.95 1.487 3.622-1 3 .983 2.95 1.487 3.622-1 3 .207 3.56-.494 5.462-3 8 .78 4.681-2.093 7.423-4 12-1.049 2.518-1.181 4.726-3 7l-1-1 1 2c-1.525 2.67-3.153 5.691-5 8l-1-1c-.217 3.501-1.545 6.807-5 8l1 2c-1.568 2.745-4.072 5.59-6 8l-1-1c-.211 2.548-.379 3.635-3 4 .04 2.527-.413 3.693-3 4-.458 2.221-1.113 2.593-3 4-1.779 8.771-14.118 12.519-15 22l-1 1c-3.999.15-6.183 3.246-10 4 .073 2.123.087 2.25-2 2 0 2.678-2.396 4-5 4l-1 1c-1.456 4.918-8.055 9.288-13 10 0 3.085-4.073 5.325-7 5 0 2.385-.732 2.336-3 2 0 2.385-.732 2.336-3 2 0 2.385-.732 2.336-3 2-1.457 4.558-7.531 6.749-12 7 0 2.385-.732 2.336-3 2v2l-2-1c-1.617 1.456-1.86 1.569-4 2l1 2-3-1 1 2-3-1 1 2-3-1 1 2-3-1 1 2-3-1 1 2-3-1c0 3.219-4.265 3.216-7 3l1 2-3-1c0 3.172-2.375 2.553-5 2 0 3.172-2.375 2.553-5 2 0 4.021-9.569 5.361-13 5-2.121 1.882-3.158 2.138-6 2 0 2.436-.786 1.615-3 1 0 3.542-7.113 3.76-10 3 0 4.439-14.326 5.967-18 5 0 2.854-1.686 1.67-4 1 0 2.854-1.686 1.67-4 1-5.4 4.717-17.103 6.5-24 5 0 3.095-5.213 2.613-8 3-9.398 1.305-17.597 2.742-27 2 0 3.302-4.256 1.8-7 2.333-8.317 1.617-15.67 1.325-24 .667 1.248.685 1.548.749 3 1-6.982 2.064-14.777 1.482-22 2.17-10.972 1.045-23.1 3.846-34 1.83-3.692 3.021-7.467 2.804-12 2 0 3.183-2.615 1.69-5 1-3.673 3.197-8.274 3.749-13 3 0 2.854-1.686 1.67-4 1 0 3.514-8.943 4.644-12 4-3.16 3.065-6.611 4.289-11 4l1 2-3-1c-1.83 1.577-2.572 1.817-5 2l1 2-3-1c0 2.795-1.48 2.265-4 2-2.448 2.488-4.536 3.556-8 4 0 2.795-1.48 2.265-4 2 0 3.031-2.277 3.072-5 3-.726 2.179-.439 1.78-2 1-.818 3.526-4.537 4.925-8 5 0 2.385-.732 2.336-3 2 0 2.385-.732 2.336-3 2-1.028 3.277-3.647 4.654-7 5 0 2.554-1.514 3.092-4 3 0 2.554-1.514 3.092-4 3-.906 3.166-2.724 4.595-6 5l-1 1c-1.023 3.49-4.535 6.04-8 7l-1 1c-1.41 5.031-7.997 11.501-13 13l1 2c-1.722 1.378-5.871 2.742-7 5l1 2c-1.228 1.638-4.3 4.875-6 7l-1-1c.474 2.368.152 3.31-2 6l-1-1c.202 1.85.202 3.15 0 5 2.179.726 1.78.439 1 2 3.687.215 5.586 1.219 8 4 1.661-.208 1.54-.495 2 1 4.483.275 8.129 2.651 11 6l3-1-1 2c2.376-.475 5.09.672 8 3l-1 1c4.447.572 7.255 2.497 10 6 1.661-.208 1.54-.495 2 1 2.368-.474 3.31-.152 6 2l-1 1c2.368-.474 3.31-.152 6 2l-1 1c2.732-.035 4.581.085 5 3h6c.627 3.135 4.267 3.814 7 6l-1 1c2.684-.447 3.519.015 6 2l-1 1 3-1-1 2 2-1c3.068 1.753 6.283 3.826 9 6l-1 1c2.732-.035 4.581.085 5 3l2-1c3.068 1.753 6.283 3.826 9 6l-1 1 2-1c3.633 2.076 7.821 4.457 11 7l-1 1c2.684-.447 3.519.015 6 2l-1 1c2.757-.459 5.335.868 8 3l-1 1 2-1c5.326 3.043 11.262 6.209 16 10l-1 1c5.036.406 8.832 3.167 12 7 3.376-1.125 5.054.643 8 3l-1 1 3-1-1 2 3-1-1 2c2.544-.424 3.449-.53 6 1l-1 1c1.645.177 1.647.141 3 1 1.645.177 1.647.141 3 1 1.645.177 1.647.141 3 1 2.406-.802 2.691-1.385 5 0l-1 1c2.392-.299 3.044-.32 5 1 8.779-1.63 21.302-2.891 30-1 1.724-1.056 1.921-1.036 4-1 0-3.26 3.389-2.55 6-2 0-3.172 2.375-2.553 5-2 0-2.795 1.48-2.265 4-2 0-2.795 1.48-2.265 4-2 0-2.84 2.439-3.285 5-3 0-3.031 2.277-3.072 5-3 0-2.84 2.439-3.285 5-3v-2l2 1c0-3.27 4.086-4.077 7-4 0-3.031 2.277-3.072 5-3l-1-2 3 1c0-3.031 2.277-3.072 5-3 0-3.512 8.67-7.37 12-7 0-3.031 2.278-3.072 5-3 0-2.84 2.439-3.285 5-3 0-2.84 2.439-3.285 5-3v-2l2 1c0-3.031 2.277-3.072 5-3 0-3.56 6.772-6.359 10-6 0-3.031 2.277-3.072 5-3 0-3.05 2.539-1.089 2-4l3 1c0-3.031 2.277-3.072 5-3 0-3.488 3.987-4.238 7-4 .818-3.526 4.537-4.925 8-5l-1-2 3 1c0-2.84 2.439-3.285 5-3 0-3.031 2.278-3.072 5-3 0-2.385.732-2.336 3-2l-1-2 3 1c3.547-4.292 9.274-8.62 15-9l-1-2 3 1c0-2.542.521-2.207 3-2l-1-2 3 1c1.326-4.209 5.906-5.576 10-6 0-2.385.732-2.336 3-2l-1-3h6c0-2.84 2.439-3.285 5-3 0-3.031 2.277-3.072 5-3 2.245-2.862 4.286-4.714 8-5l1-1-1-2c3.794-1.458 6.955-4.504 11-5 1.265-4.396 5.665-6.312 8.911-9.3 3.927-3.616 6.893-10.05 12.089-11.7l-1-2 7-10 1 1c-.424-2.544-.53-3.449 1-6l1 1-1-3 2 1c-.983-2.95-1.487-3.622 1-3-1.082-6.916 1.814-14.003 1.985-21 .4-16.312.015-32.682.015-49 0-10.884.992-22.27-1-33l1 2c1.494-3.641 1.753-6.729 6-8 .482-2.735 1.308-4.16 4-5-.04-2.527.413-3.693 3-4-.495-2.474-.037-2.453 2-5l1 1c-.495-2.474-.037-2.453 2-5l1 1c.626-4.457 3.487-11.438 8-13l-1-3 2 1c.542-2.567 1.019-3.26 3-5-.208-1.661-.495-1.54 1-2l-1-3 2 1-1-3 2 1c.193-3.831 1.28-6.296 4-9l-1-3 2 1c-.91-2.729-.956-3.555 1-6l1 1c-.983-2.95-1.487-3.622 1-3-.422-4.664.726-8.616 4-12-.921-5.891 1.457-11.258 2.54-17 1.876-9.948 2.46-19.908 2.46-30 0-4.26.661-9.041-1-13m-611 2v4c.71-1.759.71-2.241 0-4z" style="fill:#424a52;stroke:none"/><path d="m846 385 1 1-1-1z" style="fill:#5ba359;stroke:none"/><path d="M236 388v3c.696-1.554.696-1.446 0-3m561 0v5c.83-2.03.83-2.97 0-5z" style="fill:#424a52;stroke:none"/><path d="M850 389v15c1.74-4.148 1.74-10.852 0-15z" style="fill:#5ba359;stroke:none"/><path d="m845 390 1 1-1-1m-610 2v4c.71-1.759.71-2.241 0-4z" style="fill:#424a52;stroke:none"/><path d="m844 393 1 1-1-1z" style="fill:#5ba359;stroke:none"/><path d="M796 394v3c.696-1.554.696-1.446 0-3z" style="fill:#424a52;stroke:none"/><path d="m843 397 1 1-1-1z" style="fill:#5ba359;stroke:none"/><path d="M234 398v6c.951-2.285.951-3.715 0-6m561 0v3c.696-1.554.696-1.446 0-3z" style="fill:#424a52;stroke:none"/><path d="M843 399v3c.696-1.554.696-1.446 0-3z" style="fill:#131e18;stroke:none"/><path d="m842 400 1 1-1-1z" style="fill:#5ba359;stroke:none"/><path d="M794.333 401.667c-.055.055-.111 1.111.334.666.055-.055.111-1.111-.334-.666z" style="fill:#424a52;stroke:none"/><path d="M842 402v3c.696-1.554.696-1.446 0-3z" style="fill:#131e18;stroke:none"/><path d="M793.333 403.667c-.055.055-.111 1.111.334.666.055-.055.111-1.111-.334-.666M233 405v48c1.661-3.959 1-8.74 1-13v-23c0-3.983.552-8.301-1-12z" style="fill:#424a52;stroke:none"/><path d="M841 405v3c.696-1.554.696-1.446 0-3z" style="fill:#131e18;stroke:none"/><path d="m791 408 1 1-1-1z" style="fill:#424a52;stroke:none"/><path d="m840 408-2 7c1.836-2.308 2.797-4.111 2-7z" style="fill:#131e18;stroke:none"/><path d="m839 409 1 1-1-1m-1 3 1 1-1-1m11 0v4c.71-1.76.71-2.24 0-4z" style="fill:#5ba359;stroke:none"/><path d="m786 415 1 1-1-1m-1 1 1 1-1-1z" style="fill:#424a52;stroke:none"/><path d="M837 416c-2.307 5.947-5.879 11.714-7 18 3.294-4.077 8.09-12.73 7-18z" style="fill:#131e18;stroke:none"/><path d="m836 417 1 1-1-1z" style="fill:#5ba359;stroke:none"/><path d="M783.333 418.667c-.055.055-.111 1.111.334.666.055-.055.111-1.111-.334-.666M848 419l1 1-1-1m-66 1 1 1-1-1z" style="fill:#424a52;stroke:none"/><path d="M848.333 420.667c-.055.055-.111 1.111.334.666.055-.055.111-1.111-.334-.666z" style="fill:#5ba359;stroke:none"/><path d="m781 421 1 1-1-1m-1 1 1 1-1-1z" style="fill:#424a52;stroke:none"/><path d="m834 422 1 1-1-1z" style="fill:#5ba359;stroke:none"/><path d="m779 423 1 1-1-1m-1.333 1.333c-.445.445.611.389.666.334.445-.445-.611-.389-.666-.334z" style="fill:#424a52;stroke:none"/><path d="m833 424 1 1-1-1z" style="fill:#5ba359;stroke:none"/><path d="M776 425c-1.186 1.186-1.528 1.584-2 3 1.548-1.262 1.808-1.194 2-3m71 0 1 1-1-1z" style="fill:#424a52;stroke:none"/><path d="m832 426 1 1-1-1m15 0 1 1-1-1z" style="fill:#5ba359;stroke:none"/><path d="m773 428 1 1-1-1m-1.333 1.333c-.445.445.611.389.666.334.445-.445-.611-.389-.666-.334M770 430l1 1-1-1z" style="fill:#424a52;stroke:none"/><path d="M846.333 430.667c-.055.055-.111 1.111.334.666.055-.055.111-1.111-.334-.666z" style="fill:#5ba359;stroke:none"/><path d="M767 433c1.58-.684 1.777-.805 3-2-1.58.684-1.777.805-3 2m-1.333.333c-.445.445.611.389.666.334.445-.445-.611-.389-.666-.334M764 434l1 1-1-1z" style="fill:#424a52;stroke:none"/><path d="m828 434 1 1-1-1z" style="fill:#5ba359;stroke:none"/><path d="M829 434c-1.704 2.932-3.061 5.74-4 9 2.175-2.6 4.326-5.563 4-9z" style="fill:#131e18;stroke:none"/><path d="m845 434 1 1-1-1z" style="fill:#5ba359;stroke:none"/><path d="M762.667 435.333c-.445.445.611.389.666.334.445-.445-.611-.389-.666-.334M757 438c2.14.41 2.962-.032 5-1-2.14-.41-2.962.031-5 1z" style="fill:#424a52;stroke:none"/><path d="m827 436 1 1-1-1m-1 2 1 1-1-1z" style="fill:#5ba359;stroke:none"/><path d="M841.333 438.667c-.055.055-.111 1.111.334.666.055-.055.111-1.111-.334-.666z" style="fill:#131e18;stroke:none"/><path d="m844 438 1 1-1-1z" style="fill:#5ba359;stroke:none"/><path d="M385 440c6.391 2.682 15.273.81 22 .17 7.24-.689 14.73-.17 22-.17-3.959-1.661-8.74-1-13-1-10.372 0-20.611 1-31 1m370-1 1 1-1-1z" style="fill:#424a52;stroke:none"/><path d="M404 440c3.697 1.552 8.017 1 12 1-3.697-1.552-8.017-1-12-1z" style="fill:#5ba359;stroke:none"/><path d="M440 440c3.697 1.552 8.017 1 12 1-3.697-1.552-8.017-1-12-1z" style="fill:#424a52;stroke:none"/><path d="m825 440 1 1-1-1z" style="fill:#5ba359;stroke:none"/><path d="M372 441c3.697 1.552 8.017 1 12 1-3.697-1.552-8.017-1-12-1m88 0c2.89 1.213 5.874.998 9 1-2.89-1.213-5.874-.998-9-1m290.667.333c-.445.445.611.389.666.334.445-.445-.611-.389-.666-.334M363 442c2.613 1.098 5.164.993 8 1-2.613-1.098-5.164-.993-8-1m107 0c3.432 1.44 7.3 1 11 1-3.432-1.44-7.3-1-11-1z" style="fill:#424a52;stroke:none"/><path d="M842 442c-1.19 3.657-2.437 7.188-3 11 2.317-3.097 4.128-7.186 3-11z" style="fill:#131e18;stroke:none"/><path d="m843 442 1 1-1-1z" style="fill:#5ba359;stroke:none"/><path d="M356 443c2.052.874 3.747.953 6 1-2.052-.874-3.747-.953-6-1m127.667.333c-.445.445.611.389.666.334.445-.445-.611-.389-.666-.334M745 443c1.248.685 1.548.749 3 1-1.248-.685-1.548-.749-3-1z" style="fill:#424a52;stroke:none"/><path d="m824 443 1 1-1-1z" style="fill:#131e18;stroke:none"/><path d="M349 444c2.052.874 3.747.953 6 1-2.052-.874-3.747-.953-6-1m142 0c4.548 1.962 10.079 1.986 15 2-4.63-2.078-9.986-1.997-15-2m249 1c1.943.622 2.949.436 5 0-1.943-.622-2.949-.436-5 0z" style="fill:#424a52;stroke:none"/><path d="M823 444c-1.183 2.328-2.223 4.511-3 7 2.151-2.152 3.505-3.93 3-7z" style="fill:#131e18;stroke:none"/><path d="M344 445c1.506.683 2.315.826 4 1-1.506-.683-2.315-.826-4-1z" style="fill:#424a52;stroke:none"/><path d="M494 445c1.506.683 2.315.826 4 1-1.506-.683-2.315-.826-4-1m249 0 1 1-1-1m79 0 1 1-1-1m20 0 1 1-1-1z" style="fill:#5ba359;stroke:none"/><path d="M338 446c1.769.779 3.036.912 5 1-1.769-.779-3.036-.912-5-1m170 0c2.332.985 4.457.981 7 1-2.332-.985-4.457-.981-7-1m230.667.333c-.445.445.611.389.666.334.445-.445-.611-.389-.666-.334M333 447c1.506.683 2.315.826 4 1-1.506-.683-2.315-.826-4-1m183 0c2.052.874 3.747.953 6 1-2.052-.874-3.747-.953-6-1m216 1c1.847.468 3.068.301 5 0-2.044-.774-2.845-.592-5 0m-408 1c2.698.969 5.161.353 8 0-2.756-1.077-5.107-.532-8 0m198-1c2.052.874 3.747.953 6 1-2.052-.874-3.747-.953-6-1z" style="fill:#424a52;stroke:none"/><path d="m734 448 1 1-1-1m107 0 1 1-1-1z" style="fill:#5ba359;stroke:none"/><path d="M531 449c1.769.779 3.036.912 5 1-1.769-.779-3.036-.912-5-1m197.667.333c-.445.445.611.389.666.334.445-.445-.611-.389-.666-.334m-407 1c-.445.445.611.389.666.334.445-.445-.611-.389-.666-.334M538 450c1.506.683 2.315.826 4 1-1.506-.683-2.315-.826-4-1m183 1c2.164.676 3.732.387 6 0-2.239-.811-3.647-.529-6 0m-404.333.333c-.445.445.611.389.666.334.445-.445-.611-.389-.666-.334M546 451c1.248.685 1.548.749 3 1-1.248-.685-1.548-.749-3-1z" style="fill:#424a52;stroke:none"/><path d="m724 451 1 1-1-1z" style="fill:#5ba359;stroke:none"/><path d="M819 451c-1.51 2.291-2.837 4.518-4 7 2.42-2.023 4.271-3.758 4-7z" style="fill:#131e18;stroke:none"/><path d="m840 451 1 1-1-1z" style="fill:#5ba359;stroke:none"/><path d="M312 452c1.248.685 1.548.749 3 1-1.248-.685-1.548-.749-3-1m242 0c1.506.683 2.315.826 4 1-1.506-.683-2.315-.826-4-1m162 0c1.506.683 2.315.826 4 1-1.506-.683-2.315-.826-4-1m-155 1c2.052.874 3.747.953 6 1-2.052-.874-3.747-.953-6-1m151 0c1.506.683 2.315.826 4 1-1.506-.683-2.315-.826-4-1z" style="fill:#424a52;stroke:none"/><path d="m817 453 1 1-1-1z" style="fill:#5ba359;stroke:none"/><path d="M838 453v3c.696-1.554.696-1.446 0-3z" style="fill:#131e18;stroke:none"/><path d="M568 454c2.052.874 3.747.953 6 1-2.052-.874-3.747-.953-6-1m134 1c2.756 1.077 5.107.532 8 0-2.698-.969-5.161-.353-8 0m-123 0c1.769.779 3.036.912 5 1-1.769-.779-3.036-.912-5-1m-281 1c1.248.685 1.548.749 3 1-1.248-.685-1.548-.749-3-1m289 0c2.052.874 3.747.953 6 1-2.052-.874-3.747-.953-6-1m109 0c1.769.779 3.036.912 5 1-1.769-.779-3.036-.912-5-1z" style="fill:#424a52;stroke:none"/><path d="m815 456 1 1-1-1z" style="fill:#5ba359;stroke:none"/><path d="m837 456-1 5c1.318-1.926 1.651-2.766 1-5z" style="fill:#131e18;stroke:none"/><path d="M294 457c1.248.685 1.548.749 3 1-1.248-.685-1.548-.749-3-1m301 0c5.243 2.205 12.33 1.996 18 2-5.364-2.272-12.222-1.999-18-2m95 0c1.506.683 2.315.826 4 1-1.506-.683-2.315-.826-4-1m-462.333 1.333c-.445.445.611.389.666.334.445-.445-.611-.389-.666-.334m64 0c-.445.445.611.389.666.334.445-.445-.611-.389-.666-.334z" style="fill:#424a52;stroke:none"/><path d="M602.667 458.333c-.445.445.611.389.666.334.445-.445-.611-.389-.666-.334z" style="fill:#5ba359;stroke:none"/><path d="M683 458c1.769.779 3.036.912 5 1-1.769-.779-3.036-.912-5-1z" style="fill:#424a52;stroke:none"/><path d="M814.333 458.667c-.055.055-.111 1.111.334.666.055-.055.111-1.111-.334-.666z" style="fill:#131e18;stroke:none"/><path d="M288.667 459.333c-.445.445.611.389.666.334.445-.445-.611-.389-.666-.334M616 459c3.163 1.327 6.586 1 10 1-3.163-1.327-6.585-1-10-1m59 0c1.769.779 3.036.912 5 1-1.769-.779-3.036-.912-5-1z" style="fill:#424a52;stroke:none"/><path d="m837 459 1 1-1-1z" style="fill:#5ba359;stroke:none"/><path d="M282 461c1.943.622 2.949.436 5 0-1.943-.622-2.949-.436-5 0m346-1c3.959 1.661 8.74 1 13 1h26c-3.959-1.661-8.74-1-13-1h-26z" style="fill:#424a52;stroke:none"/><path d="m812 460 1 1-1-1z" style="fill:#5ba359;stroke:none"/><path d="M813 460c-.957 1.517-1.387 2.338-2 4 1.63-1.515 2.163-1.855 2-4z" style="fill:#131e18;stroke:none"/><path d="m285 461 1 1-1-1z" style="fill:#5ba359;stroke:none"/><path d="M835.333 461.667c-.055.055-.111 1.111.334.666.055-.055.111-1.111-.334-.666z" style="fill:#131e18;stroke:none"/><path d="M278 462c1.248.685 1.548.749 3 1-1.248-.685-1.548-.749-3-1m-1.333 1.333c-.445.445.611.389.666.334.445-.445-.611-.389-.666-.334M270 465c1.943.622 2.949.436 5 0-1.943-.622-2.949-.436-5 0z" style="fill:#424a52;stroke:none"/><path d="m810 464 1 1-1-1m24 0-3 8c2.013-2.441 3.531-4.82 3-8z" style="fill:#131e18;stroke:none"/><path d="m218 465 1 1-1-1z" style="fill:#424a52;stroke:none"/><path d="m273 465 1 1-1-1z" style="fill:#5ba359;stroke:none"/><path d="M809 465c-.986 1.479-1 1.203-1 3 1.289-1.443 1.401-1.234 1-3z" style="fill:#131e18;stroke:none"/><path d="M268.667 466.333c-.445.445.611.389.666.334.445-.445-.611-.389-.666-.334z" style="fill:#424a52;stroke:none"/><path d="m834 466 1 1-1-1z" style="fill:#5ba359;stroke:none"/><path d="M265.667 467.333c-.445.445.611.389.666.334.445-.445-.611-.389-.666-.334m-3 1c-.445.445.611.389.666.334.445-.445-.611-.389-.666-.334z" style="fill:#424a52;stroke:none"/><path d="m806 468 1 1-1-1z" style="fill:#5ba359;stroke:none"/><path d="m807 468 1 1-1-1z" style="fill:#131e18;stroke:none"/><path d="m833 468 1 1-1-1z" style="fill:#5ba359;stroke:none"/><path d="m212 469 1 1-1-1m48.667.333c-.445.445.611.389.666.334.445-.445-.611-.389-.666-.334z" style="fill:#424a52;stroke:none"/><path d="m806 469 1 1-1-1z" style="fill:#131e18;stroke:none"/><path d="m211 470 1 1-1-1m46.667.333c-.445.445.611.389.666.334.445-.445-.611-.389-.666-.334z" style="fill:#424a52;stroke:none"/><path d="m832 470 1 1-1-1z" style="fill:#5ba359;stroke:none"/><path d="M203 477c3.505-1.359 5.701-3.029 8-6-3.378 1.432-5.681 3.159-8 6m52.667-5.667c-.445.445.611.389.666.334.445-.445-.611-.389-.666-.334z" style="fill:#424a52;stroke:none"/><path d="M802 475c1.457-1.104 1.896-1.543 3-3-1.923.902-1.999 1.076-3 3m28.333-2.333c-.055.055-.111 1.111.334.666.055-.055.111-1.111-.334-.666z" style="fill:#131e18;stroke:none"/><path d="m206 473 1 1-1-1z" style="fill:#5ba359;stroke:none"/><path d="M250.667 473.333c-.445.445.611.389.666.334.445-.445-.611-.389-.666-.334z" style="fill:#424a52;stroke:none"/><path d="m802 473 1 1-1-1z" style="fill:#5ba359;stroke:none"/><path d="M248.667 474.333c-.445.445.611.389.666.334.445-.445-.611-.389-.666-.334z" style="fill:#424a52;stroke:none"/><path d="M829.333 474.667c-.055.055-.111 1.111.334.666.055-.055.111-1.111-.334-.666M801 475c-.957 1.517-1.387 2.338-2 4 2.003-1.247 2.823-1.737 2-4z" style="fill:#131e18;stroke:none"/><path d="m202 477 1 1-1-1m39.667.333c-.445.445.611.389.666.334.445-.445-.611-.389-.666-.334z" style="fill:#424a52;stroke:none"/><path d="m828 477 1 1-1-1z" style="fill:#131e18;stroke:none"/><path d="m201 478 1 1-1-1m39 0 1 1-1-1m-40 1 1 1-1-1z" style="fill:#424a52;stroke:none"/><path d="m798 479-1 2c1.263-.971 1.392-.694 1-2m29 0c-.958 1.517-1.387 2.338-2 4 1.466-1.495 1.961-1.962 2-4z" style="fill:#131e18;stroke:none"/><path d="m199 480 1 1-1-1m36.667.333c-.445.445.611.389.666.334.445-.445-.611-.389-.666-.334z" style="fill:#424a52;stroke:none"/><path d="m827 480 1 1-1-1z" style="fill:#5ba359;stroke:none"/><path d="M196 483c1.58-.684 1.777-.805 3-2-1.58.684-1.777.805-3 2m37.667-1.667c-.445.445.611.389.666.334.445-.445-.611-.389-.666-.334z" style="fill:#424a52;stroke:none"/><path d="m795 481 1 1-1-1z" style="fill:#5ba359;stroke:none"/><path d="m796 481 1 1-1-1z" style="fill:#131e18;stroke:none"/><path d="M231.667 482.333c-.445.445.611.389.666.334.445-.445-.611-.389-.666-.334z" style="fill:#424a52;stroke:none"/><path d="m795 482 1 1-1-1z" style="fill:#131e18;stroke:none"/><path d="m826 482 1 1-1-1z" style="fill:#5ba359;stroke:none"/><path d="m195 483 1 1-1-1m34.667.333c-.445.445.611.389.666.334.445-.445-.611-.389-.666-.334z" style="fill:#424a52;stroke:none"/><path d="m794 483 1 1-1-1m30.333.667c-.055.055-.111 1.111.334.666.055-.055.111-1.111-.334-.666z" style="fill:#131e18;stroke:none"/><path d="m194 484 1 1-1-1m33.667.333c-.445.445.611.389.666.334.445-.445-.611-.389-.666-.334z" style="fill:#424a52;stroke:none"/><path d="m793 484 1 1-1-1z" style="fill:#131e18;stroke:none"/><path d="m193 485 1 1-1-1m32.667.333c-.445.445.611.389.666.334.445-.445-.611-.389-.666-.334z" style="fill:#424a52;stroke:none"/><path d="m791 485 1 1-1-1z" style="fill:#5ba359;stroke:none"/><path d="M792 485c-1.186 1.186-1.528 1.584-2 3 1.994-.847 2.699-1.007 2-3m31 0c-2.49 4.221-5.267 8.42-7 13 3.39-3.107 7.788-8.18 7-13z" style="fill:#131e18;stroke:none"/><path d="m192 486-1 2c1.263-.971 1.392-.694 1-2m32 0 1 1-1-1m-1.333 1.333c-.445.445.611.389.666.334.445-.445-.611-.389-.666-.334z" style="fill:#424a52;stroke:none"/><path d="m823 487 1 1-1-1z" style="fill:#5ba359;stroke:none"/><path d="M220.667 488.333c-.445.445.611.389.666.334.445-.445-.611-.389-.666-.334z" style="fill:#424a52;stroke:none"/><path d="M789 488c-3.529 3.529-7.123 6.916-10 11 3.003-1.854 5.437-4.551 9-5l1-1c.122-1.785.375-3.286 0-5z" style="fill:#131e18;stroke:none"/><path d="M218.667 489.333c-.445.445.611.389.666.334.445-.445-.611-.389-.666-.334m-2 1c-.445.445.611.389.666.334.445-.445-.611-.389-.666-.334M215 491l1 1-1-1m-2.333 1.333c-.445.445.611.389.666.334.445-.445-.611-.389-.666-.334z" style="fill:#424a52;stroke:none"/><path d="m820 492 1 1-1-1m-37 1 1 1-1-1z" style="fill:#5ba359;stroke:none"/><path d="m184 494-1 2c1.263-.971 1.392-.694 1-2z" style="fill:#424a52;stroke:none"/><path d="m782 494 1 1-1-1m-1 1 1 1-1-1m37 0 1 1-1-1z" style="fill:#5ba359;stroke:none"/><path d="M202 498c2.14.41 2.962-.031 5-1-2.14-.41-2.963.032-5 1z" style="fill:#424a52;stroke:none"/><path d="m780 496 1 1-1-1m-1 1 1 1-1-1m-575 1 1 1-1-1z" style="fill:#5ba359;stroke:none"/><path d="M815.333 498.667c-.055.055-.111 1.111.334.666.055-.055.111-1.111-.334-.666z" style="fill:#131e18;stroke:none"/><path d="m201 499 1 1-1-1z" style="fill:#424a52;stroke:none"/><path d="M777 499v2c1.635-.545 1.455-.365 2-2h-2z" style="fill:#131e18;stroke:none"/><path d="m199 500 1 1-1-1z" style="fill:#424a52;stroke:none"/><path d="m814 500-1 2c1.263-.971 1.392-.694 1-2z" style="fill:#131e18;stroke:none"/><path d="M197.667 501.333c-.445.445.611.389.666.334.445-.445-.611-.389-.666-.334z" style="fill:#424a52;stroke:none"/><path d="M775.667 501.333c-.445.445.611.389.666.334.445-.445-.611-.389-.666-.334z" style="fill:#131e18;stroke:none"/><path d="m814 501 1 1-1-1z" style="fill:#5ba359;stroke:none"/><path d="M176 502c-1.862 1.945-3.468 3.794-5 6 2.408-1.737 4.303-3.095 5-6m20 0 1 1-1-1z" style="fill:#424a52;stroke:none"/><path d="m774 502 1 1-1-1m38.333.667c-.055.055-.111 1.111.334.666.055-.055.111-1.111-.334-.666z" style="fill:#131e18;stroke:none"/><path d="m772 503 1 1-1-1z" style="fill:#5ba359;stroke:none"/><path d="m773 503 1 1-1-1m-1 1 1 1-1-1m39 0-1 2c1.263-.971 1.392-.694 1-2z" style="fill:#131e18;stroke:none"/><path d="m191 505 1 1-1-1z" style="fill:#424a52;stroke:none"/><path d="m771 505 1 1-1-1z" style="fill:#131e18;stroke:none"/><path d="m811 505 1 1-1-1z" style="fill:#5ba359;stroke:none"/><path d="M188 508c1.58-.684 1.777-.805 3-2-1.58.684-1.777.805-3 2z" style="fill:#424a52;stroke:none"/><path d="M758 516c5.018-1.988 9.611-5.833 13-10-5.061 2.142-9.551 5.736-13 10m51-10-2 4c1.63-1.515 2.163-1.855 2-4z" style="fill:#131e18;stroke:none"/><path d="M186.667 508.333c-.445.445.611.389.666.334.445-.445-.611-.389-.666-.334z" style="fill:#424a52;stroke:none"/><path d="m766 508 1 1-1-1z" style="fill:#5ba359;stroke:none"/><path d="m185 509 1 1-1-1z" style="fill:#424a52;stroke:none"/><path d="m808 509 1 1-1-1z" style="fill:#5ba359;stroke:none"/><path d="M806 510c-.986 1.479-1 1.203-1 3 1.289-1.443 1.401-1.234 1-3z" style="fill:#131e18;stroke:none"/><path d="m762 511 1 1-1-1z" style="fill:#5ba359;stroke:none"/><path d="M180.667 512.333c-.445.445.611.389.666.334.445-.445-.611-.389-.666-.334M761 512l1 1-1-1z" style="fill:#424a52;stroke:none"/><path d="m804 513-1 2c1.263-.971 1.392-.694 1-2z" style="fill:#131e18;stroke:none"/><path d="m758 514 1 1-1-1m46 0 1 1-1-1z" style="fill:#5ba359;stroke:none"/><path d="M802 515c-1.349 1.768-2.122 2.983-3 5 2.015-1.644 3.098-2.413 3-5z" style="fill:#131e18;stroke:none"/><path d="m163 516 1 1-1-1m12 0 1 1-1-1z" style="fill:#424a52;stroke:none"/><path d="M756.667 516.333c-.445.445.611.389.666.334.445-.445-.611-.389-.666-.334z" style="fill:#131e18;stroke:none"/><path d="m754 517 1 1-1-1z" style="fill:#5ba359;stroke:none"/><path d="m755 517 1 1-1-1z" style="fill:#131e18;stroke:none"/><path d="m161 518 1 1-1-1z" style="fill:#424a52;stroke:none"/><path d="m751 521 4-2c-2.145-.163-2.485.37-4 2z" style="fill:#131e18;stroke:none"/><path d="m751 519 1 1-1-1m49 0 1 1-1-1z" style="fill:#5ba359;stroke:none"/><path d="m798 520 1 1-1-1z" style="fill:#131e18;stroke:none"/><path d="M158.333 521.667c-.055.055-.111 1.111.334.666.055-.055.111-1.111-.334-.666z" style="fill:#424a52;stroke:none"/><path d="m748 521 1 1-1-1z" style="fill:#5ba359;stroke:none"/><path d="M749.667 521.333c-.445.445.611.389.666.334.445-.445-.611-.389-.666-.334M748 522l1 1-1-1m49 0c1.793 14.19 1 28.7 1 43 0 13.245.816 26.786-.089 40-.441 6.423-2.389 12.615-2.911 19 4.685-7.67 4-18.334 4-27v-50c0-7.26 2.211-18.836-2-25z" style="fill:#131e18;stroke:none"/><path d="m157 523 1 1-1-1m9 0 1 1-1-1z" style="fill:#424a52;stroke:none"/><path d="m745 523 1 1-1-1z" style="fill:#5ba359;stroke:none"/><path d="M746.667 523.333c-.445.445.611.389.666.334.445-.445-.611-.389-.666-.334z" style="fill:#131e18;stroke:none"/><path d="m156 524 1 1-1-1m8.667.333c-.445.445.611.389.666.334.445-.445-.611-.389-.666-.334z" style="fill:#424a52;stroke:none"/><path d="m745 524 1 1-1-1z" style="fill:#131e18;stroke:none"/><path d="M155.333 525.667c-.055.055-.111 1.111.334.666.055-.055.111-1.111-.334-.666z" style="fill:#424a52;stroke:none"/><path d="m742 525 1 1-1-1z" style="fill:#5ba359;stroke:none"/><path d="M743.667 525.333c-.444.444.611.389.666.334.445-.445-.611-.389-.666-.334M742 526l1 1-1-1z" style="fill:#131e18;stroke:none"/><path d="m739 527 1 1-1-1z" style="fill:#424a52;stroke:none"/><path d="M730 533c4.273.698 8.442-2.823 12-5-4.273-.698-8.442 2.822-12 5z" style="fill:#131e18;stroke:none"/><path d="m737 528 1 1-1-1z" style="fill:#5ba359;stroke:none"/><path d="m152 529 1 1-1-1m6 0 1 1-1-1m-3 3c1.58-.684 1.777-.805 3-2-1.58.684-1.777.805-3 2z" style="fill:#424a52;stroke:none"/><path d="m734 530 1 1-1-1z" style="fill:#5ba359;stroke:none"/><path d="M150 531v2c1.635-.545 1.455-.365 2-2h-2z" style="fill:#424a52;stroke:none"/><path d="m732 531 1 1-1-1z" style="fill:#5ba359;stroke:none"/><path d="m149 533 1 1-1-1m4 0 1 1-1-1z" style="fill:#424a52;stroke:none"/><path d="m727 534 1 1-1-1z" style="fill:#5ba359;stroke:none"/><path d="M728.667 534.333c-.444.444.611.389.666.334.445-.445-.611-.389-.666-.334z" style="fill:#131e18;stroke:none"/><path d="m725 535 1 1-1-1z" style="fill:#5ba359;stroke:none"/><path d="m727 535 1 1-1-1z" style="fill:#131e18;stroke:none"/><path d="m723 536 1 1-1-1z" style="fill:#5ba359;stroke:none"/><path d="m725 536 1 1-1-1z" style="fill:#131e18;stroke:none"/><path d="m146 537 1 1-1-1z" style="fill:#424a52;stroke:none"/><path d="M721 539c1.58-.683 1.777-.805 3-2-1.58.684-1.777.805-3 2z" style="fill:#131e18;stroke:none"/><path d="m145 538 1 1-1-1z" style="fill:#424a52;stroke:none"/><path d="M719.667 539.333c-.445.445.611.389.666.334.445-.445-.611-.389-.666-.334z" style="fill:#131e18;stroke:none"/><path d="m144 540-3 5c2.015-1.644 3.098-2.413 3-5z" style="fill:#424a52;stroke:none"/><path d="M717.667 540.333c-.445.445.611.389.666.334.445-.445-.611-.389-.666-.334m-2 1c-.445.445.611.389.666.334.445-.445-.611-.389-.666-.334z" style="fill:#131e18;stroke:none"/><path d="m142 542 1 1-1-1z" style="fill:#5ba359;stroke:none"/><path d="M713.667 542.333c-.445.445.611.389.666.334.445-.445-.611-.389-.666-.334z" style="fill:#131e18;stroke:none"/><path d="m141 543 1 1-1-1z" style="fill:#5ba359;stroke:none"/><path d="M711.667 543.333c-.445.445.611.389.666.334.445-.445-.611-.389-.666-.334m-2 1c-.445.445.611.389.666.334.445-.445-.611-.389-.666-.334z" style="fill:#131e18;stroke:none"/><path d="m705 545 1 1-1-1z" style="fill:#5ba359;stroke:none"/><path d="M706 545c1.248.685 1.548.749 3 1-1.248-.685-1.548-.749-3-1z" style="fill:#131e18;stroke:none"/><path d="m703 546 1 1-1-1z" style="fill:#5ba359;stroke:none"/><path d="M704.667 546.333c-.445.445.611.389.666.334.445-.445-.611-.389-.666-.334m-2 1c-.445.445.611.389.666.334.445-.445-.611-.389-.666-.334m-2 1c-.445.445.611.389.666.334.445-.445-.611-.389-.666-.334z" style="fill:#131e18;stroke:none"/><path d="m696 549 1 1-1-1z" style="fill:#5ba359;stroke:none"/><path d="M695 550c1.943.622 2.949.436 5 0-1.943-.622-2.949-.436-5 0z" style="fill:#131e18;stroke:none"/><path d="m691 551 1 1-1-1z" style="fill:#5ba359;stroke:none"/><path d="M690 552c1.943.622 2.949.436 5 0-1.943-.622-2.949-.436-5 0z" style="fill:#131e18;stroke:none"/><path d="m686 553 1 1-1-1z" style="fill:#5ba359;stroke:none"/><path d="M677 557c4.23.888 8.948-1.681 13-3-4.295-1.267-8.898 1.612-13 3z" style="fill:#131e18;stroke:none"/><path d="m681 555 1 1-1-1m-3 1 1 1-1-1m-3 1 1 1-1-1m-3 1 1 1-1-1z" style="fill:#5ba359;stroke:none"/><path d="M671 559c1.943.622 2.949.436 5 0-1.943-.622-2.949-.436-5 0m-3 1c1.248.685 1.548.749 3 1-1.248-.685-1.548-.749-3-1z" style="fill:#131e18;stroke:none"/><path d="m663 561 1 1-1-1z" style="fill:#5ba359;stroke:none"/><path d="M664 561c1.506.683 2.315.826 4 1-1.506-.683-2.315-.826-4-1z" style="fill:#131e18;stroke:none"/><path d="m660 562 1 1-1-1z" style="fill:#5ba359;stroke:none"/><path d="M658 563c2.239.811 3.647.529 6 0-2.163-.676-3.732-.387-6 0z" style="fill:#131e18;stroke:none"/><path d="m653 564 1 1-1-1z" style="fill:#5ba359;stroke:none"/><path d="M640 568c5.257 1.881 12.761-1.524 18-3-5.231-1.856-12.644 1.894-18 3z" style="fill:#131e18;stroke:none"/><path d="m650 565 1 1-1-1z" style="fill:#424a52;stroke:none"/><path d="m646 566 1 1-1-1m-4 1 1 1-1-1m-4 1 1 1-1-1m161 0v35c2.802-6.678 1-16.784 1-24 0-3.702.441-7.565-1-11z" style="fill:#5ba359;stroke:none"/><path d="M636 569c1.506.683 2.315.826 4 1-1.506-.683-2.315-.826-4-1z" style="fill:#131e18;stroke:none"/><path d="m630 570 1 1-1-1z" style="fill:#5ba359;stroke:none"/><path d="M632 570c1.506.683 2.315.826 4 1-1.506-.683-2.315-.826-4-1z" style="fill:#131e18;stroke:none"/><path d="m626 571 1 1-1-1z" style="fill:#5ba359;stroke:none"/><path d="M608 575c6.507 2.654 16.342-1.627 23-3-6.439-2.304-16.154 2.455-23 3z" style="fill:#131e18;stroke:none"/><path d="m621 572 1 1-1-1z" style="fill:#5ba359;stroke:none"/><path d="m622 572 1 1-1-1z" style="fill:#424a52;stroke:none"/><path d="m616 573 1 1-1-1z" style="fill:#5ba359;stroke:none"/><path d="m617 573 1 1-1-1z" style="fill:#424a52;stroke:none"/><path d="m611 574 1 1-1-1z" style="fill:#5ba359;stroke:none"/><path d="m612 574 1 1-1-1z" style="fill:#424a52;stroke:none"/><path d="m606 575 1 1-1-1m-6 1 1 1-1-1z" style="fill:#5ba359;stroke:none"/><path d="m601 576 1 1-1-1z" style="fill:#424a52;stroke:none"/><path d="M575 580c3.606 1.51 7.206.658 11 .13 7.309-1.015 14.65-2.549 22-3.13-3.542-1.445-7.277-.388-11 .13-7.29 1.016-14.644 2.554-22 2.87z" style="fill:#131e18;stroke:none"/><path d="M592.667 577.333c-.445.445.611.389.666.334.445-.445-.611-.389-.666-.334z" style="fill:#5ba359;stroke:none"/><path d="m594 577 1 1-1-1m-7.333 1.333c-.445.445.611.389.666.334.445-.445-.611-.389-.666-.334z" style="fill:#424a52;stroke:none"/><path d="m578 579 1 1-1-1z" style="fill:#5ba359;stroke:none"/><path d="M579.667 579.333c-.445.445.611.389.666.334.445-.445-.611-.389-.666-.334z" style="fill:#424a52;stroke:none"/><path d="m571 580 1 1-1-1m-11 1c1.248.685 1.548.749 3 1-1.248-.685-1.548-.749-3-1z" style="fill:#5ba359;stroke:none"/><path d="M544 583c8.494 3.564 20.038-.926 29-1-8.056-3.38-20.306.999-29 1z" style="fill:#131e18;stroke:none"/><path d="M551 582c1.248.685 1.548.749 3 1-1.248-.685-1.549-.749-3-1z" style="fill:#5ba359;stroke:none"/><path d="m554 582 1 1-1-1z" style="fill:#424a52;stroke:none"/><path d="m540 583 1 1-1-1m-10 1 1 1-1-1z" style="fill:#5ba359;stroke:none"/><path d="M490 588c5.498 2.302 14.152.193 20-.576 11.115-1.46 22.793-2.423 34-2.424-5.311-2.229-11.448-.479-17-.089-12.317.863-24.673 2.56-37 3.089z" style="fill:#131e18;stroke:none"/><path d="M514 585c1.506.683 2.315.826 4 1-1.506-.683-2.315-.826-4-1z" style="fill:#5ba359;stroke:none"/><path d="m518 585 1 1-1-1z" style="fill:#424a52;stroke:none"/><path d="M502.667 586.333c-.445.445.611.389.666.334.445-.445-.611-.389-.666-.334z" style="fill:#5ba359;stroke:none"/><path d="M504 586c1.248.685 1.548.749 3 1-1.248-.685-1.548-.749-3-1m-9.333 1.333c-.445.445.611.389.666.334.445-.445-.611-.389-.666-.334z" style="fill:#424a52;stroke:none"/><path d="M486.667 588.333c-.445.445.611.389.666.334.445-.445-.611-.389-.666-.334m-6 1c-.445.445.611.389.666.334.445-.445-.611-.389-.666-.334z" style="fill:#5ba359;stroke:none"/><path d="M478 590c3.302 1.347 6.527.439 10 0-3.302-1.347-6.527-.439-10 0z" style="fill:#131e18;stroke:none"/><path d="m475 590 1 1-1-1m-5 1 1 1-1-1z" style="fill:#5ba359;stroke:none"/><path d="M472 591c1.769.779 3.036.912 5 1-1.769-.779-3.036-.912-5-1z" style="fill:#131e18;stroke:none"/><path d="m466 592 1 1-1-1z" style="fill:#5ba359;stroke:none"/><path d="M459 594c3.816 1.368 8.091-.242 12-1-3.816-1.368-8.091.242-12 1z" style="fill:#131e18;stroke:none"/><path d="m461 593 1 1-1-1z" style="fill:#5ba359;stroke:none"/><path d="M455 595c1.506.683 2.315.826 4 1-1.506-.683-2.315-.826-4-1z" style="fill:#131e18;stroke:none"/><path d="m450 596 1 1-1-1z" style="fill:#5ba359;stroke:none"/><path d="M443 599c3.825 1.064 8.136-1.192 12-2-3.994-1.417-8.112.735-12 2z" style="fill:#131e18;stroke:none"/><path d="m447 597 1 1-1-1m-3 1 1 1-1-1m-3 1 1 1-1-1m-3 1 1 1-1-1z" style="fill:#5ba359;stroke:none"/><path d="M432 603c3.438.954 6.685-.881 10-2-3.509-1.035-6.676.72-10 2z" style="fill:#131e18;stroke:none"/><path d="m433 602 1 1-1-1m-5 2 1 1-1-1z" style="fill:#5ba359;stroke:none"/><path d="M430.667 604.333c-.445.445.611.389.666.334.445-.445-.611-.389-.666-.334z" style="fill:#131e18;stroke:none"/><path d="m426 605 1 1-1-1z" style="fill:#5ba359;stroke:none"/><path d="M427.667 605.333c-.445.445.611.389.666.334.445-.445-.611-.389-.666-.334m-2 1c-.445.445.611.389.666.334.445-.445-.611-.389-.666-.334m-2 1c-.445.445.611.389.666.334.445-.445-.611-.389-.666-.334z" style="fill:#131e18;stroke:none"/><path d="m419 608 1 1-1-1z" style="fill:#5ba359;stroke:none"/><path d="M419 609c1.659.406 2.242.309 4 0-1.809-.574-2.069-.465-4 0z" style="fill:#131e18;stroke:none"/><path d="m417 609 1 1-1-1m-2 1 1 1-1-1z" style="fill:#5ba359;stroke:none"/><path d="M416.667 610.333c-.445.445.611.389.666.334.445-.445-.611-.389-.666-.334z" style="fill:#131e18;stroke:none"/><path d="m413 611 1 1-1-1z" style="fill:#5ba359;stroke:none"/><path d="M414.667 611.333c-.445.445.611.389.666.334.445-.445-.611-.389-.666-.334z" style="fill:#131e18;stroke:none"/><path d="m798 611 1 1-1-1z" style="fill:#424a52;stroke:none"/><path d="M411 614c1.58-.683 1.777-.805 3-2-1.58.684-1.777.805-3 2z" style="fill:#131e18;stroke:none"/><path d="m798 612 1 1-1-1z" style="fill:#5ba359;stroke:none"/><path d="M407 615c1.659.406 2.242.309 4 0-1.809-.574-2.069-.465-4 0z" style="fill:#131e18;stroke:none"/><path d="m404 616 1 1-1-1z" style="fill:#5ba359;stroke:none"/><path d="M405.667 616.333c-.445.445.611.389.666.334.445-.445-.611-.389-.666-.334z" style="fill:#131e18;stroke:none"/><path d="m402 617 1 1-1-1z" style="fill:#5ba359;stroke:none"/><path d="M402 619c1.58-.683 1.777-.805 3-2-1.58.684-1.777.805-3 2z" style="fill:#131e18;stroke:none"/><path d="m797 617 1 1-1-1z" style="fill:#424a52;stroke:none"/><path d="m400 619 1 1-1-1z" style="fill:#131e18;stroke:none"/><path d="m397 620 1 1-1-1z" style="fill:#5ba359;stroke:none"/><path d="M392 624c3.035.034 5.388-1.484 8-3-3.147-.461-5.373 1.292-8 3z" style="fill:#131e18;stroke:none"/><path d="m796 621 1 1-1-1m-402 1 1 1-1-1m-2 1 1 1-1-1z" style="fill:#5ba359;stroke:none"/><path d="M794 624v3c.696-1.554.696-1.446 0-3z" style="fill:#131e18;stroke:none"/><path d="m389 625 1 1-1-1z" style="fill:#5ba359;stroke:none"/><path d="M390.667 625.333c-.445.445.611.389.666.334.445-.445-.611-.389-.666-.334M389 626l1 1-1-1z" style="fill:#131e18;stroke:none"/><path d="m386 627 1 1-1-1z" style="fill:#5ba359;stroke:none"/><path d="M387.667 627.333c-.445.445.611.389.666.334.445-.445-.611-.389-.666-.334m405.666.334c-.055.055-.111 1.111.334.666.055-.055.111-1.111-.334-.666M386 628l1 1-1-1m-7 6c2.482-1.163 4.709-2.49 7-4-3.241-.271-4.978 1.58-7 4m413-5-1 5c1.318-1.926 1.651-2.766 1-5z" style="fill:#131e18;stroke:none"/><path d="m382 630 1 1-1-1m411 0 1 1-1-1m-414 2 1 1-1-1m413 0 1 1-1-1z" style="fill:#5ba359;stroke:none"/><path d="M377.667 634.333c-.445.445.611.389.666.334.445-.445-.611-.389-.666-.334M790 634l-6 11c3.254-2.697 6.726-6.56 6-11z" style="fill:#131e18;stroke:none"/><path d="m375 635 1 1-1-1z" style="fill:#5ba359;stroke:none"/><path d="m376 635 1 1-1-1m-1 1 1 1-1-1z" style="fill:#131e18;stroke:none"/><path d="m790 636 1 1-1-1z" style="fill:#5ba359;stroke:none"/><path d="M373.667 637.333c-.445.445.611.389.666.334.445-.445-.611-.389-.666-.334z" style="fill:#131e18;stroke:none"/><path d="m371 638 1 1-1-1z" style="fill:#5ba359;stroke:none"/><path d="m372 638 1 1-1-1z" style="fill:#131e18;stroke:none"/><path d="m789 638 1 1-1-1z" style="fill:#5ba359;stroke:none"/><path d="m371 639 1 1-1-1m-6 6c2.637-1.383 4.17-2.652 6-5-2.763 1.3-4.164 2.553-6 5z" style="fill:#131e18;stroke:none"/><path d="m787 641 1 1-1-1m-421 1 1 1-1-1m-1 1 1 1-1-1m420 1 1 1-1-1z" style="fill:#5ba359;stroke:none"/><path d="m364 645 1 1-1-1m419 0c-2.614 3.223-5.27 6.223-7 10 3.352-2.413 7.364-5.57 7-10m-423 4c1.949-.936 2.55-1.392 4-3-1.949.936-2.55 1.392-4 3z" style="fill:#131e18;stroke:none"/><path d="M358 649c-1.186 1.186-1.528 1.584-2 3 1.548-1.262 1.808-1.194 2-3z" style="fill:#5ba359;stroke:none"/><path d="m358 650 1 1-1-1m-1 1 1 1-1-1m-1 1 1 1-1-1m-1 1 1 1-1-1m-13 14a54.33 54.33 0 0 0 13-13c-5.512 2.57-10.43 7.488-13 13m433-12 1 1-1-1m-1 1 1 1-1-1m-1 1 1 1-1-1m-1 1 1 1-1-1m-9 8c3.706-1.652 6.45-3.849 9-7-3.809 1.613-6.484 3.721-9 7z" style="fill:#131e18;stroke:none"/><path d="m768 662 1 1-1-1m-1 1 1 1-1-1z" style="fill:#5ba359;stroke:none"/><path d="M762 666c-2.949 2.112-5.848 4.205-9 6 3.794.55 8.038-2.288 9-6z" style="fill:#131e18;stroke:none"/><path d="m340 667-1 2c1.263-.971 1.392-.694 1-2z" style="fill:#5ba359;stroke:none"/><path d="m341 667 1 1-1-1z" style="fill:#131e18;stroke:none"/><path d="m762 667 1 1-1-1z" style="fill:#5ba359;stroke:none"/><path d="m340 668 1 1-1-1m-1 1 1 1-1-1m-1 1 1 1-1-1z" style="fill:#131e18;stroke:none"/><path d="m758 670 1 1-1-1m-3 2 1 1-1-1z" style="fill:#5ba359;stroke:none"/><path d="m752 673 1 1-1-1z" style="fill:#131e18;stroke:none"/><path d="m334 674 1 1-1-1z" style="fill:#5ba359;stroke:none"/><path d="m335 674 1 1-1-1m416 0 1 1-1-1m-417 1-3 5c2.015-1.644 3.098-2.413 3-5m411 4 6-3c-2.888-.41-4.115.847-6 3z" style="fill:#131e18;stroke:none"/><path d="m749 676 1 1-1-1m-418 2 1 1-1-1m415 0 1 1-1-1z" style="fill:#5ba359;stroke:none"/><path d="M739 681c2.14.41 2.962-.031 5-1-2.022-.269-3.043.192-5 1m-408.667-.333c-.055.055-.111 1.111.334.666.055-.055.111-1.111-.334-.666z" style="fill:#131e18;stroke:none"/><path d="m741 681 1 1-1-1m-413 1 1 1-1-1z" style="fill:#5ba359;stroke:none"/><path d="m329 682 1 1-1-1m409 0 1 1-1-1m-410 1-1 4c1.146-1.641 1.393-2.076 1-4m406 1c1.659.406 2.242.309 4 0-1.659-.406-2.242-.309-4 0z" style="fill:#131e18;stroke:none"/><path d="m327 684 1 1-1-1m409 0 1 1-1-1z" style="fill:#5ba359;stroke:none"/><path d="M729 687c2.14.41 2.962-.031 5-1-2.023-.269-3.043.192-5 1z" style="fill:#131e18;stroke:none"/><path d="m729 686 1 1-1-1z" style="fill:#5ba359;stroke:none"/><path d="M326 687v3c.696-1.554.696-1.446 0-3z" style="fill:#131e18;stroke:none"/><path d="m731 687 1 1-1-1z" style="fill:#5ba359;stroke:none"/><path d="m728 688 1 1-1-1m-1.333 1.333c-.444.444.611.389.666.334.445-.445-.611-.389-.666-.334M716 695c3.679.537 6.908-2.11 10-4-3.695-.415-6.934 2.049-10 4z" style="fill:#131e18;stroke:none"/><path d="m326 691 1 1-1-1z" style="fill:#5ba359;stroke:none"/><path d="m327 691 1 1-1-1m1 1c2.162 2.171 4.059 3.129 7 4-2.162-2.171-4.059-3.129-7-4z" style="fill:#131e18;stroke:none"/><path d="m723 692 1 1-1-1m-395 1 1 1-1-1z" style="fill:#5ba359;stroke:none"/><path d="m721 693 1 1-1-1z" style="fill:#424a52;stroke:none"/><path d="m330 694 1 1-1-1m388 1 1 1-1-1m-384 1 1 1-1-1z" style="fill:#5ba359;stroke:none"/><path d="m336 696 1 1-1-1m378.667.333c-.445.445.611.389.666.334.445-.445-.611-.389-.666-.334z" style="fill:#131e18;stroke:none"/><path d="m336 697 1 1-1-1z" style="fill:#5ba359;stroke:none"/><path d="M338 697c2.851 2.881 6.275 4.448 10 6-2.851-2.881-6.275-4.448-10-6m373 2c1.58-.683 1.777-.805 3-2-1.58.684-1.777.805-3 2z" style="fill:#131e18;stroke:none"/><path d="m338 698 1 1-1-1m375 0 1 1-1-1m-373 1 1 1-1-1z" style="fill:#5ba359;stroke:none"/><path d="M709.667 699.333c-.445.445.611.389.666.334.445-.445-.611-.389-.666-.334z" style="fill:#131e18;stroke:none"/><path d="m342 700 1 1-1-1z" style="fill:#5ba359;stroke:none"/><path d="m708 700-10 6c4.006.377 7.731-2.837 11-5l-1-1z" style="fill:#131e18;stroke:none"/><path d="m344 701 1 1-1-1m364 0 1 1-1-1m-362 1 1 1-1-1m360 0 1 1-1-1z" style="fill:#5ba359;stroke:none"/><path d="M349.667 703.333c-.445.445.611.389.666.334.445-.445-.611-.389-.666-.334M351 704l1 1-1-1z" style="fill:#131e18;stroke:none"/><path d="m703 704 1 1-1-1z" style="fill:#5ba359;stroke:none"/><path d="M352 705c1.949 1.573 3.588 2.291 6 3-1.949-1.573-3.588-2.291-6-3z" style="fill:#131e18;stroke:none"/><path d="m701 705 1 1-1-1m-348 1 1 1-1-1m2 1 1 1-1-1z" style="fill:#5ba359;stroke:none"/><path d="m695 709 3-1c-1.766-.401-1.557-.289-3 1m-337-1c2.616 2.699 5.599 4.41 9 6-2.549-2.995-5.313-4.647-9-6z" style="fill:#131e18;stroke:none"/><path d="m696 708 1 1-1-1z" style="fill:#5ba359;stroke:none"/><path d="M692.667 709.333c-.445.445.611.389.666.334.445-.445-.611-.389-.666-.334z" style="fill:#131e18;stroke:none"/><path d="m360 710 1 1-1-1z" style="fill:#5ba359;stroke:none"/><path d="m691 710-2 1c1.453.555 2.076.604 2-1z" style="fill:#131e18;stroke:none"/><path d="m693 710 1 1-1-1m-331 1 1 1-1-1m329 0 1 1-1-1z" style="fill:#5ba359;stroke:none"/><path d="M684 714c2.14.41 2.962-.031 5-1-2.022-.269-3.043.192-5 1z" style="fill:#131e18;stroke:none"/><path d="m365 713 1 1-1-1z" style="fill:#5ba359;stroke:none"/><path d="m368 714 1 1-1-1z" style="fill:#131e18;stroke:none"/><path d="m686 714 1 1-1-1z" style="fill:#5ba359;stroke:none"/><path d="M370 715c1.686 1.656 2.746 2.251 5 3-1.631-1.366-3.038-2.142-5-3m307.667.333c-.445.445.611.389.666.334.445-.445-.611-.389-.666-.334M683 715l1 1-1-1z" style="fill:#131e18;stroke:none"/><path d="m370 716 1 1-1-1z" style="fill:#5ba359;stroke:none"/><path d="M679 717c1.659.406 2.242.309 4 0-1.659-.406-2.242-.309-4 0z" style="fill:#131e18;stroke:none"/><path d="m372 717 1 1-1-1m309 0 1 1-1-1z" style="fill:#5ba359;stroke:none"/><path d="m375 718 1 1-1-1m302.667.333c-.445.445.611.389.666.334.445-.445-.611-.389-.666-.334M376 719c1.458 1.081 2.248 1.436 4 2-1.458-1.081-2.248-1.436-4-2m300 0-7 4c3.147.461 5.373-1.292 8-3l-1-1z" style="fill:#131e18;stroke:none"/><path d="m377 720 1 1-1-1m299 0 1 1-1-1z" style="fill:#5ba359;stroke:none"/><path d="M380 721c1.686 1.656 2.746 2.251 5 3-1.686-1.656-2.746-2.251-5-3z" style="fill:#131e18;stroke:none"/><path d="m674 721 1 1-1-1m-292 2 1 1-1-1m289 0 1 1-1-1z" style="fill:#5ba359;stroke:none"/><path d="M385 724c3.327 3.431 7.424 5.654 12 7-3.419-3.202-7.612-5.403-12-7m277 3c2.764.47 4.553-.631 7-2-2.69-.405-4.556.775-7 2z" style="fill:#131e18;stroke:none"/><path d="m389 725 1 1-1-1m-2 1 1 1-1-1m2 1 1 1-1-1m275 0 1 1-1-1z" style="fill:#5ba359;stroke:none"/><path d="M657 730c2.14.41 2.962-.032 5-1-2.022-.269-3.043.192-5 1z" style="fill:#131e18;stroke:none"/><path d="m392 729 1 1-1-1m2 1 1 1-1-1m265 0 1 1-1-1z" style="fill:#5ba359;stroke:none"/><path d="M397 731c1.686 1.656 2.746 2.251 5 3-1.663-1.503-2.896-2.199-5-3m258.667.333c-.445.445.611.389.666.334.445-.445-.611-.389-.666-.334z" style="fill:#131e18;stroke:none"/><path d="m399 733 1 1-1-1z" style="fill:#5ba359;stroke:none"/><path d="M652.667 733.333c-.445.445.611.389.666.334.445-.445-.611-.389-.666-.334z" style="fill:#131e18;stroke:none"/><path d="m654 733 1 1-1-1z" style="fill:#5ba359;stroke:none"/><path d="M402.667 734.333c-.445.445.611.389.666.334.445-.445-.611-.389-.666-.334M647 736c2.14.41 2.962-.032 5-1-2.022-.269-3.043.192-5 1m-243-1c2.854 3.089 5.973 4.815 10 6-2.939-2.761-6.219-4.616-10-6z" style="fill:#131e18;stroke:none"/><path d="m404 736 1 1-1-1m245 0 1 1-1-1m-243 1 1 1-1-1z" style="fill:#5ba359;stroke:none"/><path d="m646 737 1 1-1-1m-9 5c3.279.479 6.03-1.623 9-3-3.338-.546-6.057 1.461-9 3z" style="fill:#131e18;stroke:none"/><path d="m409 739 1 1-1-1m235 0 1 1-1-1m-233 1 1 1-1-1m231 0 1 1-1-1z" style="fill:#5ba359;stroke:none"/><path d="M414 741c1.686 1.656 2.746 2.251 5 3-1.686-1.656-2.746-2.251-5-3z" style="fill:#131e18;stroke:none"/><path d="m639 742 1 1-1-1m-223 1 1 1-1-1z" style="fill:#5ba359;stroke:none"/><path d="M632 745c2.14.41 2.962-.032 5-1-2.022-.269-3.043.192-5 1m-213-1c2.854 3.089 5.973 4.815 10 6-2.939-2.761-6.219-4.616-10-6z" style="fill:#131e18;stroke:none"/><path d="m634 745 1 1-1-1m-213 1 1 1-1-1z" style="fill:#5ba359;stroke:none"/><path d="m631 746 1 1-1-1m-2 1-4 2c2.14.41 2.962-.032 5-1l-1-1z" style="fill:#131e18;stroke:none"/><path d="m629 748 1 1-1-1m-203 1 1 1-1-1m201 0 1 1-1-1z" style="fill:#5ba359;stroke:none"/><path d="M429 750c1.223 1.195 1.42 1.316 3 2-1.223-1.195-1.42-1.316-3-2m195 0 1 1-1-1m-4 2c1.659.406 2.242.309 4 0-1.659-.406-2.242-.309-4 0m-188 0c1.663 1.503 2.896 2.199 5 3-1.686-1.656-2.746-2.251-5-3z" style="fill:#131e18;stroke:none"/><path d="m622 752 1 1-1-1m-189 1 1 1-1-1z" style="fill:#5ba359;stroke:none"/><path d="M615 755c2.14.41 2.962-.031 5-1-2.022-.269-3.043.192-5 1z" style="fill:#131e18;stroke:none"/><path d="m619 754 1 1-1-1z" style="fill:#5ba359;stroke:none"/><path d="M437 755c1.458 1.081 2.248 1.436 4 2-1.458-1.081-2.248-1.436-4-2z" style="fill:#131e18;stroke:none"/><path d="m617 755 1 1-1-1m-179 1 1 1-1-1z" style="fill:#5ba359;stroke:none"/><path d="m614 756 1 1-1-1m-173 1c1.686 1.656 2.746 2.251 5 3-1.663-1.503-2.896-2.199-5-3m162 5c3.944.656 7.565-2.193 11-4-3.932-.643-7.488 2.361-11 4z" style="fill:#131e18;stroke:none"/><path d="m612 758 1 1-1-1m-169 1 1 1-1-1z" style="fill:#5ba359;stroke:none"/><path d="M446 760c2.162 2.171 4.059 3.129 7 4-2.188-1.885-4.288-3.006-7-4z" style="fill:#131e18;stroke:none"/><path d="m609 760 1 1-1-1m-2 1 1 1-1-1m-159 1 1 1-1-1m157 0 1 1-1-1m-155 1 1 1-1-1z" style="fill:#5ba359;stroke:none"/><path d="M598 765c2.14.41 2.962-.031 5-1-2.022-.269-3.043.192-5 1m-145-1c4.385 4.523 10.961 8.224 17 10-4.572-4.281-11.13-7.851-17-10z" style="fill:#131e18;stroke:none"/><path d="m600 765 1 1-1-1m-145 1 1 1-1-1z" style="fill:#5ba359;stroke:none"/><path d="M596.667 766.333c-.445.445.611.389.666.334.445-.445-.611-.389-.666-.334z" style="fill:#131e18;stroke:none"/><path d="m457 767 1 1-1-1z" style="fill:#5ba359;stroke:none"/><path d="M591 769c2.14.41 2.962-.031 5-1-2.022-.269-3.043.192-5 1z" style="fill:#131e18;stroke:none"/><path d="m595 768 1 1-1-1m-135 1 1 1-1-1m133 0 1 1-1-1m-131 1 1 1-1-1z" style="fill:#5ba359;stroke:none"/><path d="M588 772c1.58-.684 1.777-.805 3-2-1.58.684-1.777.805-3 2m-4 1c1.659.406 2.242.309 4 0-1.659-.406-2.242-.309-4 0z" style="fill:#131e18;stroke:none"/><path d="m467 773 1 1-1-1m119 0 1 1-1-1z" style="fill:#5ba359;stroke:none"/><path d="M470 774c3.103 3.2 6.919 5.241 11 7-3.08-3.36-6.656-5.616-11-7m113 0 1 1-1-1m-2 1-4 2c2.14.41 2.962-.031 5-1l-1-1z" style="fill:#131e18;stroke:none"/><path d="m472 776 1 1-1-1m109 0 1 1-1-1m-107 1 1 1-1-1m105 0 1 1-1-1z" style="fill:#5ba359;stroke:none"/><path d="M572 780c2.14.41 2.962-.032 5-1-2.022-.269-3.043.192-5 1z" style="fill:#131e18;stroke:none"/><path d="m477 779 1 1-1-1m99 0 1 1-1-1m-97 1 1 1-1-1m95 0 1 1-1-1z" style="fill:#5ba359;stroke:none"/><path d="M482 781c2.162 2.171 4.059 3.129 7 4-2.188-1.885-4.288-3.006-7-4z" style="fill:#131e18;stroke:none"/><path d="m484 781 1 1-1-1z" style="fill:#5ba359;stroke:none"/><path d="m571 781 1 1-1-1z" style="fill:#131e18;stroke:none"/><path d="m482 782 1 1-1-1z" style="fill:#5ba359;stroke:none"/><path d="M567 783c1.659.406 2.242.309 4 0-1.659-.406-2.242-.309-4 0z" style="fill:#131e18;stroke:none"/><path d="m484 783 1 1-1-1m85 0 1 1-1-1m-83 1 1 1-1-1z" style="fill:#5ba359;stroke:none"/><path d="M563 785c1.659.406 2.242.309 4 0-1.659-.406-2.242-.309-4 0m-73.333.333c-.445.445.611.389.666.334.445-.445-.611-.389-.666-.334z" style="fill:#131e18;stroke:none"/><path d="m565 785 1 1-1-1z" style="fill:#5ba359;stroke:none"/><path d="M491.667 786.333c-.445.445.611.389.666.334.445-.445-.611-.389-.666-.334M559 787c1.659.406 2.242.309 4 0-1.659-.406-2.242-.309-4 0m-66 0c1.751 1.255 2.857 1.614 5 2-1.693-1.062-3.04-1.52-5-2z" style="fill:#131e18;stroke:none"/><path d="m561 787 1 1-1-1m-67 1 1 1-1-1z" style="fill:#5ba359;stroke:none"/><path d="M554 789c1.943.622 2.949.436 5 0-1.943-.622-2.949-.436-5 0m-55.333.333c-.445.445.611.389.666.334.445-.445-.611-.389-.666-.334z" style="fill:#131e18;stroke:none"/><path d="m557 789 1 1-1-1m-58 1 1 1-1-1z" style="fill:#5ba359;stroke:none"/><path d="M501.667 790.333c-.445.445.611.389.666.334.445-.445-.611-.389-.666-.334M548 791c2.239.811 3.647.529 6 0-2.164-.676-3.732-.387-6 0z" style="fill:#131e18;stroke:none"/><path d="m502 791 1 1-1-1z" style="fill:#5ba359;stroke:none"/><path d="M504.667 791.333c-.445.445.611.389.666.334.445-.445-.611-.389-.666-.334z" style="fill:#131e18;stroke:none"/><path d="m505 792 1 1-1-1z" style="fill:#5ba359;stroke:none"/><path d="M507 792c1.506.683 2.315.826 4 1-1.506-.683-2.315-.826-4-1m38 0c1.248.685 1.548.749 3 1-1.248-.685-1.548-.749-3-1z" style="fill:#131e18;stroke:none"/><path d="m509 793 1 1-1-1z" style="fill:#5ba359;stroke:none"/><path d="M511 793c1.506.683 2.315.826 4 1-1.506-.683-2.315-.826-4-1m6 1c8.411 3.531 18.297.687 27 0-3.346-1.365-6.472-.331-10-.089-5.628.385-11.36.089-17 .089z" style="fill:#131e18;stroke:none"/><path d="m545 793 1 1-1-1m-31 1 1 1-1-1z" style="fill:#5ba359;stroke:none"/><path d="m539 794 1 1-1-1z" style="fill:#424a52;stroke:none"/><path d="m540 794 1 1-1-1m-19 1 1 1-1-1z" style="fill:#5ba359;stroke:none"/><path d="M522 795c1.769.779 3.036.912 5 1-1.769-.779-3.036-.912-5-1z" style="fill:#424a52;stroke:none"/><path d="M532 795c1.506.683 2.315.826 4 1-1.506-.683-2.315-.826-4-1z" style="fill:#5ba359;stroke:none"/><path d="m444 880 2-1-1 3c3.031 0 3.072 2.277 3 5 3.541.991 5.953 3.469 7 7 1.661-.208 1.54-.495 2 1 2.772-.462 4.363-.109 7 2l-1 1c2.95-.983 3.622-1.487 3 1 2.709-.648 5.216-.942 8-1l-2 1c5.165 1.241 10.651-1.044 16 0 2.856-2.57 6.119-4.006 10-4 0-2.385.732-2.336 3-2 0-2.384 4.349-7 7-7-.474-2.368-.152-3.31 2-6l1 1c-.424-2.544-.53-3.449 1-6l1 1c-.983-2.95-1.487-3.622 1-3-1.591-6.682-1.591-14.318 0-21-3.272-3.445-6.648-10.218-7-15-2.886-.796-4.193-2.105-5-5-2.649.53-3.607.428-3-2-2.106-.199-2.543-.456-4-2l-3 1 1-2c-6.925 1.102-14.014-2.735-20.715-1.441-15.738 3.041-29.704 15.936-30.736 32.611-.456 7.354 3.211 14.482 2.451 21.83z" style="fill:#424a52;stroke:none"/><path d="M475 825c4.997 2.243 11.547 2.57 17 3-5.021-3.028-11.279-2.996-17-3z" style="fill:#131e18;stroke:none"/><path d="m484 825 1 1-1-1z" style="fill:#424a52;stroke:none"/><path d="m485 825 1 1-1-1z" style="fill:#5ba359;stroke:none"/><path d="M196 826v73h14v-73h-14m34 0v73c13.247 0 26.88.971 40-1.004 8.487-1.277 15.597-6.164 17-14.996-2.763 3.98-4.729 8.323-9.015 10.995-3.948 2.461-8.509 2.705-12.985 3.287-11.187 1.453-22.726.718-34 .718v-71h34c-3.699-1.552-8.017-1-12-1h-23z" style="fill:#131e18;stroke:none"/><path d="M231 827v71c17.511 0 49.097 5.834 56.221-15.424.903-2.693.644-5.769.779-8.576-2.021 0-7-8.639-7-11h-3c3.019-7.92 5.912-14.437 7-23-1.3.65-1 .147-1 2-1.368-2.736-1.926-6.695-4-9-2.368-2.631-6.178-3.307-9-5l1-1-6 1 2-1c-3.42-1.052-7.384-.018-11-.001-8.666.042-17.334.001-26 .001z" style="fill:#424a52;stroke:none"/><path d="m268 826 1 1-1-1z" style="fill:#5ba359;stroke:none"/><path d="M304 826v73h50v-13h-37c3.699 1.552 8.017 1 12 1h23v11h-47v-71h45v11h-31c3.699 1.552 8.017 1 12 1h20v-13h-47z" style="fill:#131e18;stroke:none"/><path d="m351 826 1 1-1-1z" style="fill:#424a52;stroke:none"/><path d="M370 826v73h14v-27c-3.008 7.169-1 18.239-1 26h-12v-71h33c-3.699-1.552-8.017-1-12-1h-22z" style="fill:#131e18;stroke:none"/><path d="M371 827v71h12v-26c5.607 0 11.46.609 17 0 .71 2.387.653 4 3 4l-1 3c3.277 1.028 4.654 3.647 5 7 3.674 1.174 5.617 5.278 6 9 1.687 1.201 1.763 1.031 2 3h15c-.812-2.369-1.772-4.513-2-7-2.967 0-4.306-3.245-4-6-5.315-1.669-10.097-10.581-10-16 13.74-1.994 11.651-17.132 14-27-.859-1.353-.823-1.355-1-3-2.179-.726-1.78-.439-1-2-3.388 0-1.107-1.966-3.167-3.833-2.237-2.03-4.032-1.166-5.833-4.167-3.004 1.001-8.894-.137-12-2l1-1c-11.355 2.108-23.48 1-35 1z" style="fill:#424a52;stroke:none"/><path d="m406 826 1 1-1-1m60 0 1 1-1-1z" style="fill:#5ba359;stroke:none"/><path d="M456 831c4.664.781 10.313-2.915 15-4-5.052-1.791-10.377 2.078-15 4z" style="fill:#131e18;stroke:none"/><path d="m489 826 1 1-1-1z" style="fill:#424a52;stroke:none"/><path d="M531 826c1.258 5.282 1 10.6 1 16 1.876-4.471 1-10.183 1-15 3.453 0 8.568-.912 11.61 1.028 3.555 2.268 5.332 8.349 7.143 11.972 5 9.999 9.612 20.345 15.247 30 .651-3.985-2.388-7.505-4.139-11l-11.614-23c-1.446-2.891-2.784-7.152-5.637-8.972-3.636-2.32-10.453-1.028-14.61-1.028z" style="fill:#131e18;stroke:none"/><path d="m546 826 1 1-1-1z" style="fill:#424a52;stroke:none"/><path d="M588 833c5.84-5.5 8.994-6 17-6v24c2.907-6.928 1-17.503 1-25-8.198 0-14.379-1.535-18 7m60-7c-2.073 7.579-5.685 14.717-8.6 22-6.852 17.114-14.404 33.948-21.4 51 5.579 0 14.539 2.123 17-4-4.725 3.411-9.383 3-15 3 8.852-18.925 16.5-38.659 24.397-58 2.794-6.843 7.312-18.354 17.209-11.972 2.828 1.823 3.803 6.041 4.997 8.972 2.729 6.695 5.654 13.313 8.397 20 1.211-6.909-5.439-16.618-8-23-.984-2.452-1.829-6.134-4.418-7.397-3.813-1.859-10.408-.603-14.582-.603m57 0v73h14v-27c3.946 0 9.326-.92 12.907 1.028 9.16 4.982 10.288 19.829 19.277 24.944C755.31 900.32 762.39 899 767 899c-5.136-10.324-13.387-18.919-19-29l4-1c-5.065-.708-4.236 3.844-2.223 7.001 4.781 7.497 10.046 14.771 15.223 21.999-4.078 0-10.09 1.114-13.482-1.603-7.848-6.286-10.045-18.163-17.419-24.794-2.952-2.654-12.704-2.832-15.071.715C716.918 875.48 718 881.382 718 885v13h-12v-71h32c-3.699-1.552-8.017-1-12-1h-21z" style="fill:#131e18;stroke:none"/><path d="M706 827v71h12v-13c0-2.646-.173-5.362.059-7.999.582-6.648 9.043-9.418 14.562-5.973 8.779 5.478 10.006 20.305 18.897 25.944C754.953 899.151 761.087 898 765 898c-3.523-7.082-8.741-13.449-13.174-20-2.713-4.009-5.371-8.302 1.174-9 2.124-3.105 4.349-6.78 8-8-.557-5.115.721-10.056 2-15-2.114-2.617-2.337-4.672-2-8l-2 1c-1.628-4.069-3.288-7.037-8-9-3.723-1.551-8.515-.909-12-3l1-1c-11.043 2.05-22.797 1-34 1z" style="fill:#424a52;stroke:none"/><path d="m740 826 1 1-1-1z" style="fill:#5ba359;stroke:none"/><path d="m780 826 1 1-1-1z" style="fill:#424a52;stroke:none"/><path d="M781 826v73h49v-13h-36v-15c-1.982 4.724-1 10.91-1 16h36v11h-47v-71h45v11h-31c3.699 1.552 8.017 1 12 1h20v-13h-47z" style="fill:#131e18;stroke:none"/><path d="M828 826v13c1.591-3.791 1.591-9.209 0-13z" style="fill:#5ba359;stroke:none"/><path d="M197 827v71h12v-71h-12z" style="fill:#424a52;stroke:none"/><path d="M266 827c1.769.779 3.036.912 5 1-1.769-.779-3.036-.912-5-1z" style="fill:#131e18;stroke:none"/><path d="m272 827 1 1-1-1z" style="fill:#5ba359;stroke:none"/><path d="M305 827v71h47v-11h-35c.714-6.497 0-13.424 0-20 9.688 2.864 21.916 1 32 1v-12h-32v-18c10.677 1.174 22.205 0 33 0v-11h-45z" style="fill:#424a52;stroke:none"/><path d="M351 827v11c1.431-3.41 1.431-7.59 0-11z" style="fill:#5ba359;stroke:none"/><path d="M405 827c3.389 1.642 7.272 2.452 11 3-3.363-2.502-6.874-2.912-11-3z" style="fill:#131e18;stroke:none"/><path d="m411 827 1 1-1-1m52 0 1 1-1-1z" style="fill:#5ba359;stroke:none"/><path d="m531 827 1 71h13c-3.46-14.535-1.164-32.246 0-47 5.598 5.523 12.388 18.138 13 26l2-1-1 3c2.179.726 1.78.439 1 2 2.795 0 2.265 1.48 2 4 2.063 1.031 2.299 2.979 4 4 3.163 1.898 5.649-1.311 7-3l1 1-1-2c1.605-3.211 4.189-9.487 7-13l1 1-1-3 2 1-1-3 2 1c.527-7.235 5.72-15.21 11-20v49h12l-1-71c-3.778 0-9.259-.986-12.623 1.023-2.013 1.202-3.573 3.473-5.377 4.977.208 1.661.495 1.54-1 2l1 3-2-1 1 3-2-1c-.309 6.112-4.514 13.903-9 18 .53 2.649.428 3.607-2 3 .208 1.661.496 1.54-1 2l1 3-2-1 1 3-2-1 1 3c-1.846-.026-2.266.17-4 1-3.839-9.22-8.78-18.067-13.247-27-2.1-4.201-3.741-9.372-7.753-12-.306-5.839-8.592-4-13-4v15c-1.451-4.907-.04-10.33-2-15z" style="fill:#424a52;stroke:none"/><path d="m590 827 1 1-1-1z" style="fill:#5ba359;stroke:none"/><path d="M620 898c5.98 0 10.883.456 16-3 .183-2.428.423-3.17 2-5-.91-2.729-.956-3.555 1-6l1 1c.191-1.148-.592-2.403 1-3 2.016-.756 5.822 0 8 0 6.763 0 16.539-1.846 23 0 1.865.533.224 1.106 0 2 3.172 0 2.553 2.375 2 5 3.172 0 2.553 2.375 2 5 3.068 0 1.168 1.841 3.333 3.5 3.296 2.524 12.199.828 13.667-2.5l-2 1 1-3c-2.206-2.264-2.825-3.843-3-7-.859-1.353-.823-1.355-1-3-3.499 0-3.303-4.122-3-7-2.997 0-2.268-2.45-2-5-3.499 0-3.303-4.122-3-7-1.803-1.401-1.967-2.699-2-5l-2 1 1-3c-5.322-5.27-7.6-14.14-10.397-21-1.124-2.757-2.055-6.998-4.997-8.397-1.398-.665-3.105-.573-4.61-.598-9.639-.164-10.099 6.204-13.423 13.995-8.019 18.792-17.022 37.637-23.573 57z" style="fill:#424a52;stroke:none"/><path d="M739 827c5.189 2.499 11.51 4.036 17 6-4.645-4.691-10.583-5.946-17-6z" style="fill:#131e18;stroke:none"/><path d="m746 827 1 1-1-1m34 0v71c2.085-4.969 1-11.65 1-17v-35c0-5.887 1.292-13.538-1-19z" style="fill:#5ba359;stroke:none"/><path d="M782 827v71h47v-11h-36v-16c1.435 4.853 1 9.964 1 15 2.24-5.339-1.082-12.795 2.179-17.682 1.721-2.579 5.096-2.298 7.821-2.317 6.666-.046 13.334-.001 20-.001v-10h-30c-.12-5.932-2.972-12.757 1-18-.99 3.35-.998 6.514-1 10 1.081-2.57.533-6.328 2.603-8.397 2.073-2.07 5.737-1.598 8.397-1.603h22v-11h-45z" style="fill:#424a52;stroke:none"/><path d="M271 828c2.517 1.737 5.123 2.968 8 4-2.435-2.433-4.618-3.388-8-4z" style="fill:#131e18;stroke:none"/><path d="m274 828 1 1-1-1m140 0 1 1-1-1m47 0 1 1-1-1z" style="fill:#5ba359;stroke:none"/><path d="M492.667 828.333c-.445.445.611.389.666.334.445-.445-.611-.389-.666-.334z" style="fill:#131e18;stroke:none"/><path d="m495 828 1 1-1-1m52 0 1 1-1-1m100 0 1 1-1-1m102 0 1 1-1-1m-473 1 1 1-1-1m141 0 1 1-1-1m42 0 1 1-1-1z" style="fill:#5ba359;stroke:none"/><path d="M495 829c1.139 1.015 1.612 1.309 3 2-1.223-1.195-1.42-1.316-3-2z" style="fill:#131e18;stroke:none"/><path d="m497 829 1 1-1-1z" style="fill:#5ba359;stroke:none"/><path d="m589 829 1 1-1-1z" style="fill:#424a52;stroke:none"/><path d="m751 829 1 1-1-1z" style="fill:#5ba359;stroke:none"/><path d="M417 830c1.393 1.434 2.233 2.045 4 3-1.45-1.608-2.051-2.064-4-3z" style="fill:#131e18;stroke:none"/><path d="m457 830 1 1-1-1m89 0 1 1-1-1m2 0 1 1-1-1z" style="fill:#5ba359;stroke:none"/><path d="m665 830 1 1-1-1z" style="fill:#424a52;stroke:none"/><path d="m753 830 1 1-1-1m-333 1 1 1-1-1z" style="fill:#5ba359;stroke:none"/><path d="M498 831c1.139 1.015 1.612 1.309 3 2-1.223-1.195-1.42-1.316-3-2z" style="fill:#131e18;stroke:none"/><path d="m500 831 1 1-1-1z" style="fill:#5ba359;stroke:none"/><path d="m588 831 1 1-1-1z" style="fill:#424a52;stroke:none"/><path d="m279 832 1 1-1-1m176 0 1 1-1-1z" style="fill:#131e18;stroke:none"/><path d="m549 832 1 1-1-1z" style="fill:#424a52;stroke:none"/><path d="m666 832 1 1-1-1z" style="fill:#5ba359;stroke:none"/><path d="m280 833 3 9c1.263-3.653-.39-6.385-3-9z" style="fill:#131e18;stroke:none"/><path d="m453 833-1 2c1.263-.971 1.392-.694 1-2z" style="fill:#5ba359;stroke:none"/><path d="m454 833 1 1-1-1m47 0c1.549 2.136 2.864 3.451 5 5-1.324-2.687-2.313-3.676-5-5z" style="fill:#131e18;stroke:none"/><path d="m645 833 1 1-1-1z" style="fill:#5ba359;stroke:none"/><path d="M756 833v2h2c-.545-1.635-.365-1.455-2-2m-334 1 1 1-1-1m31 0 1 1-1-1z" style="fill:#131e18;stroke:none"/><path d="m550 834 1 1-1-1z" style="fill:#5ba359;stroke:none"/><path d="m587 834 1 1-1-1z" style="fill:#131e18;stroke:none"/><path d="M606 834v18c1.952-4.651 1.952-13.349 0-18m-324 1 1 1-1-1z" style="fill:#5ba359;stroke:none"/><path d="m423 835 1 3c.401-1.766.289-1.557-1-3z" style="fill:#131e18;stroke:none"/><path d="m424 835 1 1-1-1z" style="fill:#5ba359;stroke:none"/><path d="m452 835 1 1-1-1z" style="fill:#131e18;stroke:none"/><path d="m667 835 1 1-1-1z" style="fill:#424a52;stroke:none"/><path d="m758 835 1 4c.393-1.924.146-2.359-1-4m-307 1-1 2c1.263-.971 1.392-.694 1-2z" style="fill:#131e18;stroke:none"/><path d="m551 836 1 1-1-1z" style="fill:#5ba359;stroke:none"/><path d="M586.333 836.667c-.055.055-.111 1.111.334.666.055-.055.111-1.111-.334-.666z" style="fill:#131e18;stroke:none"/><path d="m759 836 1 1-1-1z" style="fill:#5ba359;stroke:none"/><path d="M457 874c.621-4.305-1.216-8.59-.826-13 1.231-13.907 11.292-22.417 24.826-23-3.55-1.476-7.419-.768-11 .559-14.062 5.213-17.809 22.601-13 35.441z" style="fill:#131e18;stroke:none"/><path d="m668 837 1 1-1-1z" style="fill:#5ba359;stroke:none"/><path d="M245 838c6.393 2.682 15.043-1.477 20.941 2.603 5.161 3.57 4.451 10.319-.985 13.218C259.247 856.866 249.326 855 243 855c5.327 2.235 18.705 2.523 23.891-.318 5.121-2.806 5.498-11.451.881-14.94C262.584 835.822 251.204 838 245 838m72 0v18h32c-8.367-3.511-21.924-1-31-1 0-5.362 1.087-12.026-1-17z" style="fill:#131e18;stroke:none"/><path d="m351 838 1 1-1-1z" style="fill:#424a52;stroke:none"/><path d="M413 855c-9.055 5.37-18.757 4-29 4v-20h22c-3.166-1.328-6.581-1-10-1-3.121 0-8.779-1.046-11.397 1.028-2.915 2.308-2.797 16.563-.575 19.369 1.863 2.353 6.355 1.602 8.972 1.603 7.099.003 16.028 2.079 20-5m12-17 1 1-1-1m24 0 1 1-1-1z" style="fill:#131e18;stroke:none"/><path d="m475 838 1 1-1-1z" style="fill:#424a52;stroke:none"/><path d="M476 838.554c-28.426 3.169-24.987 50.996 5 47.261 26.666-3.321 23.017-50.385-5-47.261z" style="fill:#fdfdfd;stroke:none"/><path d="M479.667 838.333c-.445.445.611.389.666.334.445-.445-.611-.389-.666-.334z" style="fill:#5ba359;stroke:none"/><path d="M482 838c1.969 1.063 3.798 1.532 6 2-2.042-1.416-3.511-1.745-6-2m24 0c2.042 4.74 4.541 9.007 6 14 1.495-5.069-2.254-10.789-6-14z" style="fill:#131e18;stroke:none"/><path d="m507 838 1 1-1-1m45 0 1 1-1-1z" style="fill:#5ba359;stroke:none"/><path d="M585.333 838.667c-.055.055-.111 1.111.334.666.055-.055.111-1.111-.334-.666z" style="fill:#131e18;stroke:none"/><path d="m643 838 1 1-1-1z" style="fill:#424a52;stroke:none"/><path d="M718 838v20c2.087-4.973 2.087-15.027 0-20m2 0c5.959 2.5 14.564 1 21 1-5.959-2.5-14.564-1-21-1m73 0v16h2c-.114-5.534-1.302-10.516 0-16h-2z" style="fill:#131e18;stroke:none"/><path d="M244 839v16c6.511 0 15.922 1.689 21.811-1.573 5.11-2.83 5.233-10.347.08-13.248C260.362 837.066 250.193 839 244 839z" style="fill:#fdfdfd;stroke:none"/><path d="m265 839 1 1-1-1z" style="fill:#424a52;stroke:none"/><path d="M384 839v20c7.142 0 18.498 2.142 24.891-1.457 6.342-3.569 5.038-13.9-.935-17.086C401.575 837.054 391.047 839 384 839z" style="fill:#fdfdfd;stroke:none"/><path d="M448 839c-3.161 5.417-5.485 10.698-6 17 2.363-3.867 6.633-12.666 6-17z" style="fill:#131e18;stroke:none"/><path d="m470 839 1 1-1-1z" style="fill:#424a52;stroke:none"/><path d="m471 839 1 1-1-1m14 0 1 1-1-1m234 0v20c2.087-4.973 2.087-15.027 0-20z" style="fill:#5ba359;stroke:none"/><path d="M720 839v20c6.733 0 16.831 1.862 22.956-1.318 6.595-3.424 6.453-13.656-.061-17.109C736.639 837.256 726.87 839 720 839z" style="fill:#fdfdfd;stroke:none"/><path d="m740 839 1 1-1-1z" style="fill:#5ba359;stroke:none"/><path d="M742 839c1.139 1.015 1.612 1.309 3 2-1.223-1.195-1.42-1.316-3-2m18 0 1 7c1.078-2.773.663-4.565-1-7m-517 1v14c1.667-3.972 1.667-10.028 0-14z" style="fill:#131e18;stroke:none"/><path d="m408 840 1 1-1-1z" style="fill:#5ba359;stroke:none"/><path d="m410 840 1 1-1-1m16.333.667c-.055.055-.111 1.111.334.666.055-.055.111-1.111-.334-.666z" style="fill:#131e18;stroke:none"/><path d="m468 840 1 1-1-1z" style="fill:#5ba359;stroke:none"/><path d="M488 840c1.139 1.015 1.612 1.309 3 2-1.223-1.195-1.42-1.316-3-2z" style="fill:#131e18;stroke:none"/><path d="m553 840 1 1-1-1z" style="fill:#424a52;stroke:none"/><path d="M584 840c-3.122 5.349-6.282 11.036-8 17 3.39-3.751 8.855-11.864 8-17z" style="fill:#131e18;stroke:none"/><path d="m642 840 1 1-1-1z" style="fill:#5ba359;stroke:none"/><path d="m669 840 1 1-1-1z" style="fill:#424a52;stroke:none"/><path d="m743 840 1 1-1-1m18 0 1 1-1-1m-334 1 1 1-1-1z" style="fill:#5ba359;stroke:none"/><path d="m466 841 1 1-1-1z" style="fill:#424a52;stroke:none"/><path d="m489 841 1 1-1-1m20 0 1 1-1-1z" style="fill:#5ba359;stroke:none"/><path d="m745 841 1 1-1-1z" style="fill:#131e18;stroke:none"/><path d="m465 842 1 1-1-1z" style="fill:#5ba359;stroke:none"/><path d="M491 842c2.494 3.663 5.204 6.915 7 11 1.037-5.036-2.721-8.955-7-11m14.333.667c-.055.055-.111 1.111.334.666.055-.055.111-1.111-.334-.666z" style="fill:#131e18;stroke:none"/><path d="m554 842 1 1-1-1m116 0 1 1-1-1z" style="fill:#424a52;stroke:none"/><path d="M746 842c1.489 4.086 1.988 7.663 2 12 1.777-4.236 1.128-8.662-2-12z" style="fill:#131e18;stroke:none"/><path d="m269 843 1 1-1-1z" style="fill:#424a52;stroke:none"/><path d="M284 843c-.279 6.393-2.682 11.193-5 17 4.559-3.921 7.422-11.174 5-17m128 0c1.039 3.81 1.326 7.068 1 11 2.582-3.801 1.951-7.606-1-11m15 0c0 8.015-1.326 13.525-4 21 4.996-4.987 6.756-14.432 4-21z" style="fill:#131e18;stroke:none"/><path d="m445 843 1 1-1-1m65 0 1 1-1-1z" style="fill:#5ba359;stroke:none"/><path d="M531 843v56h14c-3.959-1.661-8.737-1-13-1v-37c0-5.619 1.189-12.784-1-18z" style="fill:#131e18;stroke:none"/><path d="m746 843 1 1-1-1m16 0v3c.696-1.554.696-1.446 0-3z" style="fill:#5ba359;stroke:none"/><path d="m412 844 1 1-1-1m143 0 1 1-1-1z" style="fill:#424a52;stroke:none"/><path d="m654 844-3 10c2.421-2.936 4.3-6.242 3-10z" style="fill:#131e18;stroke:none"/><path d="m656 844-1 2c1.263-.971 1.392-.694 1-2m15 0 1 1-1-1m-227 1 1 1-1-1m67 0 1 1-1-1z" style="fill:#5ba359;stroke:none"/><path d="m640 845 1 1-1-1z" style="fill:#424a52;stroke:none"/><path d="M656 845c-4.401 8.264-8.427 17.999-11 27h22c-2.009-8.476-5.74-20.042-11-27z" style="fill:#fdfdfd;stroke:none"/><path d="M657 845c2.541 8.888 7.032 17.228 10 26 .892-3.25-.733-5.943-1.989-9-2.31-5.623-3.915-12.448-8.011-17z" style="fill:#131e18;stroke:none"/><path d="m747 845 1 1-1-1m-319 1v6c.951-2.285.951-3.715 0-6z" style="fill:#5ba359;stroke:none"/><path d="m556 846 1 1-1-1m-96 1 1 1-1-1z" style="fill:#424a52;stroke:none"/><path d="m495 847 1 1-1-1z" style="fill:#5ba359;stroke:none"/><path d="m762 847-2 13c2.621-3.679 3.769-8.745 2-13z" style="fill:#131e18;stroke:none"/><path d="M413 848v3c.696-1.554.696-1.446 0-3z" style="fill:#5ba359;stroke:none"/><path d="m512 848 1 1-1-1m45 0 1 1-1-1z" style="fill:#424a52;stroke:none"/><path d="m579 848 1 1-1-1m-120 1 1 1-1-1z" style="fill:#5ba359;stroke:none"/><path d="M593 849v50h14v-47c-1.875 4.469-1 10.191-1 15v31h-12v-33c0-5.08.981-11.28-1-16z" style="fill:#131e18;stroke:none"/><path d="m658 849 1 1-1-1m15 0 1 1-1-1z" style="fill:#5ba359;stroke:none"/><path d="m284 850 1 1-1-1z" style="fill:#424a52;stroke:none"/><path d="M553.333 850.667c-.055.055-.111 1.111.334.666.055-.055.111-1.111-.334-.666z" style="fill:#131e18;stroke:none"/><path d="m558 850 1 1-1-1z" style="fill:#424a52;stroke:none"/><path d="m578 850 1 1-1-1m14 0 1 1-1-1z" style="fill:#5ba359;stroke:none"/><path d="m638 850 1 1-1-1z" style="fill:#424a52;stroke:none"/><path d="m653 850 1 1-1-1m-385 1 1 1-1-1m16 0 1 1-1-1m158 0 1 1-1-1m16 0 1 1-1-1m39 0 1 1-1-1m16 0 1 1-1-1z" style="fill:#5ba359;stroke:none"/><path d="M546 851c2.476 8.596 7.497 17.286 12 25 .44-3.014-1.194-5.301-2.576-8-2.91-5.683-5.315-12.088-9.424-17m44 0c-2.422 5.789-6.134 10.999-8 17 3.669-3.63 8.878-11.729 8-17z" style="fill:#131e18;stroke:none"/><path d="m659 851 1 1-1-1m-100 1 1 1-1-1z" style="fill:#424a52;stroke:none"/><path d="m577 852 1 1-1-1m15 0v47c1.552-3.699 1-8.017 1-12v-22c0-4.26.661-9.041-1-13m45 0 1 1-1-1z" style="fill:#5ba359;stroke:none"/><path d="m652 852 1 1-1-1m22 0 1 1-1-1m-408 1 1 1-1-1m191 0 1 1-1-1z" style="fill:#424a52;stroke:none"/><path d="M513 853v19c2.02-4.813 2.02-14.187 0-19z" style="fill:#131e18;stroke:none"/><path d="m546 853 1 1-1-1m44 0 1 1-1-1m-326.333 1.333c-.445.445.611.389.666.334.445-.445-.611-.389-.666-.334M283 854l1 1-1-1m158.333.667c-.055.055-.111 1.111.334.666.055-.055.111-1.111-.334-.666M457 854l1 1-1-1m41 0 1 1-1-1z" style="fill:#5ba359;stroke:none"/><path d="M499 854c.288 6.716-.139 12.332-1 19 3.615-5.203 3.966-13.421 1-19z" style="fill:#131e18;stroke:none"/><path d="m560 854 1 1-1-1z" style="fill:#424a52;stroke:none"/><path d="m576 854 1 1-1-1m84 0 1 1-1-1m15 0 1 1-1-1m87.333.667c-.055.055-.111 1.111.334.666.055-.055.111-1.111-.334-.666z" style="fill:#5ba359;stroke:none"/><path d="M544 855v42c3.407-8.118 1-21.203 1-30 0-3.983.552-8.301-1-12z" style="fill:#131e18;stroke:none"/><path d="m547 855 1 1-1-1m42 0 1 1-1-1z" style="fill:#5ba359;stroke:none"/><path d="m636 855 1 1-1-1z" style="fill:#424a52;stroke:none"/><path d="M650 855c-1.919 5.671-4.952 11.102-6 17 3.033-4.012 7.042-11.964 6-17z" style="fill:#131e18;stroke:none"/><path d="m651 855 1 1-1-1m95 0-1 2c1.263-.971 1.392-.694 1-2z" style="fill:#5ba359;stroke:none"/><path d="M747 855c-7.478 5.969-17.897 4-27 4 5.547 2.328 15.017 1.562 20.999.891 3.153-.353 6.078-1.54 6.001-4.891m47 0c8.128 3.411 21.186 1 30 1v10h-28v2h29v-13h-31z" style="fill:#131e18;stroke:none"/><path d="M825 855v13c1.591-3.791 1.591-9.209 0-13z" style="fill:#424a52;stroke:none"/><path d="m282 856 1 1-1-1m145 0 1 1-1-1m87 0v4c.71-1.76.71-2.24 0-4m61 0 1 1-1-1z" style="fill:#5ba359;stroke:none"/><path d="m661 856 1 1-1-1z" style="fill:#424a52;stroke:none"/><path d="m676 856 1 1-1-1m-267 1 1 1-1-1m139 0 1 1-1-1m40 0 1 1-1-1z" style="fill:#5ba359;stroke:none"/><path d="m635 857 1 1-1-1m15 0 1 1-1-1z" style="fill:#424a52;stroke:none"/><path d="M673.333 857.667c-.055.055-.111 1.111.334.666.055-.055.111-1.111-.334-.666z" style="fill:#131e18;stroke:none"/><path d="m744 857 1 1-1-1z" style="fill:#424a52;stroke:none"/><path d="m407 858 1 1-1-1m49.333.667c-.055.055-.111 1.111.334.666.055-.055.111-1.111-.334-.666z" style="fill:#5ba359;stroke:none"/><path d="m562 858 1 1-1-1z" style="fill:#424a52;stroke:none"/><path d="m574 858 1 1-1-1z" style="fill:#5ba359;stroke:none"/><path d="m575 858 1 1-1-1m101.333.667c-.055.055-.111 1.111.334.666.055-.055.111-1.111-.334-.666z" style="fill:#131e18;stroke:none"/><path d="m741 858 1 1-1-1z" style="fill:#5ba359;stroke:none"/><path d="m742 858 1 1-1-1z" style="fill:#424a52;stroke:none"/><path d="m761 858 1 1-1-1m-335 1 1 1-1-1z" style="fill:#5ba359;stroke:none"/><path d="M441 859c.005 6.928.903 13.386 3 20 1.485-4.89-.962-15.276-3-20z" style="fill:#131e18;stroke:none"/><path d="M499 859v6c.951-2.285.951-3.715 0-6z" style="fill:#424a52;stroke:none"/><path d="m549 859 1 1-1-1z" style="fill:#5ba359;stroke:none"/><path d="M574.333 859.667c-.055.055-.111 1.111.334.666.055-.055.111-1.111-.334-.666z" style="fill:#131e18;stroke:none"/><path d="m587 859 1 1-1-1m47 0 1 1-1-1m28 0 1 1-1-1z" style="fill:#5ba359;stroke:none"/><path d="M514 860v8c1.161-2.77 1.161-5.23 0-8m49 0 1 1-1-1z" style="fill:#424a52;stroke:none"/><path d="m649 860 1 1-1-1z" style="fill:#5ba359;stroke:none"/><path d="M677.333 860.667c-.055.055-.111 1.111.334.666.055-.055.111-1.111-.334-.666M759 860l-6 8c3.324-1.767 6.544-3.933 6-8m-351.333 1.333c-.445.445.611.389.666.334.445-.445-.611-.389-.666-.334z" style="fill:#131e18;stroke:none"/><path d="m425 861 1 1-1-1m125 0 1 1-1-1z" style="fill:#5ba359;stroke:none"/><path d="m573 861 1 1-1-1z" style="fill:#131e18;stroke:none"/><path d="m586 861 1 1-1-1z" style="fill:#5ba359;stroke:none"/><path d="m663 861 1 1-1-1z" style="fill:#424a52;stroke:none"/><path d="m678 861 1 1-1-1z" style="fill:#5ba359;stroke:none"/><path d="m278 862 1 1-1-1z" style="fill:#131e18;stroke:none"/><path d="m564 862 1 1-1-1m69 0 1 1-1-1m15 0 1 1-1-1m111 0 1 1-1-1z" style="fill:#424a52;stroke:none"/><path d="m279 863 1 1-1-1z" style="fill:#131e18;stroke:none"/><path d="m551 863 1 1-1-1z" style="fill:#5ba359;stroke:none"/><path d="M572.333 863.667c-.055.055-.111 1.111.334.666.055-.055.111-1.111-.334-.666z" style="fill:#131e18;stroke:none"/><path d="m585 863 1 1-1-1z" style="fill:#5ba359;stroke:none"/><path d="m678 863 1 1-1-1m-398 1c1.549 2.136 2.864 3.451 5 5-1.324-2.687-2.313-3.676-5-5m142 0 1 1-1-1z" style="fill:#131e18;stroke:none"/><path d="m632 864 1 1-1-1m32 0 1 1-1-1z" style="fill:#5ba359;stroke:none"/><path d="m421 865 1 1-1-1z" style="fill:#131e18;stroke:none"/><path d="m530 865 1 1-1-1m22 0 1 1-1-1m14 0 1 1-1-1z" style="fill:#5ba359;stroke:none"/><path d="M571.333 865.667c-.055.055-.111 1.111.334.666.055-.055.111-1.111-.334-.666z" style="fill:#131e18;stroke:none"/><path d="m647 865 1 1-1-1z" style="fill:#5ba359;stroke:none"/><path d="m679 865 2 7c.797-2.889-.164-4.692-2-7m-259 1 1 1-1-1z" style="fill:#131e18;stroke:none"/><path d="M530 866v33c2.701-6.436 1-16.049 1-23 0-3.419.328-6.834-1-10m135 0 1 1-1-1z" style="fill:#424a52;stroke:none"/><path d="m680 866 1 1-1-1z" style="fill:#5ba359;stroke:none"/><path d="M245 867c8.144 3.417 24.189-3.776 27.566 8.01.55 1.917.416 4.021.434 5.99 2.087-4.986.357-11.139-5.015-13.258-6.402-2.524-16.166-.742-22.985-.742m72 0v18c1.952-4.651 1.952-13.349 0-18m101.667.333c-.445.445.611.389.666.334.445-.445-.611-.389-.666-.334z" style="fill:#131e18;stroke:none"/><path d="m456 867 1 1-1-1m97 0 1 1-1-1m14 0 1 1-1-1z" style="fill:#5ba359;stroke:none"/><path d="M570.333 867.667c-.055.055-.111 1.111.334.666.055-.055.111-1.111-.334-.666z" style="fill:#131e18;stroke:none"/><path d="m646 867 1 1-1-1z" style="fill:#424a52;stroke:none"/><path d="m754 867 1 1-1-1z" style="fill:#5ba359;stroke:none"/><path d="M244 868v18c7.347 0 18.095 1.926 24.786-1.653 6.517-3.485 4.427-13.148-1.801-15.605-6.402-2.524-16.166-.742-22.985-.742z" style="fill:#fdfdfd;stroke:none"/><path d="m267 868 1 1-1-1z" style="fill:#424a52;stroke:none"/><path d="M441 868v3c.696-1.554.696-1.446 0-3z" style="fill:#5ba359;stroke:none"/><path d="M581.333 868.667c-.055.055-.111 1.111.334.666.055-.055.111-1.111-.334-.666M243 869v16c1.812-4.319 1.812-11.681 0-16m42 0 1 6c.889-2.508.495-3.815-1-6m129.667.333c-.445.445.611.389.666.334.445-.445-.611-.389-.666-.334z" style="fill:#131e18;stroke:none"/><path d="m498 869 1 1-1-1m56 0 1 1-1-1m14 0 1 1-1-1z" style="fill:#5ba359;stroke:none"/><path d="m630 869 1 1-1-1z" style="fill:#424a52;stroke:none"/><path d="m666 869 1 1-1-1z" style="fill:#5ba359;stroke:none"/><path d="m750 869 1 1-1-1z" style="fill:#424a52;stroke:none"/><path d="m270 870 1 1-1-1z" style="fill:#5ba359;stroke:none"/><path d="M580.333 870.667c-.055.055-.111 1.111.334.666.055-.055.111-1.111-.334-.666z" style="fill:#131e18;stroke:none"/><path d="m643 870 1 1-1-1m105.333.667c-.055.055-.111 1.111.334.666.055-.055.111-1.111-.334-.666M271 871l1 1-1-1m186 0 1 1-1-1m98 0 1 1-1-1z" style="fill:#5ba359;stroke:none"/><path d="M399 872c.684 1.58.805 1.777 2 3-.684-1.58-.805-1.777-2-3m14 0c2.462 4.948 5.907 9.416 9 14 .42-4.882-4.949-11.543-9-14z" style="fill:#131e18;stroke:none"/><path d="m457 872 1 1-1-1z" style="fill:#424a52;stroke:none"/><path d="m497 872 1 1-1-1z" style="fill:#5ba359;stroke:none"/><path d="M512 872v3c.696-1.554.696-1.446 0-3m67 0c-1.676 4.026-3.79 7.799-5 12 2.623-3.165 5.696-7.82 5-12m66 0c6.202 2.603 15.298 1 22 1-6.202-2.603-15.298-1-22-1m37 0 1 5c.651-2.234.318-3.074-1-5z" style="fill:#131e18;stroke:none"/><path d="M719 872v26c2.477-5.903 2.477-20.097 0-26m-447 1 1 1-1-1m143 0 1 1-1-1m268 0 1 1-1-1m-241 1 1 1-1-1z" style="fill:#5ba359;stroke:none"/><path d="m497 874 1 1-1-1z" style="fill:#131e18;stroke:none"/><path d="m579 874 1 1-1-1z" style="fill:#5ba359;stroke:none"/><path d="m628 874 1 1-1-1z" style="fill:#424a52;stroke:none"/><path d="m734 874 1 1-1-1z" style="fill:#5ba359;stroke:none"/><path d="m750 874 1 1-1-1z" style="fill:#424a52;stroke:none"/><path d="m400 875 1 1-1-1z" style="fill:#5ba359;stroke:none"/><path d="M458 875c.406 2.092.217 2.02 2 3-.691-1.388-.985-1.861-2-3m53 0-1 5c1.318-1.926 1.651-2.766 1-5m-108.667 1.667c-.055.055-.111 1.111.334.666.055-.055.111-1.111-.334-.666z" style="fill:#131e18;stroke:none"/><path d="m417 876 1 1-1-1z" style="fill:#5ba359;stroke:none"/><path d="m459 876 1 1-1-1z" style="fill:#424a52;stroke:none"/><path d="m495 876 1 1-1-1z" style="fill:#5ba359;stroke:none"/><path d="m496 876 1 1-1-1m63.333.667c-.055.055-.111 1.111.334.666.055-.055.111-1.111-.334-.666z" style="fill:#131e18;stroke:none"/><path d="m578 876 1 1-1-1m49 0 1 1-1-1z" style="fill:#5ba359;stroke:none"/><path d="M287.333 877.667c-.055.055-.111 1.111.334.666.055-.055.111-1.111-.334-.666z" style="fill:#131e18;stroke:none"/><path d="m443 877 1 1-1-1z" style="fill:#5ba359;stroke:none"/><path d="M495 877c-1.584 2.012-2.967 3.46-5 5 3.084.07 5.07-1.916 5-5m189 0 2 7c.797-2.889-.164-4.692-2-7z" style="fill:#131e18;stroke:none"/><path d="m736 877 1 1-1-1z" style="fill:#5ba359;stroke:none"/><path d="m752 877 1 1-1-1z" style="fill:#424a52;stroke:none"/><path d="M403 878c1.185 3.057 2.482 4.904 5 7-1.343-2.815-2.708-4.889-5-7m57 0c1.103 2.922 2.079 3.897 5 5a28.171 28.171 0 0 0-5-5z" style="fill:#131e18;stroke:none"/><path d="m511 878 1 1-1-1m66 0 1 1-1-1m108 0 1 1-1-1m-266 1 1 1-1-1z" style="fill:#5ba359;stroke:none"/><path d="M445.333 879.667c-.055.055-.111 1.111.334.666.055-.055.111-1.111-.334-.666z" style="fill:#131e18;stroke:none"/><path d="m493 879 1 1-1-1z" style="fill:#424a52;stroke:none"/><path d="m560 879 1 1-1-1z" style="fill:#131e18;stroke:none"/><path d="m272 880 1 1-1-1z" style="fill:#5ba359;stroke:none"/><path d="m462 880 1 1-1-1m30 0 1 1-1-1z" style="fill:#424a52;stroke:none"/><path d="m509 880-2 5c1.693-1.782 2.375-2.581 2-5m52 0 1 4c.393-1.924.146-2.36-1-4z" style="fill:#131e18;stroke:none"/><path d="m576 880 1 1-1-1m110 0 1 1-1-1m52 0 1 1-1-1z" style="fill:#5ba359;stroke:none"/><path d="m754 880 1 1-1-1z" style="fill:#424a52;stroke:none"/><path d="m404 881 1 1-1-1z" style="fill:#5ba359;stroke:none"/><path d="M446 881c.547 1.875 1.11 3.255 2 5 .242-2.329-.446-3.218-2-5z" style="fill:#131e18;stroke:none"/><path d="m491 881 1 1-1-1z" style="fill:#424a52;stroke:none"/><path d="m625 881 1 1-1-1m130 0 1 1-1-1m-484 1 1 1-1-1m150 0 1 1-1-1m71 0 1 1-1-1m17 0 1 1-1-1m52 0 1 1-1-1m14 0 1 1-1-1z" style="fill:#5ba359;stroke:none"/><path d="M640 882c3.699 1.552 8.017 1 12 1h21c-3.699-1.552-8.017-1-12-1h-21z" style="fill:#131e18;stroke:none"/><path d="m287 883 1 1-1-1m135 0 1 1-1-1m24 0 1 1-1-1z" style="fill:#5ba359;stroke:none"/><path d="m465 883 1 1-1-1z" style="fill:#131e18;stroke:none"/><path d="m488 883 1 1-1-1z" style="fill:#5ba359;stroke:none"/><path d="m489 883 1 1-1-1z" style="fill:#131e18;stroke:none"/><path d="m624 883 1 1-1-1z" style="fill:#5ba359;stroke:none"/><path d="m673 883 1 5c.651-2.234.318-3.074-1-5z" style="fill:#131e18;stroke:none"/><path d="m740 883 1 1-1-1m-471 1 1 1-1-1z" style="fill:#5ba359;stroke:none"/><path d="m270 884 1 1-1-1z" style="fill:#131e18;stroke:none"/><path d="m406 884 1 1-1-1m62 0 1 1-1-1m18 0 1 1-1-1z" style="fill:#5ba359;stroke:none"/><path d="M487.667 884.333c-.445.445.611.389.666.334.445-.445-.611-.389-.666-.334z" style="fill:#131e18;stroke:none"/><path d="m508 884 1 1-1-1m66 0 1 1-1-1z" style="fill:#5ba359;stroke:none"/><path d="m638 884-1 5c1.318-1.926 1.651-2.766 1-5m49.333.667c-.055.055-.111 1.111.334.666.055-.055.111-1.111-.334-.666z" style="fill:#131e18;stroke:none"/><path d="m757 884 1 1-1-1m-492 1c1.248.685 1.548.749 3 1-1.248-.685-1.548-.749-3-1z" style="fill:#5ba359;stroke:none"/><path d="M268.667 885.333c-.445.445.611.389.666.334.445-.445-.611-.389-.666-.334M408 885c1.219 3.816 2.916 6.444 6 9-1.59-3.401-3.301-6.384-6-9z" style="fill:#131e18;stroke:none"/><path d="m447 885 1 1-1-1z" style="fill:#5ba359;stroke:none"/><path d="M468 885c3 2.085 6.401 2.535 10 3-3.078-1.88-6.442-2.52-10-3z" style="fill:#131e18;stroke:none"/><path d="m471 885 1 1-1-1m12 0 1 1-1-1z" style="fill:#5ba359;stroke:none"/><path d="M479 886c2.807 1.146 5.071.692 8 0-2.646-.815-5.226-.213-8 0m27-1c-.957 1.517-1.387 2.339-2 4 1.63-1.515 2.163-1.855 2-4m57 0c2.12 5.061 7.626 6.905 10 1-4.174 2.951-6.148 1.959-10-1m10 0 1 1-1-1z" style="fill:#131e18;stroke:none"/><path d="m688 885 1 1-1-1z" style="fill:#5ba359;stroke:none"/><path d="M243 886c6.687 2.806 16.767 1 24 1-6.687-2.806-16.767-1-24-1z" style="fill:#131e18;stroke:none"/><path d="m286 886 1 1-1-1z" style="fill:#424a52;stroke:none"/><path d="m423 886 3 6c.41-2.888-.847-4.115-3-6z" style="fill:#131e18;stroke:none"/><path d="m424 886 1 1-1-1z" style="fill:#5ba359;stroke:none"/><path d="M449 886c1.649 3.502 3.499 5.351 7 7-2.04-2.88-4.12-4.96-7-7z" style="fill:#131e18;stroke:none"/><path d="m475 886 1 1-1-1z" style="fill:#424a52;stroke:none"/><path d="M476.667 886.333c-.445.445.611.389.666.334.445-.445-.611-.389-.666-.334z" style="fill:#5ba359;stroke:none"/><path d="m623 886 1 1-1-1z" style="fill:#424a52;stroke:none"/><path d="m673 886 1 1-1-1m69 0 1 1-1-1z" style="fill:#5ba359;stroke:none"/><path d="M830 886v13c1.591-3.791 1.591-9.209 0-13z" style="fill:#424a52;stroke:none"/><path d="m408 887 1 1-1-1m230 0 1 1-1-1z" style="fill:#5ba359;stroke:none"/><path d="m688 887 2 6c.542-2.664-.228-3.972-2-6z" style="fill:#131e18;stroke:none"/><path d="m759 887 1 1-1-1m-195 1 1 1-1-1m8 0 1 1-1-1m50 0 1 1-1-1z" style="fill:#5ba359;stroke:none"/><path d="m675 888 1 5c.651-2.234.318-3.074-1-5z" style="fill:#131e18;stroke:none"/><path d="m426 889 1 1-1-1z" style="fill:#5ba359;stroke:none"/><path d="m503 889 1 1-1-1z" style="fill:#131e18;stroke:none"/><path d="m744 889 1 1-1-1m-460 1 1 1-1-1m126 0 1 1-1-1z" style="fill:#5ba359;stroke:none"/><path d="m636 890-1 4c1.146-1.64 1.393-2.076 1-4z" style="fill:#131e18;stroke:none"/><path d="m637 890 1 1-1-1m53 0 1 1-1-1m71 0 1 1-1-1z" style="fill:#5ba359;stroke:none"/><path d="m283 891 1 1-1-1z" style="fill:#424a52;stroke:none"/><path d="M500.667 891.333c-.445.445.611.389.666.334.445-.445-.611-.389-.666-.334z" style="fill:#131e18;stroke:none"/><path d="m675 891 1 1-1-1z" style="fill:#5ba359;stroke:none"/><path d="m282 892 1 1-1-1z" style="fill:#424a52;stroke:none"/><path d="m427 892 3 6h-14c4.974 2.087 11.638 1 17 1-1.745-2.777-3.457-4.935-6-7z" style="fill:#131e18;stroke:none"/><path d="m428 892 1 1-1-1z" style="fill:#5ba359;stroke:none"/><path d="m499 892-2 1c1.453.555 2.076.604 2-1z" style="fill:#131e18;stroke:none"/><path d="m636 892 1 1-1-1m55 0 1 1-1-1m55 0 1 1-1-1z" style="fill:#5ba359;stroke:none"/><path d="m281 893 1 1-1-1z" style="fill:#424a52;stroke:none"/><path d="m412 893 1 1-1-1z" style="fill:#5ba359;stroke:none"/><path d="m456 893 1 1-1-1z" style="fill:#131e18;stroke:none"/><path d="m499 893 1 1-1-1m121 0 1 1-1-1z" style="fill:#5ba359;stroke:none"/><path d="m677 893 1 6h16l-1-3c-6.144 3.417-11.881 2.566-16-3z" style="fill:#131e18;stroke:none"/><path d="m763 893 1 1-1-1z" style="fill:#424a52;stroke:none"/><path d="M458 894c1.98 1.884 3.31 2.469 6 3-1.949-1.573-3.588-2.291-6-3m38 0c-2.635 1.23-5.196 2.234-8 3 3.33.983 6.001-.428 9-2l-1-1m195.333.667c-.055.055-.111 1.111.334.666.055-.055.111-1.111-.334-.666z" style="fill:#131e18;stroke:none"/><path d="m278 895 1 1-1-1z" style="fill:#5ba359;stroke:none"/><path d="m414 895 1 1-1-1z" style="fill:#131e18;stroke:none"/><path d="m430 895 1 1-1-1m28 0 1 1-1-1m38 0 1 1-1-1m123 0 1 1-1-1m16 0 1 1-1-1m113 0 1 1-1-1m-472 1 1 1-1-1z" style="fill:#5ba359;stroke:none"/><path d="m415 896 1 1-1-1z" style="fill:#131e18;stroke:none"/><path d="m460 896 1 1-1-1m34 0 1 1-1-1m183 0 1 1-1-1m-404 1 1 1-1-1z" style="fill:#5ba359;stroke:none"/><path d="M464 897c1.248.685 1.548.749 3 1-1.248-.685-1.548-.749-3-1z" style="fill:#131e18;stroke:none"/><path d="m491 897 1 1-1-1m143 0 1 1-1-1m59 0 1 1-1-1m73 0 1 1-1-1z" style="fill:#5ba359;stroke:none"/><path d="M266 898c1.248.685 1.548.749 3 1-1.248-.685-1.548-.749-3-1z" style="fill:#424a52;stroke:none"/><path d="m465 898 1 1-1-1z" style="fill:#5ba359;stroke:none"/><path d="M467 898c2.443 1.234 4.279 1.287 7 1-2.332-.985-4.457-.981-7-1m7 1c4.167 1.745 8.622.346 13 0-3.941-1.538-8.771-.035-13 0z" style="fill:#131e18;stroke:none"/><path d="m488 898 1 1-1-1z" style="fill:#5ba359;stroke:none"/><path d="m719 898 1 1-1-1m31 0 1 1-1-1z" style="fill:#424a52;stroke:none"/><path d="m767 898 1 1-1-1z" style="fill:#5ba359;stroke:none"/><path d="m780 898 1 1-1-1z" style="fill:#424a52;stroke:none"/><path d="m470 899 1 1-1-1m12 0c1.248.685 1.548.749 3 1-1.248-.685-1.548-.749-3-1z" style="fill:#5ba359;stroke:none"/></svg>