<?xml version="1.0" encoding="UTF-8"?>
<svg version="1.1" xmlns="http://www.w3.org/2000/svg" width="739" height="649">
<path d="M0 0 C243.87 0 487.74 0 739 0 C739 214.17 739 428.34 739 649 C495.13 649 251.26 649 0 649 C0 434.83 0 220.66 0 0 Z " fill="#FCFCFC" transform="translate(0,0)"/>
<path d="M0 0 C2.43063037 1.49034342 4.86296318 2.97786747 7.2956543 4.46484375 C8.76132166 5.36089911 10.2263325 6.25802926 11.69067383 7.15625 C17.13516615 10.49110205 22.62632813 13.73997289 28.13720703 16.96362305 C34.4105119 20.63879928 40.64432581 24.37809406 46.875 28.125 C59.06887998 35.4547003 71.30365491 42.71392065 83.54882812 49.95751953 C87.07031514 52.04109523 90.59000663 54.12769197 94.109375 56.21484375 C95.28539944 56.91219237 96.46142482 57.60953938 97.63745117 58.30688477 C99.37828623 59.33916024 101.11908731 60.37149274 102.85977173 61.40402222 C110.69764133 66.05364348 110.69764133 66.05364348 118.55859375 70.6640625 C128.26736389 76.32576933 137.8408322 82.19461206 147.40185547 88.10180664 C153.62823715 91.94306406 159.87283516 95.74312044 166.1875 99.4375 C166.85547607 99.8301001 167.52345215 100.2227002 168.21166992 100.62719727 C171.44038861 102.52052976 174.68174869 104.38612099 177.9453125 106.21875 C194.51455367 115.64303738 206.68655187 127.55533955 213 146 C216.25005384 159.22648492 213.22713495 173.17266412 206.9296875 185.015625 C203.29002851 190.6445713 198.74860976 195.299356 194 200 C193.36449219 200.65742188 192.72898437 201.31484375 192.07421875 201.9921875 C185.74553885 208.08231405 177.71290419 211.95335562 170 216 C169.11828125 216.474375 168.2365625 216.94875 167.328125 217.4375 C154.05692259 224.02973126 138.83311995 227.54653795 124.4375 230.75 C123.20338379 231.0294043 123.20338379 231.0294043 121.94433594 231.31445312 C103.63995953 235.19067401 85.36670852 236.64282417 66.6875 236.625 C64.98380753 236.6271904 64.98380753 236.6271904 63.24569702 236.62942505 C21.47026733 236.5571946 -20.11675254 230.26155183 -61.3996582 224.42675781 C-150.85092244 211.81105439 -239.90474337 212.06608044 -374 270 C-374.95390625 270.55445801 -375.9078125 271.10891602 -376.890625 271.68017578 C-390.12099548 279.43070531 -402.79319614 287.72032266 -415 297 C-415.62696777 297.4753418 -416.25393555 297.95068359 -416.89990234 298.44042969 C-425.88692262 305.29156437 -434.47968366 312.58033243 -443 320 C-443 316.68752538 -442.67259917 316.18937049 -440.76171875 313.6640625 C-440.03456665 312.69581543 -440.03456665 312.69581543 -439.29272461 311.70800781 C-438.76300049 311.02061523 -438.23327637 310.33322266 -437.6875 309.625 C-437.14424072 308.91182617 -436.60098145 308.19865234 -436.04125977 307.46386719 C-425.5168514 293.75723461 -413.99356626 280.9371368 -401.8125 268.6875 C-401.25457764 268.12490479 -400.69665527 267.56230957 -400.12182617 266.98266602 C-395.91317837 262.79006527 -391.51322548 258.8611409 -387 255 C-386.0251062 254.16505005 -386.0251062 254.16505005 -385.03051758 253.31323242 C-377.28749134 246.73247659 -369.43266112 240.39528033 -361.0625 234.625 C-360.38251953 234.15481445 -359.70253906 233.68462891 -359.00195312 233.20019531 C-354.26362294 230 -354.26362294 230 -352 230 C-352.00999275 229.07610474 -352.00999275 229.07610474 -352.02018738 228.13354492 C-352.08726714 221.64312027 -352.13209735 215.15279621 -352.16479492 208.66210938 C-352.17975429 206.24930818 -352.20012911 203.83653356 -352.22631836 201.42382812 C-352.56501439 169.38716838 -346.44889693 144.01415099 -323.59765625 120.53125 C-313.03371561 110.54735935 -300.47240047 103.5666883 -287.75341797 96.74291992 C-272.36500217 88.47731453 -257.39040484 79.4727178 -242.42822266 70.46435547 C-228.83222672 62.27859651 -215.14836112 54.24156423 -201.4375 46.25 C-200.4587793 45.67942871 -199.48005859 45.10885742 -198.47167969 44.52099609 C-189.63957433 39.37248338 -189.63957433 39.37248338 -185.37158203 36.88671875 C-166.54260438 25.93030818 -166.54260438 25.93030818 -147.9921875 14.51171875 C-140.03165431 9.47718599 -131.950178 4.63423262 -123.89404297 -0.24511719 C-121.09451619 -1.9426875 -118.29903376 -3.64676155 -115.50390625 -5.3515625 C-110.69408982 -8.27727744 -105.86010613 -11.15865446 -101 -14 C-99.93007813 -14.62777344 -98.86015625 -15.25554688 -97.7578125 -15.90234375 C-62.16380984 -35.27691861 -31.18725967 -19.2603093 0 0 Z " fill="#5AA257" transform="translate(454,58)"/>
<path d="M0 0 C0.66 0 1.32 0 2 0 C2.07509829 6.11569647 2.12904247 12.23111469 2.16479492 18.34716797 C2.17972569 20.42045782 2.20007769 22.49371698 2.22631836 24.56689453 C2.4529757 42.9572488 0.30709136 58.41846741 -5.6875 75.9375 C-5.90720459 76.58608978 -6.12690918 77.23467957 -6.35327148 77.90292358 C-9.88483939 88.30073826 -13.746181 98.34672136 -19 108 C-19.37060547 108.68771484 -19.74121094 109.37542969 -20.12304688 110.08398438 C-25.37501705 119.7053141 -31.36543487 128.62893928 -38.04296875 137.31640625 C-38.70614609 138.19310219 -38.70614609 138.19310219 -39.38272095 139.08750916 C-41 141 -41 141 -42.79324341 142.40344238 C-46.42092681 145.49444502 -48.12621609 148.39940173 -48.62550354 153.11643982 C-48.93355685 158.43987969 -48.83737873 163.76082417 -48.76171875 169.08984375 C-48.76094516 171.0779285 -48.7638414 173.06601773 -48.7702179 175.05409241 C-48.7797953 180.28396774 -48.7512404 185.51284856 -48.71105957 190.74255371 C-48.6495909 199.07840568 -48.62996363 207.41398173 -48.64087868 215.75003242 C-48.63683022 218.63539631 -48.60668936 221.51961038 -48.57389832 224.4047699 C-48.45663181 246.69974517 -53.59218013 265.18915018 -69 282 C-69.73734375 282.81855469 -70.4746875 283.63710938 -71.234375 284.48046875 C-84.2400754 298.20628344 -100.44187747 307.49531841 -116.60546875 316.99072266 C-121.76905414 320.04713144 -126.88541908 323.17990814 -132.00500488 326.30914307 C-143.49046982 333.32455664 -155.06421954 340.17883502 -166.6862793 346.96508789 C-176.84051869 352.89508148 -186.93244367 358.92413406 -197 365 C-210.57223801 373.18980981 -224.21738124 381.24324922 -237.92236328 389.20898438 C-242.00653518 391.58574822 -246.08509618 393.97205437 -250.16381836 396.3581543 C-254.13698457 398.67981791 -258.11530526 400.99257252 -262.09375 403.30517578 C-264.97408706 404.98488847 -267.84662361 406.67738974 -270.71875 408.37109375 C-279.88989714 413.74633536 -288.7662078 418.92176171 -299 422 C-300.03898438 422.31453125 -301.07796875 422.6290625 -302.1484375 422.953125 C-325.47452516 429.16588442 -348.20655145 421.87849602 -368.4375 410.25 C-371.97055062 408.18689553 -375.48639547 406.09599199 -379 404 C-380.36493292 403.19759629 -381.73074496 402.39668511 -383.09765625 401.59765625 C-385.78645459 400.02475303 -388.47088802 398.44476347 -391.15234375 396.859375 C-394.88903961 394.65201715 -398.63282132 392.45701065 -402.37890625 390.265625 C-415.38298092 382.65820423 -428.36418517 375.0144965 -441.3125 367.3125 C-453.50303206 360.06287094 -465.72019328 352.86210276 -477.99023438 345.74755859 C-481.25174578 343.85382898 -484.50861591 341.95224274 -487.765625 340.05078125 C-503.03155293 331.15054994 -503.03155293 331.15054994 -518.75390625 323.1015625 C-521 322 -521 322 -522 321 C-522.64063465 315.67960733 -520.98523081 312.67606933 -517.875 308.5625 C-517.21697388 307.66712524 -517.21697388 307.66712524 -516.5456543 306.75366211 C-510.94539265 299.32750092 -504.50567109 292.63026161 -498 286 C-497.40727295 285.39260986 -496.8145459 284.78521973 -496.20385742 284.15942383 C-491.12407975 279.00651612 -485.64280729 274.52370305 -480 270 C-479.24203125 269.36320312 -478.4840625 268.72640625 -477.703125 268.0703125 C-449.96357345 245.01778862 -416.72119551 229.82398445 -382 221 C-380.78441406 220.68933594 -379.56882812 220.37867188 -378.31640625 220.05859375 C-359.00755411 215.54452917 -338.85562297 214.46888138 -319.14596558 212.92364502 C-256.160732 207.93547264 -193.44651288 198.97185561 -136 171 C-134.63560791 170.33726074 -134.63560791 170.33726074 -133.24365234 169.66113281 C-99.4174013 153.04574305 -67.36585246 129.83827501 -44 100 C-43.19820312 99.00355469 -42.39640625 98.00710938 -41.5703125 96.98046875 C-19.19864592 68.90759318 -4.37263033 35.68899228 0 0 Z " fill="#40474F" transform="translate(717,204)"/>
<path d="M0 0 C0.66 0 1.32 0 2 0 C2.05093732 6.26217148 2.08583284 12.52428901 2.10986328 18.78662109 C2.11988705 20.91457109 2.13350961 23.04250744 2.15087891 25.17041016 C2.17528692 28.23864118 2.18651961 31.3066892 2.1953125 34.375 C2.20563507 35.31802979 2.21595764 36.26105957 2.22659302 37.23266602 C2.22753377 42.83954512 1.59345212 47.61865304 0 53 C-0.33 53 -0.66 53 -1 53 C-1 50.36 -1 47.72 -1 45 C-2.65 45 -4.3 45 -6 45 C-5.67 46.65 -5.34 48.3 -5 50 C-4.34 50 -3.68 50 -3 50 C-3.33 50.99 -3.66 51.98 -4 53 C-4.99 53 -5.98 53 -7 53 C-7.845625 53.350625 -8.69125 53.70125 -9.5625 54.0625 C-10.366875 54.371875 -11.17125 54.68125 -12 55 C-12.66 54.67 -13.32 54.34 -14 54 C-12.6453745 49.27069342 -11.21155517 44.57599929 -9.60546875 39.92578125 C-5.12595433 26.93303235 -1.00254422 13.78498299 0 0 Z " fill="#32393F" transform="translate(717,204)"/>
<path d="M0 0 C2.45880344 0.11827156 4.91682335 0.24470795 7.375 0.375 C8.035 0.4059375 8.695 0.436875 9.375 0.46875 C13.85271374 0.71298893 18.25984149 1.16245707 22.70629883 1.74946594 C34.71758085 3.27747433 46.6767867 3.26933756 58.77001953 3.20581055 C62.38971962 3.18742524 66.00916403 3.18530253 69.62890625 3.18554688 C71.96875218 3.18063405 74.30859641 3.17480676 76.6484375 3.16796875 C78.24261002 3.16629951 78.24261002 3.16629951 79.86898804 3.16459656 C86.95432358 3.12037124 93.94824072 2.68511701 101 2 C101 2.66 101 3.32 101 4 C93.45103054 5.8523233 86.30776753 6.28105651 78.5546875 6.23046875 C76.80165817 6.22978142 76.80165817 6.22978142 75.01321411 6.2290802 C72.55079121 6.22607362 70.08836995 6.21823547 67.62597656 6.20581055 C63.90683038 6.18765538 60.18793574 6.18530064 56.46875 6.18554688 C44.27739219 6.16685881 32.1532836 6.02317414 20 5 C20 4.34 20 3.68 20 3 C19.030625 3.350625 18.06125 3.70125 17.0625 4.0625 C12.58510774 5.37452273 8.53674645 4.76126811 4 4 C4 3.01 4 2.02 4 1 C2.68 0.67 1.36 0.34 0 0 Z " fill="#E8F9E5" transform="translate(456,290)"/>
<path d="M0 0 C1.45254871 2.90509742 0.47142151 4.59301401 -0.375 7.6875 C-2.70034826 16.23913123 -3.18246798 24.2324289 -3.31640625 33.05859375 C-3.33718735 34.20288345 -3.35796844 35.34717316 -3.37937927 36.52613831 C-3.44449793 40.16320076 -3.5035839 43.80033231 -3.5625 47.4375 C-3.60572108 49.91081429 -3.6493365 52.38412173 -3.69335938 54.85742188 C-3.80014049 60.90487595 -3.9019753 66.95239799 -4 73 C-5.98 73.99 -5.98 73.99 -8 75 C-7.814375 74.443125 -7.62875 73.88625 -7.4375 73.3125 C-6.92561498 70.60682204 -7.42343384 68.66661851 -8 66 C-7.505 65.505 -7.505 65.505 -7 65 C-6.88810328 63.56422603 -6.84329268 62.12313426 -6.82641602 60.68310547 C-6.80618126 59.30564651 -6.80618126 59.30564651 -6.78553772 57.90036011 C-6.77509933 56.89941315 -6.76466095 55.89846619 -6.75390625 54.8671875 C-6.72094877 52.76041281 -6.68773746 50.65364208 -6.65429688 48.546875 C-6.60699789 45.21584999 -6.56261644 41.88483879 -6.52319336 38.55371094 C-6.48331787 35.34552451 -6.43178838 32.13768227 -6.37890625 28.9296875 C-6.3704921 27.94088593 -6.36207794 26.95208435 -6.35340881 25.93331909 C-6.25807392 20.56439231 -5.72751703 16.08664743 -4 11 C-3.48681493 8.64433797 -3.01882641 6.285162 -2.5625 3.91796875 C-2 2 -2 2 0 0 Z " fill="#E0F9DF" transform="translate(106,215)"/>
<path d="M0 0 C0 0.33 0 0.66 0 1 C-4.62 1 -9.24 1 -14 1 C-14 1.66 -14 2.32 -14 3 C-23.05247558 3.48513837 -32.10359813 3.94461329 -41.1640625 4.25390625 C-42.37022217 4.29523682 -43.57638184 4.33656738 -44.8190918 4.37915039 C-47.20325104 4.45877787 -49.58753126 4.5348735 -51.97192383 4.60717773 C-53.0730249 4.64399658 -54.17412598 4.68081543 -55.30859375 4.71875 C-56.28626709 4.74904297 -57.26394043 4.77933594 -58.27124023 4.81054688 C-60.9275189 4.99496776 -63.39561365 5.4665422 -66 6 C-68.33333333 6 -70.66666667 6 -73 6 C-75.33824592 6.29692012 -77.67377689 6.62020847 -80 7 C-80 6.34 -80 5.68 -80 5 C-53.41681298 1.552752 -26.82019895 -0.5114021 0 0 Z " fill="#EDFEEF" transform="translate(299,273)"/>
<path d="M0 0 C0.99 0 1.98 0 3 0 C1.49184522 4.39260383 -0.8595184 7.95666733 -3.5625 11.6875 C-4.21871338 12.60136475 -4.21871338 12.60136475 -4.88818359 13.53369141 C-8.90157535 19.03352455 -13.29889361 24.07178702 -18 29 C-18 26 -18 26 -16 24 C-15.96811298 21.9911178 -15.94104942 19.97993744 -16.02734375 17.97265625 C-16 16 -16 16 -15 13 C-14.01 12.67 -13.02 12.34 -12 12 C-12 12.66 -12 13.32 -12 14 C-11.01 14.33 -10.02 14.66 -9 15 C-9 13.68 -9 12.36 -9 11 C-7.5 8.25 -7.5 8.25 -6 6 C-6.99 5.67 -7.98 5.34 -9 5 C-6.9375364 4.4843841 -4.90926073 3.9844447 -2.8125 3.625 C-1.9153125 3.315625 -1.9153125 3.315625 -1 3 C-0.67 2.01 -0.34 1.02 0 0 Z " fill="#353C41" transform="translate(686,325)"/>
<path d="M0 0 C0.495 0.99 0.495 0.99 1 2 C3.3140622 2.73075648 5.64828869 3.40138258 8 4 C8.495 5.98 8.495 5.98 9 8 C4.71055615 6.59618201 0.48108699 5.06990558 -3.75 3.5 C-18.17869731 -1.61110594 -31.97138615 -2.49938618 -47 1 C-46.67 0.01 -46.34 -0.98 -46 -2 C-30.501147 -4.83985195 -15.18165705 -4.41302688 0 0 Z " fill="#EAFAE8" transform="translate(420,35)"/>
<path d="M0 0 C0.66 0 1.32 0 2 0 C2.22607056 11.68031211 1.55736816 23.33677472 1 35 C0.34 34.67 -0.32 34.34 -1 34 C-1.66 34 -2.32 34 -3 34 C-5.00669011 27.74053506 -4.98667202 23.82324795 -3.1875 17.5625 C-2.79686014 16.07654612 -2.41009958 14.58956667 -2.02734375 13.1015625 C-1.75253174 12.04437012 -1.75253174 12.04437012 -1.47216797 10.96582031 C-0.59902819 7.33059722 -0.27060644 3.72083857 0 0 Z " fill="#3B4349" transform="translate(717,204)"/>
<path d="M0 0 C4.75 1.875 4.75 1.875 7 3 C-10.96103896 19.48051948 -10.96103896 19.48051948 -16 22 C-14.21317481 17.98466249 -11.67498274 14.55362026 -9.125 11 C-8.69058594 10.38382812 -8.25617187 9.76765625 -7.80859375 9.1328125 C-5.42663367 5.79949899 -3.01399806 2.80371913 0 0 Z " fill="#60A15D" transform="translate(26,356)"/>
<path d="M0 0 C10.90838462 -0.29175472 21.7404924 0.18596403 32.625 0.875 C34.55194702 0.99270752 34.55194702 0.99270752 36.51782227 1.11279297 C45.41572528 1.70322887 54.17936633 2.71925593 63 4 C62.67 4.66 62.34 5.32 62 6 C58.5029592 6.06994082 55.2634108 6.04648426 51.8125 5.4375 C49.09658179 4.82229497 49.09658179 4.82229497 46.875 5.5625 C45 6 45 6 43.25 5.0625 C40.80217599 3.9065831 39.48113325 3.88993078 36.8125 3.9375 C35.554375 3.958125 34.29625 3.97875 33 4 C32.505 3.505 32.505 3.505 32 3 C29.13732433 2.92674832 26.299281 2.90761795 23.4375 2.9375 C22.63119141 2.94201172 21.82488281 2.94652344 20.99414062 2.95117188 C18.99606244 2.96299482 16.99802217 2.98093086 15 3 C15 2.34 15 1.68 15 1 C14.175 1.165 13.35 1.33 12.5 1.5 C8.58727683 2.05896045 4.94816827 2.06807187 1 2 C0.67 1.34 0.34 0.68 0 0 Z " fill="#E8FAE7" transform="translate(300,274)"/>
<path d="M0 0 C0.66 0.33 1.32 0.66 2 1 C1.4375 2.8125 1.4375 2.8125 0 5 C-1.11375 5.474375 -2.2275 5.94875 -3.375 6.4375 C-7.33498571 8.14439039 -8.47134826 9.62846435 -11 13 C-13.3125 14.5625 -13.3125 14.5625 -16 16 C-23.97795767 20.33601716 -23.97795767 20.33601716 -31 26 C-31.99 25.67 -32.98 25.34 -34 25 C-22.94645894 16.22162041 -11.7408813 7.83791804 0 0 Z " fill="#E9FAE8" transform="translate(60,339)"/>
<path d="M0 0 C4.34428076 0.49109261 6.14677087 1.73193696 9.0625 4.9375 C11.56188773 7.66455473 13.5778766 9.54426376 17 11 C16.67 12.32 16.34 13.64 16 15 C16.99 15 17.98 15 19 15 C19.50435694 16.9363704 20.00333874 18.87414146 20.5 20.8125 C20.7784375 21.89144531 21.056875 22.97039062 21.34375 24.08203125 C22 27 22 27 22 30 C21.34 30 20.68 30 20 30 C19.731875 29.26136719 19.46375 28.52273437 19.1875 27.76171875 C14.95376206 16.80135113 9.22246345 8.3011169 0 1 C0 0.67 0 0.34 0 0 Z " fill="#EAFAE8" transform="translate(646,174)"/>
<path d="M0 0 C0.61875 0.350625 1.2375 0.70125 1.875 1.0625 C2.57625 1.371875 3.2775 1.68125 4 2 C4.66 1.67 5.32 1.34 6 1 C6.66 1.66 7.32 2.32 8 3 C2.00946074 8.57091212 -4.19801333 13.4558753 -11 18 C-11.66 17.67 -12.32 17.34 -13 17 C-9.5904059 9.69372694 -9.5904059 9.69372694 -7 8 C-5.32457024 8.28604898 -3.65614657 8.61781233 -2 9 C-1.34 8.34 -0.68 7.68 0 7 C-0.66 5.35 -1.32 3.7 -2 2 C-1.34 2 -0.68 2 0 2 C0 1.34 0 0.68 0 0 Z " fill="#343C41" transform="translate(634,489)"/>
<path d="M0 0 C0.66 0.66 1.32 1.32 2 2 C1.21238281 2.52207031 0.42476562 3.04414063 -0.38671875 3.58203125 C-8.73563529 9.22372515 -16.42192774 15.36453575 -24 22 C-24.33 21.01 -24.66 20.02 -25 19 C-24.67 18.34 -24.34 17.68 -24 17 C-23.34 17 -22.68 17 -22 17 C-22 16.34 -22 15.68 -22 15 C-20.68 15 -19.36 15 -18 15 C-17.938125 14.4225 -17.87625 13.845 -17.8125 13.25 C-16.13159308 8.59518084 -11.11581421 6.35189384 -7 4 C-6.38253906 3.64550781 -5.76507813 3.29101562 -5.12890625 2.92578125 C-3.42147338 1.94666985 -1.71097544 0.9729076 0 0 Z " fill="#E5F9E5" transform="translate(94,290)"/>
<path d="M0 0 C1 3 1 3 0.22729492 4.97705078 C-0.18415771 5.70907715 -0.59561035 6.44110352 -1.01953125 7.1953125 C-1.46490234 7.99324219 -1.91027344 8.79117187 -2.36914062 9.61328125 C-2.84544922 10.44214844 -3.32175781 11.27101563 -3.8125 12.125 C-4.27720703 12.96160156 -4.74191406 13.79820312 -5.22070312 14.66015625 C-8.72356719 20.8617836 -8.72356719 20.8617836 -11 22 C-11 19.69 -11 17.38 -11 15 C-12.98 15.99 -12.98 15.99 -15 17 C-15 15.35 -15 13.7 -15 12 C-13.35 12 -11.7 12 -10 12 C-10 12.66 -10 13.32 -10 14 C-9.01 13.67 -8.02 13.34 -7 13 C-6.67 12.34 -6.34 11.68 -6 11 C-6.66 10.67 -7.32 10.34 -8 10 C-7.75 8.125 -7.75 8.125 -7 6 C-5 4.875 -5 4.875 -3 4 C-2.67 3.34 -2.34 2.68 -2 2 C-1.34 2 -0.68 2 0 2 C0 1.34 0 0.68 0 0 Z " fill="#30363D" transform="translate(701,301)"/>
<path d="M0 0 C0.598125 0.165 1.19625 0.33 1.8125 0.5 C4.11344336 1.1114124 4.11344336 1.1114124 7 1 C2.97636711 4.444355 -1.2554666 6.97004993 -5.875 9.5 C-7.24751478 10.26020195 -8.61991153 11.02061704 -9.9921875 11.78125 C-10.98750488 12.33039063 -10.98750488 12.33039063 -12.00292969 12.890625 C-15.01824488 14.56563627 -18.00902998 16.28194934 -21 18 C-20.61370981 15.5182178 -20.30869532 14.28703249 -18.44140625 12.55078125 C-17.82136719 12.14214844 -17.20132813 11.73351562 -16.5625 11.3125 C-15.94503906 10.89613281 -15.32757813 10.47976562 -14.69140625 10.05078125 C-12.56729032 8.73118036 -11.1999523 8.02161647 -8.6875 7.75 C-5.05951848 6.73754004 -3.45189831 4.79243974 -1 2 C-0.67 1.34 -0.34 0.68 0 0 Z " fill="#E3F7E1" transform="translate(241,106)"/>
<path d="M0 0 C0.66 0.66 1.32 1.32 2 2 C-1.6243546 4.14692486 -5.24959196 6.2923546 -8.875 8.4375 C-9.90753906 9.04916016 -10.94007813 9.66082031 -12.00390625 10.29101562 C-12.99003906 10.87431641 -13.97617188 11.45761719 -14.9921875 12.05859375 C-16.35899658 12.86768188 -16.35899658 12.86768188 -17.75341797 13.69311523 C-19.14586088 14.50312902 -20.55916147 15.27958074 -22 16 C-22 15.01 -22 14.02 -22 13 C-18.73349855 9.88197589 -16.48638304 7.83081167 -12 7 C-11.67 6.34 -11.34 5.68 -11 5 C-10.34 5.33 -9.68 5.66 -9 6 C-9 5.34 -9 4.68 -9 4 C-6.03 2.68 -3.06 1.36 0 0 Z " fill="#E2F7E1" transform="translate(217,123)"/>
<path d="M0 0 C0 0.66 0 1.32 0 2 C-6.99432582 3.68933193 -13.42497735 4.23024209 -20.6015625 3.9765625 C-22.04527725 3.93902359 -22.04527725 3.93902359 -23.51815796 3.90072632 C-26.55417737 3.81938425 -29.58945999 3.72246925 -32.625 3.625 C-34.69918988 3.56667252 -36.77340889 3.50937134 -38.84765625 3.453125 C-43.89885153 3.31393486 -48.94944799 3.16078893 -54 3 C-54 2.67 -54 2.34 -54 2 C-52.76958984 1.97494385 -51.53917969 1.9498877 -50.27148438 1.92407227 C-45.67926738 1.82945553 -41.08718266 1.72937024 -36.49511719 1.62768555 C-34.51272693 1.58454093 -32.53030439 1.54285268 -30.54785156 1.50268555 C-27.68805235 1.4444836 -24.82841258 1.3809366 -21.96875 1.31640625 C-21.09134155 1.29969376 -20.21393311 1.28298126 -19.30993652 1.26576233 C-12.83920362 1.11216812 -6.44822636 0 0 0 Z " fill="#DDF7DE" transform="translate(557,292)"/>
<path d="M0 0 C-0.99 0.33 -1.98 0.66 -3 1 C-3 1.66 -3 2.32 -3 3 C-2.01 3 -1.02 3 0 3 C-0.33 3.99 -0.66 4.98 -1 6 C-5.15626368 7.00926479 -9.04365094 7.10239579 -13.3125 7.0625 C-14.56675781 7.05347656 -15.82101562 7.04445313 -17.11328125 7.03515625 C-18.06589844 7.02355469 -19.01851562 7.01195312 -20 7 C-17.16142754 4.16142754 -13.6940834 3.1848649 -10 1.8125 C-8.89398437 1.38420898 -8.89398437 1.38420898 -7.765625 0.94726562 C-2.24553571 -1.12276786 -2.24553571 -1.12276786 0 0 Z " fill="#363D43" transform="translate(563,385)"/>
<path d="M0 0 C0.66 0.66 1.32 1.32 2 2 C-0.97192318 6.02200271 -3.97335207 10.01913795 -7 14 C-7.85271484 15.13115234 -7.85271484 15.13115234 -8.72265625 16.28515625 C-11.82004392 20.17547516 -14.04140702 21.73152273 -19 23 C-19.33 23.66 -19.66 24.32 -20 25 C-20 22 -20 22 -18.05859375 20.01953125 C-17.19363281 19.29121094 -16.32867188 18.56289063 -15.4375 17.8125 C-9.40224948 12.55516421 -3.79123543 7.13644317 0 0 Z " fill="#E3F8E3" transform="translate(661,241)"/>
<path d="M0 0 C3.66942861 1.37061399 6.93859497 3.03354788 10.30078125 5.0390625 C11.76547852 5.90917969 11.76547852 5.90917969 13.25976562 6.796875 C14.77086914 7.70179687 14.77086914 7.70179687 16.3125 8.625 C17.33923828 9.23601562 18.36597656 9.84703125 19.42382812 10.4765625 C21.95113875 11.98119394 24.47643399 13.4890994 27 15 C23.56109292 16.14630236 22.79308657 15.82148812 19.5 14.625 C18.7265625 14.34914063 17.953125 14.07328125 17.15625 13.7890625 C16.4446875 13.52867188 15.733125 13.26828125 15 13 C14.01 12.67 13.02 12.34 12 12 C11.855625 11.360625 11.71125 10.72125 11.5625 10.0625 C11.20413209 7.82079394 11.20413209 7.82079394 9.0625 6.8125 C8.381875 6.544375 7.70125 6.27625 7 6 C6.34 5.67 5.68 5.34 5 5 C4.319375 4.71125 3.63875 4.4225 2.9375 4.125 C1 3 1 3 0 0 Z " fill="#539053" transform="translate(450,57)"/>
<path d="M0 0 C0 0.33 0 0.66 0 1 C-4.62 1 -9.24 1 -14 1 C-14 1.66 -14 2.32 -14 3 C-23.71614177 3.14973506 -33.31629705 2.69613269 -43 2 C-43 1.67 -43 1.34 -43 1 C-28.65239711 0.17846037 -14.37042994 -0.13523642 0 0 Z " fill="#CEEAD0" transform="translate(299,273)"/>
<path d="M0 0 C0.99 0.33 1.98 0.66 3 1 C2.18208984 1.78310547 2.18208984 1.78310547 1.34765625 2.58203125 C-4.59868062 8.38606262 -9.84892316 14.48504466 -15 21 C-15.33 20.34 -15.66 19.68 -16 19 C-13.31024535 13.28679933 -9.84787555 8.06173357 -5 4 C-4.01 3.67 -3.02 3.34 -2 3 C-2 2.34 -2 1.68 -2 1 C-1.34 0.67 -0.68 0.34 0 0 Z " fill="#E9FCE9" transform="translate(44,332)"/>
<path d="M0 0 C3.93909378 0.44526171 7.87587696 0.90843727 11.8125 1.375 C13.49182617 1.56449219 13.49182617 1.56449219 15.20507812 1.7578125 C16.27822266 1.88671875 17.35136719 2.015625 18.45703125 2.1484375 C19.44678955 2.26364746 20.43654785 2.37885742 21.45629883 2.49755859 C24 3 24 3 27 5 C24.16660035 5.02724423 21.33346883 5.04695589 18.5 5.0625 C17.31277344 5.07506836 17.31277344 5.07506836 16.1015625 5.08789062 C10.97238283 5.10891185 6.07663894 4.73937287 1 4 C0.67 2.68 0.34 1.36 0 0 Z " fill="#EDFDED" transform="translate(394,282)"/>
<path d="M0 0 C0.66 0.33 1.32 0.66 2 1 C0.50260417 2.20442708 -0.99479167 3.40885417 -2.4921875 4.61328125 C-4.25292107 6.12270545 -4.25292107 6.12270545 -6 9 C-8 12 -8 12 -10.8203125 12.73046875 C-11.91085937 12.88128906 -13.00140625 13.03210938 -14.125 13.1875 C-15.22070312 13.34605469 -16.31640625 13.50460937 -17.4453125 13.66796875 C-18.28835938 13.77753906 -19.13140625 13.88710938 -20 14 C-16.59990846 10.39530704 -12.57301636 7.93379568 -8.4375 5.25 C-7.65697266 4.73050781 -6.87644531 4.21101563 -6.07226562 3.67578125 C-5.32525391 3.18980469 -4.57824219 2.70382812 -3.80859375 2.203125 C-3.12595459 1.75614258 -2.44331543 1.30916016 -1.73999023 0.84863281 C-1.16579346 0.56858398 -0.59159668 0.28853516 0 0 Z " fill="#2C3238" transform="translate(619,353)"/>
<path d="M0 0 C9.57 0.99 19.14 1.98 29 3 C29 3.33 29 3.66 29 4 C18.85478623 5.15677322 10.02790178 4.69940632 0 3 C0 2.01 0 1.02 0 0 Z " fill="#E8FAE6" transform="translate(423,286)"/>
<path d="M0 0 C0.99 0.66 1.98 1.32 3 2 C2.01 2.66 1.02 3.32 0 4 C0 4.99 0 5.98 0 7 C-1.32 7.33 -2.64 7.66 -4 8 C-4 7.01 -4 6.02 -4 5 C-4.99 6.485 -4.99 6.485 -6 8 C-9.125 8.1875 -9.125 8.1875 -12 8 C-12.33 8.66 -12.66 9.32 -13 10 C-13.66 9.34 -14.32 8.68 -15 8 C-13.06453884 6.85072616 -11.12655872 5.70569358 -9.1875 4.5625 C-8.10855469 3.92441406 -7.02960937 3.28632813 -5.91796875 2.62890625 C-3 1 -3 1 0 0 Z " fill="#33383E" transform="translate(597,367)"/>
<path d="M0 0 C0.66 0.33 1.32 0.66 2 1 C0.38405168 3.04119788 -1.2856382 5.04072937 -3 7 C-3.66 7 -4.32 7 -5 7 C-5 7.99 -5 8.98 -5 10 C-7.375 11.5625 -7.375 11.5625 -10 13 C-10.66 13.66 -11.32 14.32 -12 15 C-13.66666667 15 -15.33333333 15 -17 15 C-15.10600285 13.24797712 -13.20988262 11.49835022 -11.3125 9.75 C-10.51682617 9.01330078 -10.51682617 9.01330078 -9.70507812 8.26171875 C-6.56566972 5.37269261 -3.36822939 2.62459433 0 0 Z " fill="#5C955B" transform="translate(79,303)"/>
<path d="M0 0 C-1.35706804 3.63407163 -2.99250872 6.87012067 -5 10.1875 C-5.515625 11.04730469 -6.03125 11.90710938 -6.5625 12.79296875 C-8 15 -8 15 -10 17 C-10.16533484 12.70129404 -10.21065389 9.73047844 -8 6 C-8 5.34 -8 4.68 -8 4 C-2.58823529 0 -2.58823529 0 0 0 Z " fill="#E8FAE6" transform="translate(119,191)"/>
<path d="M0 0 C1.32 0.99 2.64 1.98 4 3 C1.40643371 4.70424172 -1.20135036 6.38534714 -3.8125 8.0625 C-4.55048828 8.54783203 -5.28847656 9.03316406 -6.04882812 9.53320312 C-6.76103516 9.98759766 -7.47324219 10.44199219 -8.20703125 10.91015625 C-8.8616333 11.33433838 -9.51623535 11.75852051 -10.19067383 12.19555664 C-12 13 -12 13 -15 12 C-14 10 -14 10 -12.1875 9.21875 C-10.72916667 8.73958333 -9.27083333 8.26041667 -7.8125 7.78125 C-5.80487204 7.14670555 -5.80487204 7.14670555 -5 5 C-5.66 4.67 -6.32 4.34 -7 4 C-5.35 3.01 -3.7 2.02 -2 1 C-1.67 1.33 -1.34 1.66 -1 2 C-0.67 1.34 -0.34 0.68 0 0 Z " fill="#2F363A" transform="translate(576,530)"/>
<path d="M0 0 C-0.33 0.99 -0.66 1.98 -1 3 C-7.64730869 5.93718291 -14.87023801 5.17799683 -22 5 C-18.36419928 2.8612937 -14.52962932 2.14844006 -10.4375 1.375 C-9.76525391 1.2409375 -9.09300781 1.106875 -8.40039062 0.96875 C-5.54817325 0.41360143 -2.91296494 0 0 0 Z " fill="#DFF6DD" transform="translate(589,286)"/>
<path d="M0 0 C1.00023193 0.00523682 2.00046387 0.01047363 3.03100586 0.01586914 C4.1105957 0.0190918 5.19018555 0.02231445 6.30249023 0.02563477 C8.00695312 0.03820312 8.00695312 0.03820312 9.74584961 0.05102539 C11.45611328 0.05779297 11.45611328 0.05779297 13.20092773 0.06469727 C16.02845312 0.07652792 18.85587601 0.09301129 21.68334961 0.11352539 C22.01334961 0.77352539 22.34334961 1.43352539 22.68334961 2.11352539 C16.74334961 2.11352539 10.80334961 2.11352539 4.68334961 2.11352539 C4.68334961 2.77352539 4.68334961 3.43352539 4.68334961 4.11352539 C2.04334961 4.11352539 -0.59665039 4.11352539 -3.31665039 4.11352539 C-3.31665039 0.1625295 -3.31665039 0.1625295 0 0 Z " fill="#5F9E5F" transform="translate(272.316650390625,269.886474609375)"/>
<path d="M0 0 C1.32 0 2.64 0 4 0 C5 3 5 3 5 6 C-3.85245902 7.57377049 -3.85245902 7.57377049 -7 6 C-6.67 5.01 -6.34 4.02 -6 3 C-4.0625 2.4375 -4.0625 2.4375 -2 2 C-1.34 1.34 -0.68 0.68 0 0 Z " fill="#4B5259" transform="translate(240,473)"/>
<path d="M0 0 C2.00773956 2.00773956 2.99392854 3.36873617 4 6 C3.625 8.25 3.625 8.25 3 10 C0.125 9.6875 0.125 9.6875 -3 9 C-3.66 8.01 -4.32 7.02 -5 6 C-3.35 4.02 -1.7 2.04 0 0 Z " fill="#61A062" transform="translate(31,349)"/>
<path d="M0 0 C4.97093824 0.41153737 9.44508386 0.79600832 14 3 C14 3.33 14 3.66 14 4 C-1.74487472 5.33257403 -1.74487472 5.33257403 -9 4 C-8.34 3.34 -7.68 2.68 -7 2 C-3.375 2.375 -3.375 2.375 0 3 C0 2.01 0 1.02 0 0 Z " fill="#61A165" transform="translate(364,274)"/>
<path d="M0 0 C0.66 0.165 1.32 0.33 2 0.5 C6.77198356 1.29533059 11.35632344 1.54789219 16 0 C16.33 1.65 16.66 3.3 17 5 C14.93722893 4.85805236 12.87478969 4.71127784 10.8125 4.5625 C9.66394531 4.48128906 8.51539063 4.40007812 7.33203125 4.31640625 C4.48401829 4.04596188 1.78789518 3.62478253 -1 3 C-0.67 2.01 -0.34 1.02 0 0 Z " fill="#5F975E" transform="translate(406,281)"/>
<path d="M0 0 C1.73543126 2.60314689 2.61121812 3.98694043 3 7 C2.34 7.66 1.68 8.32 1 9 C0.34 9 -0.32 9 -1 9 C-2.70993434 10.6222454 -4.37347684 12.29413425 -6 14 C-7 15 -8 16 -9 17 C-7.51481201 12.95698825 -5.57122002 9.38853744 -3.375 5.6875 C-2.74335937 4.61886719 -2.11171875 3.55023438 -1.4609375 2.44921875 C-0.97882812 1.64097656 -0.49671875 0.83273437 0 0 Z " fill="#2A3137" transform="translate(696,270)"/>
<path d="M0 0 C0.66 0.66 1.32 1.32 2 2 C1.01 2.99 0.02 3.98 -1 5 C-0.34 5.33 0.32 5.66 1 6 C-2.63 9.3 -6.26 12.6 -10 16 C-10 11.94860621 -7.95391463 9.93049487 -5.5625 6.875 C-5.14162109 6.32457031 -4.72074219 5.77414062 -4.28710938 5.20703125 C-1.24503968 1.24503968 -1.24503968 1.24503968 0 0 Z " fill="#568E55" transform="translate(21,362)"/>
<path d="M0 0 C4.18525505 0.59789358 8.08852973 1.36264035 12 3 C12.33 3.99 12.66 4.98 13 6 C13.66 6 14.32 6 15 6 C15.33 7.32 15.66 8.64 16 10 C4.29384966 3.84965831 4.29384966 3.84965831 0 0 Z " fill="#E5F8E2" transform="translate(429,43)"/>
<path d="M0 0 C-0.66 0.66 -1.32 1.32 -2 2 C-1.67 2.66 -1.34 3.32 -1 4 C-1.59167969 4.12117188 -2.18335937 4.24234375 -2.79296875 4.3671875 C-7.03803585 5.26744643 -11.02439661 6.20456621 -15 8 C-15.33 7.34 -15.66 6.68 -16 6 C-13.9021477 4.79994469 -11.7979751 3.61497017 -9.6875 2.4375 C-8.79514648 1.92413086 -8.79514648 1.92413086 -7.88476562 1.40039062 C-3.33984375 -1.11328125 -3.33984375 -1.11328125 0 0 Z " fill="#E5F7E4" transform="translate(109,314)"/>
<path d="M0 0 C-11.385 4.95 -11.385 4.95 -23 10 C-23 9.01 -23 8.02 -23 7 C-22.34 7 -21.68 7 -21 7 C-21 6.34 -21 5.68 -21 5 C-20.28714844 4.81824219 -19.57429688 4.63648438 -18.83984375 4.44921875 C-12.2852673 2.73742873 -12.2852673 2.73742873 -6 0.25 C-3 -1 -3 -1 0 0 Z " fill="#5B8F5A" transform="translate(131,303)"/>
<path d="M0 0 C0.66 0.33 1.32 0.66 2 1 C1.67 1.99 1.34 2.98 1 4 C0.01 4.33 -0.98 4.66 -2 5 C-2.33 5.66 -2.66 6.32 -3 7 C-4.66500443 7.34153937 -6.33178677 7.67449498 -8 8 C-8.66 8.66 -9.32 9.32 -10 10 C-13.125 10.125 -13.125 10.125 -16 10 C-12.77333979 7.47478766 -9.39568033 5.34337749 -5.875 3.25 C-4.29332031 2.29867188 -4.29332031 2.29867188 -2.6796875 1.328125 C-1.79539062 0.88984375 -0.91109375 0.4515625 0 0 Z " fill="#E6F7E5" transform="translate(638,265)"/>
<path d="M0 0 C0.33 0.66 0.66 1.32 1 2 C1.66 2 2.32 2 3 2 C3 1.34 3 0.68 3 0 C6.37503669 1.1858237 8.64722731 2.27573689 11 5 C8.375 6.3125 8.375 6.3125 5 7 C2.56483135 5.62336186 1.00561708 4.00561708 -1 2 C-0.67 1.34 -0.34 0.68 0 0 Z " fill="#549752" transform="translate(606,152)"/>
<path d="M0 0 C5.06713224 0.49453993 8.191282 2.08120858 12.375 4.9375 C13.43460938 5.64777344 14.49421875 6.35804687 15.5859375 7.08984375 C16.38257813 7.72019531 17.17921875 8.35054687 18 9 C18 9.66 18 10.32 18 11 C13.74693457 9.47017797 10.00735822 7.31799136 6.1875 4.9375 C5.59001953 4.57333984 4.99253906 4.20917969 4.37695312 3.83398438 C2.89859629 2.91993746 1.44651932 1.96364025 0 1 C0 0.67 0 0.34 0 0 Z " fill="#E8F8E4" transform="translate(538,108)"/>
<path d="M0 0 C2.97 0.495 2.97 0.495 6 1 C6.33 1.99 6.66 2.98 7 4 C8.11375 4.0928125 8.11375 4.0928125 9.25 4.1875 C12.8185739 5.24185138 13.92245228 6.99909773 16 10 C12.01536179 10 9.58277469 8.17290766 6.3125 6.125 C5.40274414 5.57779297 5.40274414 5.57779297 4.47460938 5.01953125 C2.94440826 4.07283765 1.46689185 3.04210006 0 2 C0 1.34 0 0.68 0 0 Z " fill="#E2F7E1" transform="translate(446,52)"/>
<path d="M0 0 C-2.3932786 2.61371215 -4.98397046 4.40088665 -8 6.25 C-9.299375 7.06210937 -9.299375 7.06210937 -10.625 7.890625 C-13 9 -13 9 -16 8 C-13.10130984 5.70103884 -10.84906588 4 -7 4 C-7 3.34 -7 2.68 -7 2 C-7.66 1.67 -8.32 1.34 -9 1 C-5.64919071 -1.10976881 -3.77897651 -1.0497157 0 0 Z " fill="#303439" transform="translate(555,547)"/>
<path d="M0 0 C1.98 0 3.96 0 6 0 C5.48118887 4.1724106 4.28848726 6.25416821 1.4375 9.3125 C0.79683594 10.00988281 0.15617188 10.70726562 -0.50390625 11.42578125 C-0.99761719 11.94527344 -1.49132812 12.46476562 -2 13 C-2 10 -2 10 -0.5 8.3125 C-0.005 7.879375 0.49 7.44625 1 7 C0.67 6.34 0.34 5.68 0 5 C0 3.33333333 0 1.66666667 0 0 Z " fill="#2D3338" transform="translate(647,476)"/>
<path d="M0 0 C2.83602371 0.39389218 4.64759392 0.72716949 6.9375 2.5 C9.00222035 4.25789499 9.00222035 4.25789499 12.125 4.375 C13.07375 4.58125 14.0225 4.7875 15 5 C16.375 7.5625 16.375 7.5625 17 10 C12.97683781 8.51463956 9.38707358 6.60123107 5.6875 4.4375 C4.61886719 3.81746094 3.55023437 3.19742188 2.44921875 2.55859375 C1.64097656 2.04425781 0.83273437 1.52992187 0 1 C0 0.67 0 0.34 0 0 Z " fill="#E0F6E0" transform="translate(558,120)"/>
<path d="M0 0 C4.77609498 1.64178265 8.79382904 4.26546702 13 7 C10 8 10 8 8.1875 7.125 C7.465625 6.75375 6.74375 6.3825 6 6 C4.00889599 5.61709538 2.00899487 5.27395385 0 5 C0 4.34 0 3.68 0 3 C-0.66 2.67 -1.32 2.34 -2 2 C-1.34 1.34 -0.68 0.68 0 0 Z " fill="#579253" transform="translate(522,100)"/>
<path d="M0 0 C0.66 0.66 1.32 1.32 2 2 C1.625 4.125 1.625 4.125 1 6 C-1.475 5.01 -1.475 5.01 -4 4 C-4 2.68 -4 1.36 -4 0 C-4.33 0.66 -4.66 1.32 -5 2 C-6.32 1.67 -7.64 1.34 -9 1 C-9 0.34 -9 -0.32 -9 -1 C-5.2232373 -2.04910075 -3.31615055 -2.17265036 0 0 Z " fill="#484F55" transform="translate(331,596)"/>
<path d="M0 0 C0.99 0.33 1.98 0.66 3 1 C3 1.66 3 2.32 3 3 C4.98 3 6.96 3 9 3 C8.67 4.65 8.34 6.3 8 8 C1.47692308 6.52307692 1.47692308 6.52307692 -0.9375 3.875 C-1.288125 3.25625 -1.63875 2.6375 -2 2 C-1.34 2 -0.68 2 0 2 C0 1.34 0 0.68 0 0 Z " fill="#4A5158" transform="translate(268,561)"/>
<path d="M0 0 C-3.32307692 3.93846154 -3.32307692 3.93846154 -6.75 4.25 C-7.4925 4.1675 -8.235 4.085 -9 4 C-9.33 5.32 -9.66 6.64 -10 8 C-11.98 8 -13.96 8 -16 8 C-12.26268832 3.61272107 -5.86202224 -1.95400741 0 0 Z " fill="#383C41" transform="translate(275,451)"/>
<path d="M0 0 C0.598125 0.165 1.19625 0.33 1.8125 0.5 C4.11344336 1.1114124 4.11344336 1.1114124 7 1 C7.33 1.99 7.66 2.98 8 4 C6.68 4.99 5.36 5.98 4 7 C3.67 6.67 3.34 6.34 3 6 C2.34 6.66 1.68 7.32 1 8 C0.34 7.01 -0.32 6.02 -1 5 C-0.34 5 0.32 5 1 5 C0.67 3.35 0.34 1.7 0 0 Z " fill="#EEF1F1" transform="translate(655,313)"/>
<path d="M0 0 C0.99 0.66 1.98 1.32 3 2 C2.01 2.66 1.02 3.32 0 4 C0.33 4.66 0.66 5.32 1 6 C0.34 6 -0.32 6 -1 6 C-1.33 6.66 -1.66 7.32 -2 8 C-2.99 7.67 -3.98 7.34 -5 7 C-7.14255793 7.38932856 -7.14255793 7.38932856 -9 8 C-6.14723863 5.06799526 -3.34920216 2.35684596 0 0 Z " fill="#5E985D" transform="translate(90,295)"/>
<path d="M0 0 C0.99 0 1.98 0 3 0 C2.50769231 6.4 2.50769231 6.4 -0.0625 9.4375 C-1.0215625 10.2109375 -1.0215625 10.2109375 -2 11 C-3.25 9.4375 -3.25 9.4375 -4 7 C-2.93237266 4.42998985 -1.53455057 2.3469597 0 0 Z " fill="#649A61" transform="translate(114,199)"/>
<path d="M0 0 C0 0.66 0 1.32 0 2 C-0.66 2 -1.32 2 -2 2 C-2 2.66 -2 3.32 -2 4 C-3.65 4.33 -5.3 4.66 -7 5 C-7 5.66 -7 6.32 -7 7 C-8.98 7.33 -10.96 7.66 -13 8 C-13 7.34 -13 6.68 -13 6 C-10.91796875 4.4921875 -10.91796875 4.4921875 -8.1875 2.875 C-7.29417969 2.33617187 -6.40085938 1.79734375 -5.48046875 1.2421875 C-3 0 -3 0 0 0 Z " fill="#589453" transform="translate(200,137)"/>
<path d="M0 0 C-2.31881505 2.67901932 -4.31814468 3.66204403 -7.6875 4.6875 C-8.49574219 4.93886719 -9.30398438 5.19023438 -10.13671875 5.44921875 C-11.05904297 5.72185547 -11.05904297 5.72185547 -12 6 C-11.67 5.34 -11.34 4.68 -11 4 C-11.66 3.34 -12.32 2.68 -13 2 C-4.738041 -1.62870159 -4.738041 -1.62870159 0 0 Z " fill="#363C3F" transform="translate(436,617)"/>
<path d="M0 0 C-3.18213177 2.8467783 -5.08228632 3.32843319 -9.3125 3.125 C-13.71117378 2.9952804 -17.67397612 3.23092909 -22 4 C-22 3.34 -22 2.68 -22 2 C-19.64655194 1.66076424 -17.2924516 1.32849466 -14.9375 1 C-14.28072266 0.90460938 -13.62394531 0.80921875 -12.94726562 0.7109375 C-8.59861237 0.11112326 -4.38670929 -0.09127093 0 0 Z " fill="#DBF2DA" transform="translate(241,276)"/>
<path d="M0 0 C0.99 0.33 1.98 0.66 3 1 C-1.2954975 4.74123976 -5.99900452 7.34151874 -11 10 C-10.67 8.68 -10.34 7.36 -10 6 C-9.34 6 -8.68 6 -8 6 C-8 5.34 -8 4.68 -8 4 C-2.25 2 -2.25 2 0 2 C0 1.34 0 0.68 0 0 Z " fill="#E5F8E2" transform="translate(312,66)"/>
<path d="M0 0 C0.66 0.33 1.32 0.66 2 1 C0.12050295 4.57104439 -1.17053157 6.54744301 -5 8 C-6.32 7.01 -7.64 6.02 -9 5 C-7.54735962 4.1361871 -6.0876837 3.28419546 -4.625 2.4375 C-3.40683594 1.72400391 -3.40683594 1.72400391 -2.1640625 0.99609375 C-1.44992187 0.66738281 -0.73578125 0.33867188 0 0 Z " fill="#ECEFF0" transform="translate(452,608)"/>
<path d="M0 0 C0.99 0.99 1.98 1.98 3 3 C1.54634731 4.17249353 0.08692581 5.33783816 -1.375 6.5 C-2.18710938 7.1496875 -2.99921875 7.799375 -3.8359375 8.46875 C-6 10 -6 10 -8 10 C-8 8.68 -8 7.36 -8 6 C-7.01 5.67 -6.02 5.34 -5 5 C-5 4.34 -5 3.68 -5 3 C-4.360625 2.87625 -3.72125 2.7525 -3.0625 2.625 C-2.0415625 2.315625 -2.0415625 2.315625 -1 2 C-0.67 1.34 -0.34 0.68 0 0 Z " fill="#E9F5E4" transform="translate(141,166)"/>
<path d="M0 0 C-3.18181818 8.18181818 -3.18181818 8.18181818 -6 11 C-6.33 10.01 -6.66 9.02 -7 8 C-7.99 8.495 -7.99 8.495 -9 9 C-8.67 7.68 -8.34 6.36 -8 5 C-7.34 5 -6.68 5 -6 5 C-6 4.34 -6 3.68 -6 3 C-3.89994105 0.39992701 -3.48266577 0 0 0 Z " fill="#E7F5E5" transform="translate(15,369)"/>
<path d="M0 0 C-1 2 -1 2 -3.5625 3.0625 C-7.40881922 4.11149615 -11.03776693 4.59011382 -15 5 C-15.33 4.34 -15.66 3.68 -16 3 C-13.71068726 2.30364247 -11.4191243 1.61765623 -9.125 0.9375 C-8.47402344 0.73833984 -7.82304688 0.53917969 -7.15234375 0.33398438 C-2.2265625 -1.11328125 -2.2265625 -1.11328125 0 0 Z " fill="#E2F7E2" transform="translate(606,282)"/>
<path d="M0 0 C0.33 0.99 0.66 1.98 1 3 C-4.36000789 5.25684543 -8.1977825 6.36263859 -14 6 C-11.74402173 3.74402173 -9.95396133 3.03425808 -7 1.875 C-6.113125 1.52179688 -5.22625 1.16859375 -4.3125 0.8046875 C-2 0 -2 0 0 0 Z " fill="#DEF4DF" transform="translate(621,275)"/>
<path d="M0 0 C0.66 0.33 1.32 0.66 2 1 C2 5.62 2 10.24 2 15 C1.01 15.33 0.02 15.66 -1 16 C-0.67 10.72 -0.34 5.44 0 0 Z " fill="#E8FAE8" transform="translate(668,210)"/>
<path d="M0 0 C0.66 0.66 1.32 1.32 2 2 C-0.36292656 4.52588702 -1.66462511 5.88820837 -5 7 C-5.639375 7.804375 -6.27875 8.60875 -6.9375 9.4375 C-8.91391935 11.89305131 -10.12464744 12.87039721 -13 14 C-10.38256198 8.10428565 -5.28256657 3.59214527 0 0 Z " fill="#548D55" transform="translate(137,173)"/>
<path d="M0 0 C1.72990025 0.93614567 3.45888696 1.87397958 5.1875 2.8125 C6.15042969 3.33457031 7.11335937 3.85664063 8.10546875 4.39453125 C10.77398357 5.87463866 13.39374227 7.41337509 16 9 C13.50907189 10.24546405 12.58919267 9.7767578 10 9 C10 8.34 10 7.68 10 7 C9.01 7 8.02 7 7 7 C7 6.34 7 5.68 7 5 C5.8553125 5.12375 5.8553125 5.12375 4.6875 5.25 C2 5 2 5 0.1875 3 C-0.4003125 2.01 -0.4003125 2.01 -1 1 C-0.67 0.67 -0.34 0.34 0 0 Z " fill="#588D58" transform="translate(567,126)"/>
<path d="M0 0 C0.598125 0.165 1.19625 0.33 1.8125 0.5 C4.11344336 1.1114124 4.11344336 1.1114124 7 1 C3.54143152 3.94995547 0.19978515 6.22675738 -4 8 C-4.66 7.67 -5.32 7.34 -6 7 C-5.195625 6.21625 -4.39125 5.4325 -3.5625 4.625 C-1.01309583 2.28017144 -1.01309583 2.28017144 0 0 Z " fill="#ECF8EA" transform="translate(241,106)"/>
<path d="M0 0 C4.19360449 0.67097672 7.40334352 2.8558394 11 5 C10.01 6.485 10.01 6.485 9 8 C5.7 6.02 2.4 4.04 -1 2 C-0.67 1.34 -0.34 0.68 0 0 Z " fill="#E7F9E7" transform="translate(495,81)"/>
<path d="M0 0 C1.37478516 0.01740234 1.37478516 0.01740234 2.77734375 0.03515625 C3.69644531 0.04417969 4.61554688 0.05320312 5.5625 0.0625 C6.27277344 0.07410156 6.98304688 0.08570313 7.71484375 0.09765625 C6.72484375 1.58265625 6.72484375 1.58265625 5.71484375 3.09765625 C5.71484375 4.08765625 5.71484375 5.07765625 5.71484375 6.09765625 C2.25559212 4.84848205 -0.43208828 3.4223783 -3.28515625 1.09765625 C-2.28515625 0.09765625 -2.28515625 0.09765625 0 0 Z " fill="#4D565D" transform="translate(228.28515625,537.90234375)"/>
<path d="M0 0 C0.33 0.66 0.66 1.32 1 2 C0.21625 2.556875 -0.5675 3.11375 -1.375 3.6875 C-4.08704858 6.07668565 -4.96133543 7.60073413 -6 11 C-8.31 11.33 -10.62 11.66 -13 12 C-9.48451346 6.95604105 -4.88263123 3.62024153 0 0 Z " fill="#292F34" transform="translate(649,330)"/>
<path d="M0 0 C0.99 0.33 1.98 0.66 3 1 C0.03 3.64 -2.94 6.28 -6 9 C-6.66 8.67 -7.32 8.34 -8 8 C-7.34 6.68 -6.68 5.36 -6 4 C-5.01 4 -4.02 4 -3 4 C-2.67 3.01 -2.34 2.02 -2 1 C-1.34 0.67 -0.68 0.34 0 0 Z " fill="#E2F9E3" transform="translate(64,313)"/>
<path d="M0 0 C1.485 0.99 1.485 0.99 3 2 C3.3984375 4.0234375 3.3984375 4.0234375 3.375 6.375 C3.38273438 7.14585937 3.39046875 7.91671875 3.3984375 8.7109375 C3 11 3 11 0 15 C0 10.05 0 5.1 0 0 Z " fill="#CBD0D3" transform="translate(719,222)"/>
<path d="M0 0 C5.58507504 2.69319824 10.9400039 5.40473961 16 9 C15.01 9.495 15.01 9.495 14 10 C12.32111559 9.02065076 10.65661761 8.01656081 9 7 C7.01548229 6.28856912 5.01797888 5.61008664 3 5 C3 4.34 3 3.68 3 3 C2.01 2.67 1.02 2.34 0 2 C0 1.34 0 0.68 0 0 Z " fill="#598B5A" transform="translate(489,80)"/>
<path d="M0 0 C1.28222189 3.03070628 0.98589446 4.03596914 -0.25 7.1875 C-2 10 -2 10 -5 11 C-6 8 -6 8 -5.0625 5.8125 C-4.711875 5.214375 -4.36125 4.61625 -4 4 C-3.34 4 -2.68 4 -2 4 C-1.34 2.68 -0.68 1.36 0 0 Z " fill="#4D535B" transform="translate(204,509)"/>
<path d="M0 0 C0.66 0.33 1.32 0.66 2 1 C1.67 2.65 1.34 4.3 1 6 C-0.32 6 -1.64 6 -3 6 C-3.66 6.66 -4.32 7.32 -5 8 C-5.99 8.33 -6.98 8.66 -8 9 C-8.66 8.67 -9.32 8.34 -10 8 C-6.7 5.36 -3.4 2.72 0 0 Z " fill="#282D31" transform="translate(634,342)"/>
<path d="M0 0 C1.65 0 3.3 0 5 0 C5 0.66 5 1.32 5 2 C5.66 2 6.32 2 7 2 C7.75 3.75 7.75 3.75 8 6 C6.0625 8.25 6.0625 8.25 4 10 C4 7.69 4 5.38 4 3 C2.02 3.99 2.02 3.99 0 5 C0 3.35 0 1.7 0 0 Z " fill="#323A41" transform="translate(686,313)"/>
<path d="M0 0 C0.66 0 1.32 0 2 0 C2.08107583 1.93681161 2.13922475 3.8745934 2.1875 5.8125 C2.23970703 7.43091797 2.23970703 7.43091797 2.29296875 9.08203125 C2 12 2 12 -1 15 C-0.67 10.05 -0.34 5.1 0 0 Z " fill="#515152" transform="translate(717,204)"/>
<path d="M0 0 C8.44646925 6.15034169 8.44646925 6.15034169 12 10 C11.67 10.66 11.34 11.32 11 12 C10.566875 11.505 10.13375 11.01 9.6875 10.5 C8.00259517 8.66781808 8.00259517 8.66781808 5 9 C4.67 7.68 4.34 6.36 4 5 C2.68 5 1.36 5 0 5 C-0.5625 3.0625 -0.5625 3.0625 -1 1 C-0.67 0.67 -0.34 0.34 0 0 Z " fill="#578956" transform="translate(643,172)"/>
<path d="M0 0 C0.99 0.66 1.98 1.32 3 2 C0.69 4.31 -1.62 6.62 -4 9 C-6 8 -6 8 -7 6 C-4.69 4.02 -2.38 2.04 0 0 Z " fill="#619D60" transform="translate(215,126)"/>
<path d="M0 0 C0.763125 0.20625 1.52625 0.4125 2.3125 0.625 C2.3125 1.285 2.3125 1.945 2.3125 2.625 C3.60483607 3.99810707 4.93687146 5.33534824 6.3125 6.625 C2.86889368 6.625 1.56454608 5.82908468 -1.375 4.125 C-2.18324219 3.6609375 -2.99148438 3.196875 -3.82421875 2.71875 C-4.43910156 2.3578125 -5.05398438 1.996875 -5.6875 1.625 C-2.6875 -0.375 -2.6875 -0.375 0 0 Z " fill="#495055" transform="translate(339.6875,602.375)"/>
<path d="M0 0 C1.04449911 3.13349732 0.93423645 3.98968256 0 7 C-0.66 7 -1.32 7 -2 7 C-2 6.34 -2 5.68 -2 5 C-4.475 6.485 -4.475 6.485 -7 8 C-7.33 7.34 -7.66 6.68 -8 6 C-5.63379989 3.38472619 -3.057952 1.73559438 0 0 Z " fill="#F2F5F7" transform="translate(507,576)"/>
<path d="M0 0 C-0.66 0 -1.32 0 -2 0 C-2 0.66 -2 1.32 -2 2 C-3.41543415 2.19658808 -4.83244031 2.38187546 -6.25 2.5625 C-7.03890625 2.66691406 -7.8278125 2.77132813 -8.640625 2.87890625 C-11.00532874 3.00027349 -12.7511037 2.69633257 -15 2 C-13.25364835 1.46706165 -11.50272348 0.94909337 -9.75 0.4375 C-8.77546875 0.14746094 -7.8009375 -0.14257812 -6.796875 -0.44140625 C-4.03756068 -0.99249836 -2.6087176 -0.93789609 0 0 Z " fill="#2E353B" transform="translate(508,403)"/>
<path d="M0 0 C-0.33 0.99 -0.66 1.98 -1 3 C-2.99571323 3.67939174 -4.99594773 4.34561559 -7 5 C-7.99 6.485 -7.99 6.485 -9 8 C-10.65 7.67 -12.3 7.34 -14 7 C-11.725306 4.44736912 -9.56797307 3.15855185 -6.4375 1.8125 C-5.65246094 1.46832031 -4.86742187 1.12414062 -4.05859375 0.76953125 C-2 0 -2 0 0 0 Z " fill="#2B3135" transform="translate(581,376)"/>
<path d="M0 0 C0.66 0.99 1.32 1.98 2 3 C-0.475 4.485 -0.475 4.485 -3 6 C-2.34 7.32 -1.68 8.64 -1 10 C-3.31 9.67 -5.62 9.34 -8 9 C-7.04270084 7.87411986 -6.08412105 6.7493285 -5.125 5.625 C-4.59132813 4.99851562 -4.05765625 4.37203125 -3.5078125 3.7265625 C-2.38567993 2.44163349 -1.20628025 1.20628025 0 0 Z " fill="#282D33" transform="translate(661,318)"/>
<path d="M0 0 C2.64 0 5.28 0 8 0 C8 1.32 8 2.64 8 4 C3.66726186 4.92844389 0.33273814 4.92844389 -4 4 C-4 3.67 -4 3.34 -4 3 C-2.35 2.67 -0.7 2.34 1 2 C0.67 1.34 0.34 0.68 0 0 Z " fill="#509B53" transform="translate(373,275)"/>
<path d="M0 0 C0.66 0.66 1.32 1.32 2 2 C1.360625 2.268125 0.72125 2.53625 0.0625 2.8125 C-2.33131686 3.88667752 -2.33131686 3.88667752 -3 7 C-5.21701147 8.58965571 -7.57862473 9.72327486 -10 11 C-10 10.01 -10 9.02 -10 8 C-4.225 2.4875 -4.225 2.4875 0 2 C0 1.34 0 0.68 0 0 Z " fill="#EAFBE8" transform="translate(205,128)"/>
<path d="M0 0 C-2.27745789 2.48982535 -4.62335238 4.10368997 -7.5625 5.75 C-8.34753906 6.19859375 -9.13257813 6.6471875 -9.94140625 7.109375 C-10.62074219 7.40328125 -11.30007813 7.6971875 -12 8 C-12.66 7.67 -13.32 7.34 -14 7 C-13.175 6.38125 -12.35 5.7625 -11.5 5.125 C-10.2625 4.073125 -10.2625 4.073125 -9 3 C-9 2.34 -9 1.68 -9 1 C-5.8035914 -0.06546953 -3.34252724 -0.07427838 0 0 Z " fill="#30363B" transform="translate(457,605)"/>
<path d="M0 0 C6.93 0.495 6.93 0.495 14 1 C11 3 11 3 8.8125 2.625 C8.214375 2.41875 7.61625 2.2125 7 2 C7 2.66 7 3.32 7 4 C4.36 3.67 1.72 3.34 -1 3 C-0.67 2.01 -0.34 1.02 0 0 Z " fill="#464E55" transform="translate(362,420)"/>
<path d="M0 0 C1.98 0.66 3.96 1.32 6 2 C3.08235 3.9451 1.37462715 4.45276317 -2 5 C-2 5.66 -2 6.32 -2 7 C-3.32 7.33 -4.64 7.66 -6 8 C-6 6.35 -6 4.7 -6 3 C-5.67 3.66 -5.34 4.32 -5 5 C-3.35 3.35 -1.7 1.7 0 0 Z " fill="#62A161" transform="translate(147,291)"/>
<path d="M0 0 C0.33 0.99 0.66 1.98 1 3 C-2.26760563 8.63380282 -2.26760563 8.63380282 -5 10 C-4.67 7.03 -4.34 4.06 -4 1 C-2.68 0.67 -1.36 0.34 0 0 Z " fill="#ECFBED" transform="translate(108,208)"/>
<path d="M0 0 C2.97 0.495 2.97 0.495 6 1 C2.28725335 5.5565527 -2.79007402 7.57400393 -8 10 C-8 9.34 -8 8.68 -8 8 C-6.865625 7.4225 -5.73125 6.845 -4.5625 6.25 C-1.62689703 4.64507365 -1.62689703 4.64507365 -0.0625 1.75 C-0.041875 1.1725 -0.02125 0.595 0 0 Z " fill="#2B3238" transform="translate(589,522)"/>
<path d="M0 0 C0.66 0 1.32 0 2 0 C0.9802693 3.77300358 0.34127338 4.80206144 -3.125 6.8125 C-4.07375 7.204375 -5.0225 7.59625 -6 8 C-6.99 7.34 -7.98 6.68 -9 6 C-4.375 3 -4.375 3 -1 3 C-0.67 2.01 -0.34 1.02 0 0 Z " fill="#494F56" transform="translate(266,455)"/>
<path d="M0 0 C-1.32 0.33 -2.64 0.66 -4 1 C-4 2.32 -4 3.64 -4 5 C-6.475 4.01 -6.475 4.01 -9 3 C-9.33 3.66 -9.66 4.32 -10 5 C-10.66 4.01 -11.32 3.02 -12 2 C-10.56656 1.46809459 -9.12804633 0.94984742 -7.6875 0.4375 C-6.48673828 0.00244141 -6.48673828 0.00244141 -5.26171875 -0.44140625 C-3 -1 -3 -1 0 0 Z " fill="#2C333A" transform="translate(536,395)"/>
<path d="M0 0 C0.66 0.33 1.32 0.66 2 1 C0.53706784 3.92586433 -1.40270098 4.05946588 -4.4375 5.125 C-5.42621094 5.47820312 -6.41492188 5.83140625 -7.43359375 6.1953125 C-10 7 -10 7 -12 7 C-12 6.34 -12 5.68 -12 5 C-10.04578965 4.13644222 -8.08648653 3.28440066 -6.125 2.4375 C-5.03445312 1.96183594 -3.94390625 1.48617188 -2.8203125 0.99609375 C-1.88960937 0.66738281 -0.95890625 0.33867187 0 0 Z " fill="#E6F8E0" transform="translate(132,302)"/>
<path d="M0 0 C-1.32 0.33 -2.64 0.66 -4 1 C-4 1.66 -4 2.32 -4 3 C-5.95216435 4.95216435 -7.53199953 5.84826645 -10 7 C-10.66 6.01 -11.32 5.02 -12 4 C-10.56988027 3.13353333 -9.13059381 2.28218171 -7.6875 1.4375 C-6.48673828 0.72400391 -6.48673828 0.72400391 -5.26171875 -0.00390625 C-3 -1 -3 -1 0 0 Z " fill="#5E935E" transform="translate(239,115)"/>
<path d="M0 0 C3 1 3 1 4.3125 2.375 C6.05874638 4.22248652 6.05874638 4.22248652 9.0625 5.5 C12 7 12 7 14 10 C10.30123909 8.62712658 7.0485524 6.93644547 3.6875 4.875 C2.36298828 4.06675781 2.36298828 4.06675781 1.01171875 3.2421875 C0.34785156 2.83226563 -0.31601562 2.42234375 -1 2 C-0.67 1.34 -0.34 0.68 0 0 Z " fill="#DFF5DD" transform="translate(465,63)"/>
<path d="M0 0 C2.475 0.99 2.475 0.99 5 2 C5 2.66 5 3.32 5 4 C6.32 3.67 7.64 3.34 9 3 C7.35 4.65 5.7 6.3 4 8 C1.10067643 5.60490662 0.49831724 3.68754757 0 0 Z " fill="#569B54" transform="translate(32,349)"/>
<path d="M0 0 C0.33 0.99 0.66 1.98 1 3 C0.01 4.485 0.01 4.485 -1 6 C-0.01 6 0.98 6 2 6 C2 6.66 2 7.32 2 8 C-0.64 8.66 -3.28 9.32 -6 10 C-4.6302836 6.00499382 -2.74277578 3.19990508 0 0 Z " fill="#282F33" transform="translate(683,291)"/>
<path d="M0 0 C1.67180274 0.94934513 3.33733936 1.90973313 5 2.875 C6.3921875 3.67550781 6.3921875 3.67550781 7.8125 4.4921875 C8.8953125 5.23855469 8.8953125 5.23855469 10 6 C10 6.66 10 7.32 10 8 C5.69235185 6.43358249 1.93828536 4.31663844 -2 2 C-1.34 1.34 -0.68 0.68 0 0 Z " fill="#E5F9E3" transform="translate(625,158)"/>
<path d="M0 0 C-0.804375 0.45375 -1.60875 0.9075 -2.4375 1.375 C-5.08856572 2.74725665 -5.08856572 2.74725665 -6 5 C-8.64860427 5.59355614 -11.29197322 5.74209269 -14 6 C-11.86197902 3.67490219 -9.81401863 2.17832764 -7 0.75 C-6.319375 0.39421875 -5.63875 0.0384375 -4.9375 -0.328125 C-3 -1 -3 -1 0 0 Z " fill="#578F56" transform="translate(366,40)"/>
<path d="M0 0 C1.32 0.66 2.64 1.32 4 2 C-0.30769231 5.07692308 -0.30769231 5.07692308 -3.8125 4.6875 C-4.534375 4.460625 -5.25625 4.23375 -6 4 C-6 3.01 -6 2.02 -6 1 C-4.7934375 1.0309375 -4.7934375 1.0309375 -3.5625 1.0625 C-1.06645115 1.29633621 -1.06645115 1.29633621 0 0 Z " fill="#495058" transform="translate(313,586)"/>
<path d="M0 0 C1.98 0.66 3.96 1.32 6 2 C5.34 3.32 4.68 4.64 4 6 C1.525 5.01 1.525 5.01 -1 4 C-0.67 2.68 -0.34 1.36 0 0 Z " fill="#49535B" transform="translate(215,530)"/>
<path d="M0 0 C1.875 0.75 1.875 0.75 2.875 2.75 C2.215 3.41 1.555 4.07 0.875 4.75 C0.875 4.09 0.875 3.43 0.875 2.75 C0.215 2.75 -0.445 2.75 -1.125 2.75 C-1.455 3.41 -1.785 4.07 -2.125 4.75 C-3.115 5.41 -4.105 6.07 -5.125 6.75 C-5.3125 4.375 -5.3125 4.375 -5.125 1.75 C-2.125 -0.25 -2.125 -0.25 0 0 Z " fill="#394148" transform="translate(641.125,340.25)"/>
<path d="M0 0 C-0.75 1.9375 -0.75 1.9375 -2 4 C-4.0625 4.625 -4.0625 4.625 -6 5 C-6.33 5.66 -6.66 6.32 -7 7 C-8.32 7 -9.64 7 -11 7 C-11 6.34 -11 5.68 -11 5 C-9.54462432 4.16151196 -8.08559627 3.32936066 -6.625 2.5 C-5.81289062 2.0359375 -5.00078125 1.571875 -4.1640625 1.09375 C-2 0 -2 0 0 0 Z " fill="#E6F8E4" transform="translate(84,326)"/>
<path d="M0 0 C-0.1875 1.875 -0.1875 1.875 -1 4 C-3.68257593 5.5225431 -5.24544717 6.12235992 -8.3125 5.625 C-8.869375 5.41875 -9.42625 5.2125 -10 5 C-3.63636364 0 -3.63636364 0 0 0 Z " fill="#E6F8E4" transform="translate(119,308)"/>
<path d="M0 0 C2 3 2 3 1.8125 5.9375 C1.00070842 8.9973298 0.07524374 10.65407229 -2 13 C-2.66 12.67 -3.32 12.34 -4 12 C-2.68 8.04 -1.36 4.08 0 0 Z " fill="#DFF4DC" transform="translate(666,227)"/>
<path d="M0 0 C-1.74951568 0.95921722 -3.49963244 1.91733817 -5.25 2.875 C-6.71179688 3.67550781 -6.71179688 3.67550781 -8.203125 4.4921875 C-10.45130408 5.70419466 -12.7072805 6.87547567 -15 8 C-13.64529547 3.9358864 -11.62588966 3.16158807 -8 1 C-3.53773585 -1.17924528 -3.53773585 -1.17924528 0 0 Z " fill="#DCF5DC" transform="translate(159,160)"/>
<path d="M0 0 C1.65 0.33 3.3 0.66 5 1 C2.45543849 3.96865509 -0.48994665 5.3619751 -4 7 C-3.67 5.68 -3.34 4.36 -3 3 C-2.34 3 -1.68 3 -1 3 C-0.67 2.01 -0.34 1.02 0 0 Z " fill="#E9F6E5" transform="translate(321,59)"/>
<path d="M0 0 C1.32 0.33 2.64 0.66 4 1 C-0.62 3.64 -5.24 6.28 -10 9 C-9.34 7.68 -8.68 6.36 -8 5 C-5.375 4.25 -5.375 4.25 -3 4 C-3 3.34 -3 2.68 -3 2 C-2.01 1.34 -1.02 0.68 0 0 Z " fill="#E2F6E2" transform="translate(342,48)"/>
<path d="M0 0 C3.73487777 0.4979837 5.81237635 0.87491756 9 3 C8.67 3.66 8.34 4.32 8 5 C7.01 4.67 6.02 4.34 5 4 C4.01 4.33 3.02 4.66 2 5 C1.01 4.34 0.02 3.68 -1 3 C-0.67 2.01 -0.34 1.02 0 0 Z " fill="#4C5258" transform="translate(244,468)"/>
<path d="M0 0 C1.9375 0.375 1.9375 0.375 4 1 C4.33 1.66 4.66 2.32 5 3 C2.69 4.32 0.38 5.64 -2 7 C-2.66 6.34 -3.32 5.68 -4 5 C-3.34 5 -2.68 5 -2 5 C-1.34 3.35 -0.68 1.7 0 0 Z " fill="#EDF1F2" transform="translate(251,458)"/>
<path d="M0 0 C4.75 1.875 4.75 1.875 7 3 C5.125 4.0625 5.125 4.0625 3 5 C2.34 4.67 1.68 4.34 1 4 C1 4.66 1 5.32 1 6 C0.34 6 -0.32 6 -1 6 C-1.625 4.125 -1.625 4.125 -2 2 C-1.34 1.34 -0.68 0.68 0 0 Z " fill="#519752" transform="translate(26,356)"/>
<path d="M0 0 C0.66 1.32 1.32 2.64 2 4 C-0.97 6.475 -0.97 6.475 -4 9 C-4.66 8.34 -5.32 7.68 -6 7 C-4.02 4.69 -2.04 2.38 0 0 Z " fill="#649B64" transform="translate(38,341)"/>
<path d="M0 0 C0 3.77910478 -0.99703962 4.46106101 -3.5 7.1875 C-4.47453125 8.26064453 -4.47453125 8.26064453 -5.46875 9.35546875 C-5.9740625 9.89816406 -6.479375 10.44085938 -7 11 C-7 8 -7 8 -5 6 C-4.35232207 3.42938689 -4.35232207 3.42938689 -4 1 C-2.68 0.67 -1.36 0.34 0 0 Z " fill="#283137" transform="translate(675,343)"/>
<path d="M0 0 C0.66 0.66 1.32 1.32 2 2 C0.68 4.64 -0.64 7.28 -2 10 C-4 9 -4 9 -4.9375 7.25 C-5 5 -5 5 -2.5625 2.25 C-1.716875 1.5075 -0.87125 0.765 0 0 Z " fill="#E7EBEC" transform="translate(698,262)"/>
<path d="M0 0 C1.32 0.33 2.64 0.66 4 1 C2.63016497 4.16115776 2.0109362 4.9927092 -1 7 C-1.66 5.68 -2.32 4.36 -3 3 C-2.01 2.67 -1.02 2.34 0 2 C0 1.34 0 0.68 0 0 Z " fill="#529450" transform="translate(650,249)"/>
<path d="M0 0 C0 0.99 0 1.98 0 3 C-5.75 4.125 -5.75 4.125 -8 3 C-8 2.34 -8 1.68 -8 1 C-2.25 -1.125 -2.25 -1.125 0 0 Z " fill="#4E575E" transform="translate(205,523)"/>
<path d="M0 0 C0.66 0 1.32 0 2 0 C2 0.66 2 1.32 2 2 C3.32 2.33 4.64 2.66 6 3 C4.35 4.32 2.7 5.64 1 7 C0.01 6.01 -0.98 5.02 -2 4 C-1.01 3.67 -0.02 3.34 1 3 C0.67 2.01 0.34 1.02 0 0 Z " fill="#63A161" transform="translate(40,346)"/>
<path d="M0 0 C0 0.66 0 1.32 0 2 C-0.66 2 -1.32 2 -2 2 C-2 2.66 -2 3.32 -2 4 C-4.97 4 -7.94 4 -11 4 C-11.33 3.34 -11.66 2.68 -12 2 C-10.37548581 1.66430703 -8.75037083 1.3315204 -7.125 1 C-6.22007812 0.814375 -5.31515625 0.62875 -4.3828125 0.4375 C-2 0 -2 0 0 0 Z " fill="#E2F8E1" transform="translate(205,281)"/>
<path d="M0 0 C2.0625 1.625 2.0625 1.625 4 4 C3.75 7.25 3.75 7.25 3 10 C2.67 9.01 2.34 8.02 2 7 C1.34 7 0.68 7 0 7 C-0.66 5.35 -1.32 3.7 -2 2 C-1.34 2 -0.68 2 0 2 C0 1.34 0 0.68 0 0 Z " fill="#33373B" transform="translate(711,260)"/>
<path d="M0 0 C0.99 0.33 1.98 0.66 3 1 C4.1875 3.5625 4.1875 3.5625 5 6 C4.01 6 3.02 6 2 6 C2.33 5.34 2.66 4.68 3 4 C1.35 4.33 -0.3 4.66 -2 5 C-2 3.68 -2 2.36 -2 1 C-1.34 0.67 -0.68 0.34 0 0 Z " fill="#509B4C" transform="translate(624,161)"/>
<path d="M0 0 C4.82360189 -0.19294408 8.49646738 0.24252386 13 2 C11.25 3.125 11.25 3.125 9 4 C7.0625 3.125 7.0625 3.125 5 2 C2.33290931 1.83249586 2.33290931 1.83249586 0 2 C0 1.34 0 0.68 0 0 Z " fill="#F1FEEF" transform="translate(336,276)"/>
<path d="M0 0 C6.11485027 -0.09706112 11.93303301 0.22959149 18 1 C18 1.33 18 1.66 18 2 C11.565 2.495 11.565 2.495 5 3 C5 2.67 5 2.34 5 2 C3.35 1.67 1.7 1.34 0 1 C0 0.67 0 0.34 0 0 Z " fill="#66A065" transform="translate(331,273)"/>
<path d="M0 0 C0.66 0.33 1.32 0.66 2 1 C0.21190303 2.17213045 -1.58059125 3.33755526 -3.375 4.5 C-4.37273437 5.1496875 -5.37046875 5.799375 -6.3984375 6.46875 C-9 8 -9 8 -11 8 C-10 5 -10 5 -7.78515625 3.578125 C-6.88667969 3.13984375 -5.98820313 2.7015625 -5.0625 2.25 C-4.16660156 1.80140625 -3.27070313 1.3528125 -2.34765625 0.890625 C-1.18556641 0.44976562 -1.18556641 0.44976562 0 0 Z " fill="#E3F8E2" transform="translate(259,99)"/>
<path d="M0 0 C0.66 0.66 1.32 1.32 2 2 C-0.97 3.65 -3.94 5.3 -7 7 C-7.33 6.34 -7.66 5.68 -8 5 C-7.34 5 -6.68 5 -6 5 C-5.67 4.01 -5.34 3.02 -5 2 C-2.4375 0.8125 -2.4375 0.8125 0 0 Z " fill="#E5F7E4" transform="translate(288,81)"/>
<path d="M0 0 C0.99 0.66 1.98 1.32 3 2 C0.03 3.65 -2.94 5.3 -6 7 C-4.52307692 2.32307692 -4.52307692 2.32307692 -1.875 0.6875 C-1.25625 0.460625 -0.6375 0.23375 0 0 Z " fill="#E1F5E0" transform="translate(297,75)"/>
<path d="M0 0 C0.99 0.66 1.98 1.32 3 2 C-1.95 3.485 -1.95 3.485 -7 5 C-7.33 3.68 -7.66 2.36 -8 1 C-6.865625 1.020625 -5.73125 1.04125 -4.5625 1.0625 C-1.18424326 1.41577477 -1.18424326 1.41577477 0 0 Z " fill="#E4F7E3" transform="translate(368,35)"/>
<path d="M0 0 C0.66 0.33 1.32 0.66 2 1 C-0.475 4.465 -0.475 4.465 -3 8 C-3.66 7.67 -4.32 7.34 -5 7 C-5 5.68 -5 4.36 -5 3 C-2.625 1.1875 -2.625 1.1875 0 0 Z " fill="#EDF2F4" transform="translate(518,569)"/>
<path d="M0 0 C-0.33 1.65 -0.66 3.3 -1 5 C-1.66 4.67 -2.32 4.34 -3 4 C-3.99 4.495 -3.99 4.495 -5 5 C-5.99 4.01 -6.98 3.02 -8 2 C-4.77208445 -0.1519437 -3.71599191 -0.20086443 0 0 Z " fill="#4B535C" transform="translate(288,569)"/>
<path d="M0 0 C2.64 0.66 5.28 1.32 8 2 C8 2.66 8 3.32 8 4 C6.35 4.66 4.7 5.32 3 6 C2.01 4.02 1.02 2.04 0 0 Z " fill="#F3F6F9" transform="translate(577,370)"/>
<path d="M0 0 C1.65 0 3.3 0 5 0 C5.33 0.99 5.66 1.98 6 3 C4.35 4.65 2.7 6.3 1 8 C1.33 6.35 1.66 4.7 2 3 C1.01 2.67 0.02 2.34 -1 2 C-0.67 1.34 -0.34 0.68 0 0 Z " fill="#EDF9EB" transform="translate(14,361)"/>
<path d="M0 0 C0.66 0.33 1.32 0.66 2 1 C-1.33562767 5.51290803 -3.33289301 7.68206814 -9 9 C-6.31941902 5.42589203 -3.57410797 2.68058098 0 0 Z " fill="#568B54" transform="translate(79,303)"/>
<path d="M0 0 C0 0.66 0 1.32 0 2 C-0.99 2 -1.98 2 -3 2 C-2.67 2.99 -2.34 3.98 -2 5 C-2.99 4.67 -3.98 4.34 -5 4 C-6.33106622 3.65772583 -7.66400079 3.32248257 -9 3 C-5.83583464 -0.30799106 -4.50236011 -1.35070803 0 0 Z " fill="#539450" transform="translate(188,146)"/>
<path d="M0 0 C3.4375 1.25 3.4375 1.25 7 3 C7.33 4.32 7.66 5.64 8 7 C5.03 5.35 2.06 3.7 -1 2 C-0.67 1.34 -0.34 0.68 0 0 Z " fill="#E2F7E2" transform="translate(578,130)"/>
<path d="M0 0 C2.64 0 5.28 0 8 0 C4.98112756 3.48331435 2.43090471 4.79157144 -2 6 C-1.01 4.68 -0.02 3.36 1 2 C0.67 1.34 0.34 0.68 0 0 Z " fill="#2E343B" transform="translate(520,563)"/>
<path d="M0 0 C0 0.33 0 0.66 0 1 C-6.09339169 2.88341198 -10.72532201 3.0748291 -17 2 C-17 1.67 -17 1.34 -17 1 C-11.29309366 0.00749455 -5.78591511 -0.10477512 0 0 Z " fill="#1E252A" transform="translate(442,414)"/>
<path d="M0 0 C-0.99 0.33 -1.98 0.66 -3 1 C-3 1.66 -3 2.32 -3 3 C-7.455 3.495 -7.455 3.495 -12 4 C-9.94577945 1.94577945 -8.66990976 1.31862408 -6 0.3125 C-5.29875 0.04050781 -4.5975 -0.23148437 -3.875 -0.51171875 C-2 -1 -2 -1 0 0 Z " fill="#272B31" transform="translate(563,385)"/>
<path d="M0 0 C0.99 0.33 1.98 0.66 3 1 C0.69 3.31 -1.62 5.62 -4 8 C-4.33 7.01 -4.66 6.02 -5 5 C-4.67 4.34 -4.34 3.68 -4 3 C-3.34 3 -2.68 3 -2 3 C-2 2.34 -2 1.68 -2 1 C-1.34 0.67 -0.68 0.34 0 0 Z " fill="#EAFCE6" transform="translate(52,324)"/>
<path d="M0 0 C0.66 0.66 1.32 1.32 2 2 C1.34 2 0.68 2 0 2 C0 3.32 0 4.64 0 6 C-0.66 6 -1.32 6 -2 6 C-2.33 6.66 -2.66 7.32 -3 8 C-3.99 8 -4.98 8 -6 8 C-4.55746343 4.63408134 -2.66735273 2.48952921 0 0 Z " fill="#2C3137" transform="translate(671,307)"/>
<path d="M0 0 C0.66 0.66 1.32 1.32 2 2 C0.68 4.97 -0.64 7.94 -2 11 C-2.66 10.67 -3.32 10.34 -4 10 C-2.8905928 6.51329166 -1.73662334 3.22515763 0 0 Z " fill="#ECF0F2" transform="translate(705,246)"/>
<path d="M0 0 C2.64 0 5.28 0 8 0 C8 1.32 8 2.64 8 4 C8.66 4.33 9.32 4.66 10 5 C5.75354935 5 3.61475228 3.18249194 0 1 C0 0.67 0 0.34 0 0 Z " fill="#DFF8DF" transform="translate(601,146)"/>
<path d="M0 0 C-0.33 0.66 -0.66 1.32 -1 2 C-4.73487777 1.5020163 -6.81237635 1.12508244 -10 -1 C-5.95821645 -2.34726118 -3.96013719 -1.32004573 0 0 Z " fill="#F6F6F5" transform="translate(394,630)"/>
<path d="M0 0 C-2.64 1.98 -5.28 3.96 -8 6 C-8.66 5.67 -9.32 5.34 -10 5 C-7.70817629 1.38133099 -4.43955904 -2.21977952 0 0 Z " fill="#2A2F33" transform="translate(631,501)"/>
<path d="M0 0 C0.99 0 1.98 0 3 0 C1.55746343 3.36591866 -0.33264727 5.51047079 -3 8 C-2.25 2.25 -2.25 2.25 0 0 Z " fill="#E7FBE7" transform="translate(23,355)"/>
<path d="M0 0 C0.33 0.99 0.66 1.98 1 3 C-2.96 4.98 -2.96 4.98 -7 7 C-3.5 0 -3.5 0 0 0 Z " fill="#EBF1F3" transform="translate(675,348)"/>
<path d="M0 0 C1.65 0 3.3 0 5 0 C2.42215154 2.64752004 0.08351902 4.94432065 -3 7 C-2.67 5.35 -2.34 3.7 -2 2 C-1.34 2 -0.68 2 0 2 C0 1.34 0 0.68 0 0 Z " fill="#E3F8E2" transform="translate(72,305)"/>
<path d="M0 0 C0.33 0.66 0.66 1.32 1 2 C-2.67410785 3.17571451 -6.16929183 3.07366746 -10 3 C-6.88378718 -0.11621282 -4.21175599 -0.11383124 0 0 Z " fill="#538B51" transform="translate(562,289)"/>
<path d="M0 0 C0 0.33 0 0.66 0 1 C-1.77049689 1.05410687 -3.54146849 1.09284119 -5.3125 1.125 C-6.79169922 1.15980469 -6.79169922 1.15980469 -8.30078125 1.1953125 C-11 1 -11 1 -14 -1 C-9.04653013 -2.59789351 -4.86717585 -1.28306814 0 0 Z " fill="#558952" transform="translate(437,286)"/>
<path d="M0 0 C0.33 0.66 0.66 1.32 1 2 C-3.01804691 2.84098656 -6.01803543 3.05404945 -10 2 C-7.20652751 -0.79347249 -3.65536205 -1.82768103 0 0 Z " fill="#629C62" transform="translate(189,283)"/>
<path d="M0 0 C1 3 1 3 1 6 C0.34 6 -0.32 6 -1 6 C-1.33 6.99 -1.66 7.98 -2 9 C-2.99 8.34 -3.98 7.68 -5 7 C-3.35 4.69 -1.7 2.38 0 0 Z " fill="#F1FCEF" transform="translate(658,248)"/>
<path d="M0 0 C1.0625 1.8125 1.0625 1.8125 2 4 C1.67 4.99 1.34 5.98 1 7 C0.34 7 -0.32 7 -1 7 C-1.66 8.32 -2.32 9.64 -3 11 C-2.69078116 9.54096742 -2.37751201 8.08279278 -2.0625 6.625 C-1.88847656 5.81289062 -1.71445312 5.00078125 -1.53515625 4.1640625 C-1 2 -1 2 0 0 Z " fill="#282E34" transform="translate(712,232)"/>
<path d="M0 0 C0.33 0.99 0.66 1.98 1 3 C0.360625 3.28875 -0.27875 3.5775 -0.9375 3.875 C-3.15206079 4.82823451 -3.15206079 4.82823451 -4 7 C-5.32 6.67 -6.64 6.34 -8 6 C-5.36 4.02 -2.72 2.04 0 0 Z " fill="#549052" transform="translate(147,166)"/>
<path d="M0 0 C1.77007714 -0.08114106 3.54122098 -0.13925505 5.3125 -0.1875 C6.29863281 -0.22230469 7.28476562 -0.25710937 8.30078125 -0.29296875 C11 0 11 0 12.85546875 1.51171875 C13.23316406 2.00285156 13.61085938 2.49398437 14 3 C9.33333333 2.33333333 4.66666667 1.66666667 0 1 C0 0.67 0 0.34 0 0 Z " fill="#DCF6DA" transform="translate(399,33)"/>
<path d="M0 0 C0.99 0.33 1.98 0.66 3 1 C1.8141763 4.37503669 0.72426311 6.64722731 -2 9 C-1.34 7.02 -0.68 5.04 0 3 C-0.66 2.67 -1.32 2.34 -2 2 C-1.34 1.34 -0.68 0.68 0 0 Z " fill="#282D34" transform="translate(695,309)"/>
<path d="M0 0 C1.67542976 0.28604898 3.34385343 0.61781233 5 1 C4.01 1.495 4.01 1.495 3 2 C2.34 1.67 1.68 1.34 1 1 C1.33 1.99 1.66 2.98 2 4 C1.01 4.66 0.02 5.32 -1 6 C-1.66 5.67 -2.32 5.34 -3 5 C-1.125 1.125 -1.125 1.125 0 0 Z " fill="#2E3337" transform="translate(675,302)"/>
<path d="M0 0 C3.63 0.33 7.26 0.66 11 1 C11 1.33 11 1.66 11 2 C7.26513121 2.5745952 3.78706732 3 0 3 C0 2.01 0 1.02 0 0 Z " fill="#DBF5DB" transform="translate(394,282)"/>
<path d="M0 0 C1.32 0.66 2.64 1.32 4 2 C0.04 3.98 0.04 3.98 -4 6 C-3 2 -3 2 0 0 Z " fill="#E1F8E1" transform="translate(183,142)"/>
<path d="M0 0 C4.43090471 1.20842856 6.98112756 2.51668565 10 6 C7.69 6 5.38 6 3 6 C3 5.01 3 4.02 3 3 C1.56249809 1.31201173 1.56249809 1.31201173 0 0 Z " fill="#52894F" transform="translate(542,112)"/>
<path d="M0 0 C3.3 0 6.6 0 10 0 C6.09567131 1.95216435 3.27786748 2.50639991 -1 3 C-0.67 2.01 -0.34 1.02 0 0 Z " fill="#D6F1D4" transform="translate(374,33)"/>
<path d="M0 0 C-0.66 1.32 -1.32 2.64 -2 4 C-2.66 3.01 -3.32 2.02 -4 1 C-4.33 1.66 -4.66 2.32 -5 3 C-5.99 2.34 -6.98 1.68 -8 1 C-4.93251126 -0.86240388 -3.40254489 -1.2151946 0 0 Z " fill="#F3F5F4" transform="translate(437,620)"/>
<path d="M0 0 C0 0.99 0 1.98 0 3 C-2.64738916 4.4606285 -3.89448334 5 -7 5 C-7 4.34 -7 3.68 -7 3 C-2.61538462 0 -2.61538462 0 0 0 Z " fill="#F1F3F3" transform="translate(544,555)"/>
<path d="M0 0 C-3.69172595 3.53790403 -7.09390595 3.59115883 -12 4 C-11 2 -11 2 -8.25 0.875 C-5.29813104 0.08026605 -3.02780163 -0.17810598 0 0 Z " fill="#30363B" transform="translate(324,429)"/>
<path d="M0 0 C1.125 1.75 1.125 1.75 2 4 C1.125 6.25 1.125 6.25 0 8 C-0.99 7.01 -1.98 6.02 -3 5 C-2.01 4.67 -1.02 4.34 0 4 C-0.33 3.01 -0.66 2.02 -1 1 C-0.67 0.67 -0.34 0.34 0 0 Z " fill="#64A862" transform="translate(59,320)"/>
<path d="M0 0 C0.99 0.66 1.98 1.32 3 2 C2.05125 2.061875 1.1025 2.12375 0.125 2.1875 C-1.421875 2.5896875 -1.421875 2.5896875 -3 3 C-4.45291273 5.46255685 -4.45291273 5.46255685 -5 8 C-5.625 6.125 -5.625 6.125 -6 4 C-5.34 3.34 -4.68 2.68 -4 2 C-2.68 2 -1.36 2 0 2 C0 1.34 0 0.68 0 0 Z " fill="#60A262" transform="translate(93,316)"/>
<path d="M0 0 C-2.71182212 2.60334924 -3.89133813 2.99456691 -7.75 3.1875 C-8.8225 3.125625 -9.895 3.06375 -11 3 C-9.66666667 2.33333333 -8.33333333 1.66666667 -7 1 C-6.319375 0.608125 -5.63875 0.21625 -4.9375 -0.1875 C-3 -1 -3 -1 0 0 Z " fill="#E4F8E1" transform="translate(148,298)"/>
<path d="M0 0 C0.66 0.33 1.32 0.66 2 1 C2 3.31 2 5.62 2 8 C1.01 8 0.02 8 -1 8 C-2 6 -2 6 -1.0625 2.875 C-0.5365625 1.451875 -0.5365625 1.451875 0 0 Z " fill="#E4E7E9" transform="translate(712,275)"/>
<path d="M0 0 C0.99 0.33 1.98 0.66 3 1 C2.42655063 3.86724686 2.1385485 4.8614515 0 7 C-0.66 6.67 -1.32 6.34 -2 6 C-1.34 4.02 -0.68 2.04 0 0 Z " fill="#2B3238" transform="translate(705,252)"/>
<path d="M0 0 C1.875 0.1875 1.875 0.1875 4 1 C5.25 3.5625 5.25 3.5625 6 6 C3.5625 5.25 3.5625 5.25 1 4 C0.1875 1.875 0.1875 1.875 0 0 Z " fill="#E9F9EB" transform="translate(569,124)"/>
<path d="M0 0 C-0.9977758 2.99332739 -1.7522025 3.94766315 -4 6 C-5.32 5.34 -6.64 4.68 -8 4 C-7.01 3.67 -6.02 3.34 -5 3 C-5.33 2.34 -5.66 1.68 -6 1 C-4 0 -4 0 0 0 Z " fill="#64A265" transform="translate(243,112)"/>
<path d="M0 0 C-3.12432397 2.52349243 -6.38060496 4.27256146 -10 6 C-8.26240984 0.78722952 -5.3189028 -0.4432419 0 0 Z " fill="#DEF6DE" transform="translate(279,89)"/>
<path d="M0 0 C1.98 0.495 1.98 0.495 4 1 C4 1.66 4 2.32 4 3 C4.66 3.33 5.32 3.66 6 4 C3.625 4.625 3.625 4.625 1 5 C0.34 4.34 -0.32 3.68 -1 3 C-0.67 2.01 -0.34 1.02 0 0 Z " fill="#61A362" transform="translate(316,66)"/>
<path d="M0 0 C-0.99 0.99 -1.98 1.98 -3 3 C-4.65 1.68 -6.3 0.36 -8 -1 C-4.37673261 -2.2077558 -3.35853631 -1.54311128 0 0 Z " fill="#4D545A" transform="translate(259,555)"/>
<path d="M0 0 C0.33 0.66 0.66 1.32 1 2 C-0.3125 4 -0.3125 4 -2 6 C-2.99 6 -3.98 6 -5 6 C-5 5.01 -5 4.02 -5 3 C-2.5 1.3125 -2.5 1.3125 0 0 Z " fill="#EAEFF1" transform="translate(582,531)"/>
<path d="M0 0 C0 0.99 0 1.98 0 3 C-0.66 3 -1.32 3 -2 3 C-2 3.66 -2 4.32 -2 5 C-3.98 5.33 -5.96 5.66 -8 6 C-5.38485683 3.87961365 -2.80362384 1.86908256 0 0 Z " fill="#E3F7E7" transform="translate(70,333)"/>
<path d="M0 0 C1.65 0.33 3.3 0.66 5 1 C3.68 2.32 2.36 3.64 1 5 C0.01 4.67 -0.98 4.34 -2 4 C-1.34 2.68 -0.68 1.36 0 0 Z " fill="#E9EBEC" transform="translate(639,333)"/>
<path d="M0 0 C-0.33 0.99 -0.66 1.98 -1 3 C-4.5625 4.6875 -4.5625 4.6875 -8 6 C-8.33 5.34 -8.66 4.68 -9 4 C-2.25 0 -2.25 0 0 0 Z " fill="#E3F5E2" transform="translate(93,321)"/>
<path d="M0 0 C3.63 0.33 7.26 0.66 11 1 C11 1.33 11 1.66 11 2 C7.37 2.33 3.74 2.66 0 3 C0 2.01 0 1.02 0 0 Z " fill="#E5FCE5" transform="translate(423,286)"/>
<path d="M0 0 C0.66 0 1.32 0 2 0 C3.2077558 3.62326739 2.54311128 4.64146369 1 8 C0.67 8 0.34 8 0 8 C-0.38063221 5.6739143 -0.71269945 3.33944736 -1 1 C-0.67 0.67 -0.34 0.34 0 0 Z " fill="#639F61" transform="translate(105,222)"/>
<path d="M0 0 C0.33 1.32 0.66 2.64 1 4 C-0.98 4.33 -2.96 4.66 -5 5 C-5 4.34 -5 3.68 -5 3 C-2.5 1.375 -2.5 1.375 0 0 Z " fill="#5F9762" transform="translate(192,140)"/>
<path d="M0 0 C5.75 0.875 5.75 0.875 8 2 C8 2.99 8 3.98 8 5 C4.62496331 3.8141763 2.35277269 2.72426311 0 0 Z " fill="#E0F2E1" transform="translate(538,108)"/>
<path d="M0 0 C2.31 0.66 4.62 1.32 7 2 C6.67 3.32 6.34 4.64 6 6 C2.535 4.02 2.535 4.02 -1 2 C-0.67 1.34 -0.34 0.68 0 0 Z " fill="#DDF6D9" transform="translate(523,98)"/>
<path d="M0 0 C-4.39453125 4.00390625 -4.39453125 4.00390625 -6 5 C-6.99 4.67 -7.98 4.34 -9 4 C-7.68 3.67 -6.36 3.34 -5 3 C-5.33 2.01 -5.66 1.02 -6 0 C-3.50907189 -1.24546405 -2.58919267 -0.7767578 0 0 Z " fill="#649C60" transform="translate(286,88)"/>
<path d="M0 0 C1.98 0 3.96 0 6 0 C6 0.66 6 1.32 6 2 C3.625 3.6875 3.625 3.6875 1 5 C0.34 4.67 -0.32 4.34 -1 4 C-0.67 2.68 -0.34 1.36 0 0 Z " fill="#63A160" transform="translate(290,82)"/>
<path d="M0 0 C1.98 0.495 1.98 0.495 4 1 C4.33 2.65 4.66 4.3 5 6 C3.02 5.01 1.04 4.02 -1 3 C-0.67 2.01 -0.34 1.02 0 0 Z " fill="#E7F5E3" transform="translate(488,76)"/>
<path d="M0 0 C1.32 0.66 2.64 1.32 4 2 C3.34 2.66 2.68 3.32 2 4 C1.67 4.66 1.34 5.32 1 6 C0.01 5.67 -0.98 5.34 -2 5 C-1.34 3.35 -0.68 1.7 0 0 Z " fill="#65A064" transform="translate(303,74)"/>
<path d="M0 0 C0.33 0.66 0.66 1.32 1 2 C-0.70625501 4.78388975 -1.47626739 5.85384206 -4.6875 6.75 C-5.8321875 6.87375 -5.8321875 6.87375 -7 7 C-4.66666667 4.66666667 -2.33333333 2.33333333 0 0 Z " fill="#E4F9E9" transform="translate(20,369)"/>
<path d="M0 0 C0.99 0.33 1.98 0.66 3 1 C0.87219421 3.34058637 -1.11562221 4.70700306 -4 6 C-4 5.01 -4 4.02 -4 3 C-2.1875 1.25 -2.1875 1.25 0 0 Z " fill="#EFFAF5" transform="translate(25,365)"/>
<path d="M0 0 C0.33 1.32 0.66 2.64 1 4 C-0.65 4.33 -2.3 4.66 -4 5 C-2.25 1.125 -2.25 1.125 0 0 Z " fill="#F0FAF3" transform="translate(68,308)"/>
<path d="M0 0 C2.64 0.66 5.28 1.32 8 2 C8 2.66 8 3.32 8 4 C3.545 3.01 3.545 3.01 -1 2 C-0.67 1.34 -0.34 0.68 0 0 Z " fill="#EFFCED" transform="translate(599,143)"/>
<path d="M0 0 C2.625 0.9375 2.625 0.9375 5 2 C4.67 2.99 4.34 3.98 4 5 C-0.875 3.25 -0.875 3.25 -2 1 C-1.34 0.67 -0.68 0.34 0 0 Z " fill="#E3F6E4" transform="translate(594,139)"/>
<path d="M0 0 C0.33 0.66 0.66 1.32 1 2 C1.66 2.33 2.32 2.66 3 3 C0.29120665 4.35439668 -2.00933268 4.06501451 -5 4 C-3.36587557 2.29159719 -2.13093906 1.06546953 0 0 Z " fill="#5B9257" transform="translate(221,123)"/>
<path d="M0 0 C0.66 0.33 1.32 0.66 2 1 C1.01 2.32 0.02 3.64 -1 5 C-2.32 4.34 -3.64 3.68 -5 3 C-2.625 1.4375 -2.625 1.4375 0 0 Z " fill="#5A8E57" transform="translate(289,83)"/>
<path d="M0 0 C0.66 0.66 1.32 1.32 2 2 C-2.75 5 -2.75 5 -5 5 C-5 4.34 -5 3.68 -5 3 C-5.66 2.67 -6.32 2.34 -7 2 C-4.69 1.34 -2.38 0.68 0 0 Z " fill="#68A163" transform="translate(313,70)"/>
<path d="M0 0 C4.875 1.75 4.875 1.75 6 4 C3.36 3.67 0.72 3.34 -2 3 C-1.34 2.01 -0.68 1.02 0 0 Z " fill="#568E54" transform="translate(442,52)"/>
<path d="M0 0 C1.32 0.66 2.64 1.32 4 2 C2.68 2.33 1.36 2.66 0 3 C0 3.99 0 4.98 0 6 C-1.32 5.34 -2.64 4.68 -4 4 C-2.68 2.68 -1.36 1.36 0 0 Z " fill="#61A662" transform="translate(365,38)"/>
<path d="M0 0 C0.79921875 0.01804688 1.5984375 0.03609375 2.421875 0.0546875 C3.02515625 0.07789063 3.6284375 0.10109375 4.25 0.125 C4.25 0.455 4.25 0.785 4.25 1.125 C-4.17857143 3.55357143 -4.17857143 3.55357143 -8.75 2.125 C-5.68753253 0.34090198 -3.52920727 -0.10380021 0 0 Z " fill="#498748" transform="translate(384.75,33.875)"/>
</svg>
